999
dxfrw 0.6.3
  0
SECTION
  2
HEADER
  9
$ACADVER
  1
AC1021
  9
$DWGCODEPAGE
  3
ANSI_936
  9
$INSBASE
 10
0
 20
0
 30
0
  9
$EXTMIN
 10
-342.9574022055708
 20
-121.9539562544889
 30
0
  9
$EXTMAX
 10
386.6094451273382
 20
-12.31210465317593
 30
0
  9
$LIMMIN
 10
0
 20
0
  9
$LIMMAX
 10
420
 20
297
  9
$ORTHOMODE
 70
    0
  9
$REGENMODE
 70
    1
  9
$FILLMODE
 70
    1
  9
$QTEXTMODE
 70
    0
  9
$MIRRTEXT
 70
    1
  9
$LTSCALE
 40
1
  9
$ATTMODE
 70
    1
  9
$TEXTSIZE
 40
3.5
  9
$TRACEWID
 40
1
  9
$TEXTSTYLE
  7
STANDARD
  9
$CLAYER
  8
0
  9
$CELTYPE
  6
BYLAYER
  9
$CECOLOR
 62
  256
  9
$CELTSCALE
 40
1
  9
$DISPSILH
 70
    0
  9
$DIMSCALE
 40
1
  9
$DIMASZ
 40
3.556
  9
$DIMEXO
 40
0
  9
$DIMDLI
 40
3.75
  9
$DIMRND
 40
0
  9
$DIMDLE
 40
0
  9
$DIMEXE
 40
1
  9
$DIMTP
 40
0
  9
$DIMTM
 40
0
  9
$DIMTXT
 40
3.5
  9
$DIMCEN
 40
2.5
  9
$DIMTSZ
 40
0
  9
$DIMTOL
 70
    0
  9
$DIMLIM
 70
    0
  9
$DIMTIH
 70
    1
  9
$DIMTOH
 70
    1
  9
$DIMSE1
 70
    0
  9
$DIMSE2
 70
    0
  9
$DIMTAD
 70
    1
  9
$DIMZIN
 70
    1
  9
$DIMBLK
  1

  9
$DIMASO
 70
    1
  9
$DIMSHO
 70
    1
  9
$DIMPOST
  1

  9
$DIMAPOST
  1

  9
$DIMALT
 70
    0
  9
$DIMALTD
 70
    3
  9
$DIMALTF
 40
0.0393700787401575
  9
$DIMLFAC
 40
1
  9
$DIMTOFL
 70
    1
  9
$DIMTVP
 40
0
  9
$DIMTIX
 70
    0
  9
$DIMSOXD
 70
    0
  9
$DIMSAH
 70
    0
  9
$DIMBLK1
  1

  9
$DIMBLK2
  1

  9
$DIMSTYLE
  2
Standard
  9
$DIMCLRD
 70
    0
  9
$DIMCLRE
 70
    0
  9
$DIMCLRT
 70
    0
  9
$DIMTFAC
 40
1
  9
$DIMGAP
 40
0.625
  9
$DIMJUST
 70
    0
  9
$DIMSD1
 70
    0
  9
$DIMSD2
 70
    0
  9
$DIMTOLJ
 70
    0
  9
$DIMTZIN
 70
    8
  9
$DIMALTZ
 70
    0
  9
$DIMALTTZ
 70
    0
  9
$DIMUPT
 70
    0
  9
$DIMDEC
 70
    2
  9
$DIMTDEC
 70
    2
  9
$DIMALTU
 70
    2
  9
$DIMALTTD
 70
    3
  9
$DIMTXSTY
  7
STANDARD
  9
$DIMAUNIT
 70
    0
  9
$DIMADEC
 70
    0
  9
$DIMALTRND
 40
0
  9
$DIMAZIN
 70
    0
  9
$DIMDSEP
 70
   44
  9
$DIMATFIT
 70
    3
  9
$DIMFRAC
 70
    0
  9
$DIMLDRBLK
  1
STANDARD
  9
$DIMLUNIT
 70
    2
  9
$DIMLWD
 70
   -2
  9
$DIMLWE
 70
   -2
  9
$DIMTMOVE
 70
    0
  9
$DIMFXL
 40
1
  9
$DIMFXLON
 70
    0
  9
$DIMJOGANG
 40
0.7854
  9
$DIMTFILL
 70
    0
  9
$DIMTFILLCLR
 70
    0
  9
$DIMARCSYM
 70
    0
  9
$DIMLTYPE
  6

  9
$DIMLTEX1
  6

  9
$DIMLTEX2
  6

  9
$LUNITS
 70
    2
  9
$LUPREC
 70
    2
  9
$SKETCHINC
 40
1
  9
$FILLETRAD
 40
10
  9
$AUNITS
 70
    0
  9
$AUPREC
 70
    2
  9
$MENU
  1
.
  9
$ELEVATION
 40
0
  9
$PELEVATION
 40
0
  9
$THICKNESS
 40
0
  9
$LIMCHECK
 70
    0
  9
$CHAMFERA
 40
0
  9
$CHAMFERB
 40
0
  9
$CHAMFERC
 40
0
  9
$CHAMFERD
 40
0
  9
$SKPOLY
 70
    0
  9
$USRTIMER
 70
    1
  9
$ANGBASE
 50
0
  9
$ANGDIR
 70
    0
  9
$PDMODE
 70
    0
  9
$PDSIZE
 40
-1
  9
$PLINEWID
 40
0
  9
$SPLFRAME
 70
    0
  9
$SPLINETYPE
 70
    6
  9
$SPLINESEGS
 70
    8
  9
$HANDSEED
  5
20000
  9
$SURFTAB1
 70
    6
  9
$SURFTAB2
 70
    6
  9
$SURFTYPE
 70
    6
  9
$SURFU
 70
    6
  9
$SURFV
 70
    6
  9
$UCSBASE
  2

  9
$UCSNAME
  2

  9
$UCSORG
 10
0
 20
0
 30
0
  9
$UCSXDIR
 10
1
 20
0
 30
0
  9
$UCSYDIR
 10
0
 20
1
 30
0
  9
$UCSORTHOREF
  2

  9
$UCSORTHOVIEW
 70
    0
  9
$UCSORGTOP
 10
0
 20
0
 30
0
  9
$UCSORGBOTTOM
 10
0
 20
0
 30
0
  9
$UCSORGLEFT
 10
0
 20
0
 30
0
  9
$UCSORGRIGHT
 10
0
 20
0
 30
0
  9
$UCSORGFRONT
 10
0
 20
0
 30
0
  9
$UCSORGBACK
 10
0
 20
0
 30
0
  9
$PUCSBASE
  2

  9
$PUCSNAME
  2

  9
$PUCSORG
 10
0
 20
0
 30
0
  9
$PUCSXDIR
 10
1
 20
0
 30
0
  9
$PUCSYDIR
 10
0
 20
1
 30
0
  9
$PUCSORTHOREF
  2

  9
$PUCSORTHOVIEW
 70
    0
  9
$PUCSORGTOP
 10
0
 20
0
 30
0
  9
$PUCSORGBOTTOM
 10
0
 20
0
 30
0
  9
$PUCSORGLEFT
 10
0
 20
0
 30
0
  9
$PUCSORGRIGHT
 10
0
 20
0
 30
0
  9
$PUCSORGFRONT
 10
0
 20
0
 30
0
  9
$PUCSORGBACK
 10
0
 20
0
 30
0
  9
$USERI1
 70
    0
  9
$USERI2
 70
    0
  9
$USERI3
 70
    0
  9
$USERI4
 70
    0
  9
$USERI5
 70
    0
  9
$USERR1
 40
0
  9
$USERR2
 40
0
  9
$USERR3
 40
0
  9
$USERR4
 40
0
  9
$USERR5
 40
0
  9
$WORLDVIEW
 70
    1
  9
$SHADEDGE
 70
    3
  9
$SHADEDIF
 70
   70
  9
$TILEMODE
 70
    1
  9
$MAXACTVP
 70
   64
  9
$PINSBASE
 10
0
 20
0
 30
0
  9
$PLIMCHECK
 70
    0
  9
$PEXTMIN
 10
0
 20
0
 30
0
  9
$PEXTMAX
 10
0
 20
0
 30
0
  9
$GRIDMODE
 70
    1
  9
$SNAPSTYLE
 70
    0
  9
$PLIMMIN
 10
0
 20
0
  9
$PLIMMAX
 10
210
 20
297
  9
$UNITMODE
 70
    0
  9
$VISRETAIN
 70
    1
  9
$PLINEGEN
 70
    0
  9
$PSLTSCALE
 70
    1
  9
$TREEDEPTH
 70
 3020
  9
$CMLSTYLE
  2
Standard
  9
$CMLJUST
 70
    0
  9
$CMLSCALE
 40
20
  9
$PROXYGRAPHICS
 70
    1
  9
$MEASUREMENT
 70
    1
  9
$CELWEIGHT
370
   -1
  9
$ENDCAPS
280
    0
  9
$JOINSTYLE
280
    0
  9
$LWDISPLAY
290
    0
  9
$INSUNITS
 70
    4
  9
$HYPERLINKBASE
  1

  9
$STYLESHEET
  1

  9
$XEDIT
290
    1
  9
$CEPSNTYPE
380
    0
  9
$PSTYLEMODE
290
    1
  9
$EXTNAMES
290
    1
  9
$PSVPSCALE
 40
1
  9
$OLESTARTUP
290
    0
  9
$SORTENTS
280
  127
  9
$INDEXCTL
280
    0
  9
$HIDETEXT
280
    1
  9
$XCLIPFRAME
290
    0
  9
$HALOGAP
280
    0
  9
$OBSCOLOR
 70
  257
  9
$OBSLTYPE
280
    0
  9
$INTERSECTIONDISPLAY
280
    0
  9
$INTERSECTIONCOLOR
 70
  257
  9
$DIMASSOC
280
    1
  9
$PROJECTNAME
  1

  9
$CAMERADISPLAY
290
    0
  9
$LENSLENGTH
 40
50
  9
$CAMERAHEIGHT
 40
0
  9
$STEPSPERSEC
 40
2
  9
$STEPSIZE
 40
50
  9
$3DDWFPREC
 40
2
  9
$PSOLWIDTH
 40
5
  9
$PSOLHEIGHT
 40
80
  9
$LOFTANG1
 40
1.570796326794897
  9
$LOFTANG2
 40
1.570796326794897
  9
$LOFTMAG1
 40
0
  9
$LOFTMAG2
 40
0
  9
$LOFTPARAM
 70
    7
  9
$LOFTNORMALS
280
    1
  9
$LATITUDE
 40
1
  9
$LONGITUDE
 40
1
  9
$NORTHDIRECTION
 40
0
  9
$TIMEZONE
 70
-8000
  9
$LIGHTGLYPHDISPLAY
280
    1
  9
$TILEMODELIGHTSYNCH
280
    1
  9
$SOLIDHIST
280
    1
  9
$SHOWHIST
280
    1
  9
$DWFFRAME
280
    2
  9
$DGNFRAME
280
    0
  9
$REALWORLDSCALE
290
    1
  9
$INTERFERECOLOR
 62
    1
  9
$CSHADOW
280
    0
  9
$SHADOWPLANELOCATION
 40
0
  0
ENDSEC
  0
SECTION
  2
CLASSES
  0
ENDSEC
  0
SECTION
  2
TABLES
  0
TABLE
  2
VPORT
  5
8
330
0
100
AcDbSymbolTable
 70
    1
  0
VPORT
  5
31
330
2
100
AcDbSymbolTableRecord
100
AcDbViewportTableRecord
  2
*ACTIVE
 70
    0
 10
0
 20
0
 11
1
 21
1
 12
199.1270459582038
 22
82.30982919952763
 13
0
 23
0
 14
10
 24
10
 15
10
 25
10
 16
0
 26
0
 36
1
 17
0
 27
0
 37
0
 40
431.1182705441682
 41
1.925155925155925
 42
50
 43
0
 44
0
 50
0
 51
0
 71
    0
 72
  100
 73
    1
 74
    3
 75
    0
 76
    1
 77
    0
 78
    0
281
    0
 65
    1
110
0
120
0
130
0
111
1
121
0
131
0
112
0
122
1
132
0
 79
    0
146
0
348
10020
 60
    7
 61
    5
292
1
282
    1
141
0
142
0
 63
  250
421
3358443
  0
ENDTAB
  0
TABLE
  2
LTYPE
  5
5
330
0
100
AcDbSymbolTable
 70
    4
  0
LTYPE
  5
14
330
5
100
AcDbSymbolTableRecord
100
AcDbLinetypeTableRecord
  2
ByBlock
 70
    0
  3

 72
   65
 73
    0
 40
0
  0
LTYPE
  5
15
330
5
100
AcDbSymbolTableRecord
100
AcDbLinetypeTableRecord
  2
ByLayer
 70
    0
  3

 72
   65
 73
    0
 40
0
  0
LTYPE
  5
16
330
5
100
AcDbSymbolTableRecord
100
AcDbLinetypeTableRecord
  2
Continuous
 70
    0
  3
Solid line
 72
   65
 73
    0
 40
0
  0
LTYPE
  5
32
330
5
100
AcDbSymbolTableRecord
100
AcDbLinetypeTableRecord
  2
DOT
 70
    0
  3
Dot . . . . . . . . . . . . . . . . . . . . . .
 72
   65
 73
    2
 40
6.35
 49
0
 74
    0
 49
-6.35
 74
    0
  0
LTYPE
  5
33
330
5
100
AcDbSymbolTableRecord
100
AcDbLinetypeTableRecord
  2
DOTTINY
 70
    0
  3
Dot (.15x) .....................................
 72
   65
 73
    2
 40
0.9525
 49
0
 74
    0
 49
-0.9525
 74
    0
  0
LTYPE
  5
34
330
5
100
AcDbSymbolTableRecord
100
AcDbLinetypeTableRecord
  2
DOT2
 70
    0
  3
Dot (.5x) .....................................
 72
   65
 73
    2
 40
3.175
 49
0
 74
    0
 49
-3.175
 74
    0
  0
LTYPE
  5
35
330
5
100
AcDbSymbolTableRecord
100
AcDbLinetypeTableRecord
  2
DOTX2
 70
    0
  3
Dot (2x) .  .  .  .  .  .  .  .  .  .  .  .  .
 72
   65
 73
    2
 40
12.7
 49
0
 74
    0
 49
-12.7
 74
    0
  0
LTYPE
  5
36
330
5
100
AcDbSymbolTableRecord
100
AcDbLinetypeTableRecord
  2
DASHED
 70
    0
  3
Dashed _ _ _ _ _ _ _ _ _ _ _ _ _ _ _ _ _
 72
   65
 73
    2
 40
19.05
 49
12.7
 74
    0
 49
-6.35
 74
    0
  0
LTYPE
  5
37
330
5
100
AcDbSymbolTableRecord
100
AcDbLinetypeTableRecord
  2
DASHEDTINY
 70
    0
  3
Dashed (.15x) _ _ _ _ _ _ _ _ _ _ _ _ _ _ _ _ _
 72
   65
 73
    2
 40
2.8575
 49
1.905
 74
    0
 49
-0.9525
 74
    0
  0
LTYPE
  5
38
330
5
100
AcDbSymbolTableRecord
100
AcDbLinetypeTableRecord
  2
DASHED2
 70
    0
  3
Dashed (.5x) _ _ _ _ _ _ _ _ _ _ _ _ _ _ _ _ _
 72
   65
 73
    2
 40
9.524999999999999
 49
6.35
 74
    0
 49
-3.175
 74
    0
  0
LTYPE
  5
39
330
5
100
AcDbSymbolTableRecord
100
AcDbLinetypeTableRecord
  2
DASHEDX2
 70
    0
  3
Dashed (2x) ____  ____  ____  ____  ____  ___
 72
   65
 73
    2
 40
38.09999999999999
 49
25.4
 74
    0
 49
-12.7
 74
    0
  0
LTYPE
  5
3A
330
5
100
AcDbSymbolTableRecord
100
AcDbLinetypeTableRecord
  2
DASHDOT
 70
    0
  3
Dash dot __ . __ . __ . __ . __ . __ . __ . __
 72
   65
 73
    4
 40
25.4
 49
12.7
 74
    0
 49
-6.35
 74
    0
 49
0
 74
    0
 49
-6.35
 74
    0
  0
LTYPE
  5
3B
330
5
100
AcDbSymbolTableRecord
100
AcDbLinetypeTableRecord
  2
DASHDOTTINY
 70
    0
  3
Dash dot (.15x) _._._._._._._._._._._._._._._.
 72
   65
 73
    4
 40
3.81
 49
1.905
 74
    0
 49
-0.9525
 74
    0
 49
0
 74
    0
 49
-0.9525
 74
    0
  0
LTYPE
  5
3C
330
5
100
AcDbSymbolTableRecord
100
AcDbLinetypeTableRecord
  2
DASHDOT2
 70
    0
  3
Dash dot (.5x) _._._._._._._._._._._._._._._.
 72
   65
 73
    4
 40
12.7
 49
6.35
 74
    0
 49
-3.175
 74
    0
 49
0
 74
    0
 49
-3.175
 74
    0
  0
LTYPE
  5
3D
330
5
100
AcDbSymbolTableRecord
100
AcDbLinetypeTableRecord
  2
DASHDOTX2
 70
    0
  3
Dash dot (2x) ____  .  ____  .  ____  .  ___
 72
   65
 73
    4
 40
50.8
 49
25.4
 74
    0
 49
-12.7
 74
    0
 49
0
 74
    0
 49
-12.7
 74
    0
  0
LTYPE
  5
3E
330
5
100
AcDbSymbolTableRecord
100
AcDbLinetypeTableRecord
  2
DIVIDE
 70
    0
  3
Divide ____ . . ____ . . ____ . . ____ . . ____
 72
   65
 73
    6
 40
31.75
 49
12.7
 74
    0
 49
-6.35
 74
    0
 49
0
 74
    0
 49
-6.35
 74
    0
 49
0
 74
    0
 49
-6.35
 74
    0
  0
LTYPE
  5
3F
330
5
100
AcDbSymbolTableRecord
100
AcDbLinetypeTableRecord
  2
DIVIDETINY
 70
    0
  3
Divide (.15x) __..__..__..__..__..__..__..__.._
 72
   65
 73
    6
 40
4.7625
 49
1.905
 74
    0
 49
-0.9525
 74
    0
 49
0
 74
    0
 49
-0.9525
 74
    0
 49
0
 74
    0
 49
-0.9525
 74
    0
  0
LTYPE
  5
40
330
5
100
AcDbSymbolTableRecord
100
AcDbLinetypeTableRecord
  2
DIVIDE2
 70
    0
  3
Divide (.5x) __..__..__..__..__..__..__..__.._
 72
   65
 73
    6
 40
15.875
 49
6.35
 74
    0
 49
-3.175
 74
    0
 49
0
 74
    0
 49
-3.175
 74
    0
 49
0
 74
    0
 49
-3.175
 74
    0
  0
LTYPE
  5
41
330
5
100
AcDbSymbolTableRecord
100
AcDbLinetypeTableRecord
  2
DIVIDEX2
 70
    0
  3
Divide (2x) ________  .  .  ________  .  .  _
 72
   65
 73
    6
 40
63.5
 49
25.4
 74
    0
 49
-12.7
 74
    0
 49
0
 74
    0
 49
-12.7
 74
    0
 49
0
 74
    0
 49
-12.7
 74
    0
  0
LTYPE
  5
42
330
5
100
AcDbSymbolTableRecord
100
AcDbLinetypeTableRecord
  2
BORDER
 70
    0
  3
Border __ __ . __ __ . __ __ . __ __ . __ __ .
 72
   65
 73
    6
 40
44.45
 49
12.7
 74
    0
 49
-6.35
 74
    0
 49
12.7
 74
    0
 49
-6.35
 74
    0
 49
0
 74
    0
 49
-6.35
 74
    0
  0
LTYPE
  5
43
330
5
100
AcDbSymbolTableRecord
100
AcDbLinetypeTableRecord
  2
BORDERTINY
 70
    0
  3
Border (.15x) __.__.__.__.__.__.__.__.__.__.__.
 72
   65
 73
    6
 40
6.6675
 49
1.905
 74
    0
 49
-0.9525
 74
    0
 49
1.905
 74
    0
 49
-0.9525
 74
    0
 49
0
 74
    0
 49
-0.9525
 74
    0
  0
LTYPE
  5
44
330
5
100
AcDbSymbolTableRecord
100
AcDbLinetypeTableRecord
  2
BORDER2
 70
    0
  3
Border (.5x) __.__.__.__.__.__.__.__.__.__.__.
 72
   65
 73
    6
 40
22.225
 49
6.35
 74
    0
 49
-3.175
 74
    0
 49
6.35
 74
    0
 49
-3.175
 74
    0
 49
0
 74
    0
 49
-3.175
 74
    0
  0
LTYPE
  5
45
330
5
100
AcDbSymbolTableRecord
100
AcDbLinetypeTableRecord
  2
BORDERX2
 70
    0
  3
Border (2x) ____  ____  .  ____  ____  .  ___
 72
   65
 73
    6
 40
88.89999999999999
 49
25.4
 74
    0
 49
-12.7
 74
    0
 49
25.4
 74
    0
 49
-12.7
 74
    0
 49
0
 74
    0
 49
-12.7
 74
    0
  0
LTYPE
  5
46
330
5
100
AcDbSymbolTableRecord
100
AcDbLinetypeTableRecord
  2
CENTER
 70
    0
  3
Center ____ _ ____ _ ____ _ ____ _ ____ _ ____
 72
   65
 73
    4
 40
50.8
 49
31.75
 74
    0
 49
-6.35
 74
    0
 49
6.35
 74
    0
 49
-6.35
 74
    0
  0
LTYPE
  5
47
330
5
100
AcDbSymbolTableRecord
100
AcDbLinetypeTableRecord
  2
CENTERTINY
 70
    0
  3
Center (.15x) ___ _ ___ _ ___ _ ___ _ ___ _ ___
 72
   65
 73
    4
 40
7.619999999999999
 49
4.7625
 74
    0
 49
-0.9525
 74
    0
 49
0.9525
 74
    0
 49
-0.9525
 74
    0
  0
LTYPE
  5
48
330
5
100
AcDbSymbolTableRecord
100
AcDbLinetypeTableRecord
  2
CENTER2
 70
    0
  3
Center (.5x) ___ _ ___ _ ___ _ ___ _ ___ _ ___
 72
   65
 73
    4
 40
28.575
 49
19.05
 74
    0
 49
-3.175
 74
    0
 49
3.175
 74
    0
 49
-3.175
 74
    0
  0
LTYPE
  5
49
330
5
100
AcDbSymbolTableRecord
100
AcDbLinetypeTableRecord
  2
CENTERX2
 70
    0
  3
Center (2x) ________  __  ________  __  _____
 72
   65
 73
    4
 40
101.6
 49
63.5
 74
    0
 49
-12.7
 74
    0
 49
12.7
 74
    0
 49
-12.7
 74
    0
  0
ENDTAB
  0
TABLE
  2
LAYER
  5
2
330
0
100
AcDbSymbolTable
 70
    1
  0
LAYER
  5
4A
330
2
100
AcDbSymbolTableRecord
100
AcDbLayerTableRecord
  2
$TD_AUDIT_GENERATED__6CA_
 70
    0
 62
    7
  6
CONTINUOUS
370
   -3
390
F
  0
LAYER
  5
10
330
2
100
AcDbSymbolTableRecord
100
AcDbLayerTableRecord
  2
0
 70
    0
 62
    7
  6
CONTINUOUS
370
   -3
390
F
  0
LAYER
  5
4B
330
2
100
AcDbSymbolTableRecord
100
AcDbLayerTableRecord
  2
1
 70
    0
 62
    7
  6
CONTINUOUS
370
   -3
390
F
  0
LAYER
  5
4C
330
2
100
AcDbSymbolTableRecord
100
AcDbLayerTableRecord
  2
1508
 70
    0
 62
    1
  6
CONTINUOUS
370
   -3
390
F
  0
LAYER
  5
4D
330
2
100
AcDbSymbolTableRecord
100
AcDbLayerTableRecord
  2
BLACK
 70
    0
 62
    7
  6
CONTINUOUS
370
   -3
390
F
  0
LAYER
  5
4E
330
2
100
AcDbSymbolTableRecord
100
AcDbLayerTableRecord
  2
Board-Outline-Layer
 70
    0
 62
    6
  6
CONTINUOUS
370
   -3
390
F
  0
LAYER
  5
4F
330
2
100
AcDbSymbolTableRecord
100
AcDbLayerTableRecord
  2
Bottom-Layer
 70
    0
 62
    5
  6
CONTINUOUS
370
   -3
390
F
  0
LAYER
  5
50
330
2
100
AcDbSymbolTableRecord
100
AcDbLayerTableRecord
  2
Bottom-Paste-Mask-Layer
 70
    0
 62
   16
420
8388608
  6
CONTINUOUS
370
   -3
390
F
  0
LAYER
  5
51
330
2
100
AcDbSymbolTableRecord
100
AcDbLayerTableRecord
  2
Bottom-Solder-Mask-Layer
 70
    0
 62
  200
420
11141375
  6
CONTINUOUS
370
   -3
390
F
  0
LAYER
  5
52
330
2
100
AcDbSymbolTableRecord
100
AcDbLayerTableRecord
  2
Feature
 70
    0
 62
    7
  6
CONTINUOUS
370
   -3
390
F
  0
LAYER
  5
53
330
2
100
AcDbSymbolTableRecord
100
AcDbLayerTableRecord
  2
Hole-Layer
 70
    0
 62
   19
420
2236962
  6
CONTINUOUS
370
   -3
390
F
  0
LAYER
  5
54
330
2
100
AcDbSymbolTableRecord
100
AcDbLayerTableRecord
  2
MECHANICAL1
 70
    0
 62
    6
  6
CONTINUOUS
370
   -3
390
F
  0
LAYER
  5
55
330
2
100
AcDbSymbolTableRecord
100
AcDbLayerTableRecord
  2
Multi-Layer
 70
    0
 62
    9
  6
CONTINUOUS
370
   -3
390
F
  0
LAYER
  5
56
330
2
100
AcDbSymbolTableRecord
100
AcDbLayerTableRecord
  2
Part__Feature051
 70
    0
 62
    7
  6
CONTINUOUS
370
   -3
390
F
  0
LAYER
  5
57
330
2
100
AcDbSymbolTableRecord
100
AcDbLayerTableRecord
  2
Part__Feature114
 70
    0
 62
    7
  6
CONTINUOUS
370
   -3
390
F
  0
LAYER
  5
58
330
2
100
AcDbSymbolTableRecord
100
AcDbLayerTableRecord
  2
Top-Layer
 70
    0
 62
    1
  6
CONTINUOUS
370
   -3
390
F
  0
LAYER
  5
59
330
2
100
AcDbSymbolTableRecord
100
AcDbLayerTableRecord
  2
Top-Paste-Mask-Layer
 70
    0
 62
    8
  6
CONTINUOUS
370
   -3
390
F
  0
LAYER
  5
5A
330
2
100
AcDbSymbolTableRecord
100
AcDbLayerTableRecord
  2
Top-Silkscreen-Layer
 70
    0
 62
   40
420
16763904
  6
CONTINUOUS
370
   -3
390
F
  0
LAYER
  5
5B
330
2
100
AcDbSymbolTableRecord
100
AcDbLayerTableRecord
  2
Top-Solder-Mask-Layer
 70
    0
 62
  216
420
8388736
  6
CONTINUOUS
370
   -3
390
F
  0
LAYER
  5
5C
330
2
100
AcDbSymbolTableRecord
100
AcDbLayerTableRecord
  2
___
 70
    0
 62
  178
  6
CONTINUOUS
370
   -3
390
F
  0
LAYER
  5
5D
330
2
100
AcDbSymbolTableRecord
100
AcDbLayerTableRecord
  2
___1
 70
    0
 62
    7
  6
CONTINUOUS
370
   -3
390
F
  0
ENDTAB
  0
TABLE
  2
STYLE
  5
3
330
0
100
AcDbSymbolTable
 70
    3
  0
STYLE
  5
5E
330
2
100
AcDbSymbolTableRecord
100
AcDbTextStyleTableRecord
  2
iso
 70
    0
 40
0
 41
1
 50
0
 71
    0
 42
1
  3
iso
  4

  0
STYLE
  5
5F
330
2
100
AcDbSymbolTableRecord
100
AcDbTextStyleTableRecord
  2
Standard
 70
    0
 40
0
 41
1
 50
0
 71
    0
 42
1
  3
txt
  4

  0
ENDTAB
  0
TABLE
  2
VIEW
  5
6
330
0
100
AcDbSymbolTable
 70
    0
  0
ENDTAB
  0
TABLE
  2
UCS
  5
7
330
0
100
AcDbSymbolTable
 70
    0
  0
ENDTAB
  0
TABLE
  2
APPID
  5
9
330
0
100
AcDbSymbolTable
 70
    1
  0
APPID
  5
12
330
9
100
AcDbSymbolTableRecord
100
AcDbRegAppTableRecord
  2
ACAD
 70
    0
  0
APPID
  5
60
330
9
100
AcDbSymbolTableRecord
100
AcDbRegAppTableRecord
  2
LibreCad
 70
    0
  0
ENDTAB
  0
TABLE
  2
DIMSTYLE
  5
A
330
0
100
AcDbSymbolTable
 70
    1
100
AcDbDimStyleTable
 71
    1
  0
DIMSTYLE
105
61
330
A
100
AcDbSymbolTableRecord
100
AcDbDimStyleTableRecord
  2
Standard
 70
    0
 40
1
 41
3.556
 42
0
 43
0.38
 44
1
 45
0
 46
0
 47
0
 48
0
 49
1
140
3.5
141
0.09
142
0
143
25.4
144
1
145
0
146
1
147
0.625
148
0
 71
    0
 72
    0
 73
    1
 74
    1
 75
    0
 76
    0
 77
    0
 78
    1
 79
    0
170
    0
171
    2
172
    0
173
    0
174
    0
175
    0
176
    0
177
    0
178
    0
179
    0
271
    2
272
    4
273
    2
274
    2
275
    0
276
    0
277
    2
278
   44
279
    0
280
    0
281
    0
282
    0
283
    1
284
    0
285
    0
286
    0
288
    0
289
    3
340
5F
  0
ENDTAB
  0
TABLE
  2
BLOCK_RECORD
  5
1
330
0
100
AcDbSymbolTable
 70
    2
  0
BLOCK_RECORD
  5
1F
330
1
100
AcDbSymbolTableRecord
100
AcDbBlockTableRecord
  2
*Model_Space
 70
    0
280
    1
281
    0
  0
BLOCK_RECORD
  5
1E
330
1
100
AcDbSymbolTableRecord
100
AcDbBlockTableRecord
  2
*Paper_Space
 70
    0
280
    1
281
    0
  0
ENDTAB
  0
ENDSEC
  0
SECTION
  2
BLOCKS
  0
BLOCK
  5
20
330
1F
100
AcDbEntity
  8
0
100
AcDbBlockBegin
  2
*Model_Space
 70
    0
 10
0
 20
0
 30
0
  3
*Model_Space
  1

  0
ENDBLK
  5
21
330
1F
100
AcDbEntity
  8
0
100
AcDbBlockEnd
  0
BLOCK
  5
1C
330
1B
100
AcDbEntity
  8
0
100
AcDbBlockBegin
  2
*Paper_Space
 70
    0
 10
0
 20
0
 30
0
  3
*Paper_Space
  1

  0
ENDBLK
  5
1D
330
1F
100
AcDbEntity
  8
0
100
AcDbBlockEnd
  0
ENDSEC
  0
SECTION
  2
ENTITIES
  0
LWPOLYLINE
  5
62
100
AcDbEntity
  8
0
  6
ByLayer
 62
  256
370
   -1
100
AcDbPolyline
 90
    8
 70
    1
 43
0
 10
205.3215251273383
 20
-66.05950512015391
 10
205.3215251273383
 20
-79.05950512015391
 42
0.4142123908031846
 10
205.8215251273383
 20
-79.55950512015391
 10
219.4215251273382
 20
-79.55950512015391
 42
0.414213562373095
 10
219.9215251273382
 20
-79.05950512015391
 10
219.9215251273382
 20
-66.05950512015391
 42
0.414213562373095
 10
219.4215251273382
 20
-65.55950512015391
 10
205.8215251273383
 20
-65.55950512015391
 42
0.4142123908031843
  0
LWPOLYLINE
  5
63
100
AcDbEntity
  8
0
  6
ByLayer
 62
  256
370
   -1
100
AcDbPolyline
 90
    8
 70
    1
 43
0
 10
352.9593971273381
 20
-85.10955312015398
 10
352.9593971273381
 20
-98.10955312015398
 42
0.4142123908031846
 10
353.4593971273381
 20
-98.60955312015398
 10
367.059397127338
 20
-98.60955312015398
 42
0.414213562373095
 10
367.559397127338
 20
-98.10955312015398
 10
367.559397127338
 20
-85.10955312015398
 42
0.414213562373095
 10
367.059397127338
 20
-84.60955312015398
 10
353.4593971273381
 20
-84.60955312015398
 42
0.4142123908031843
  0
LWPOLYLINE
  5
64
100
AcDbEntity
  8
0
  6
ByLayer
 62
  256
370
   -1
100
AcDbPolyline
 90
    8
 70
    1
 43
0
 10
248.4965971273383
 20
-98.10955312015398
 10
248.4965971273383
 20
-85.10955312015398
 42
0.4142123908031843
 10
247.9965971273383
 20
-84.60955312015398
 10
234.3965971273379
 20
-84.60955312015398
 42
0.414213562373095
 10
233.8965971273379
 20
-85.10955312015398
 10
233.8965971273379
 20
-98.10955312015398
 42
0.414213562373095
 10
234.3965971273379
 20
-98.60955312015398
 10
247.9965971273383
 20
-98.60955312015398
 42
0.4142123908031846
  0
LWPOLYLINE
  5
65
100
AcDbEntity
  8
0
  6
ByLayer
 62
  256
370
   -1
100
AcDbPolyline
 90
    8
 70
    1
 43
0
 10
205.6339891273379
 20
-40.95940912015425
 10
205.6339891273379
 20
-27.95940912015424
 42
0.4142123908031843
 10
205.1339891273379
 20
-27.45940912015424
 10
191.5339891273371
 20
-27.45940912015424
 42
0.414213562373095
 10
191.0339891273371
 20
-27.95940912015424
 10
191.0339891273371
 20
-40.95940912015425
 42
0.414213562373095
 10
191.5339891273371
 20
-41.45940912015425
 10
205.133989127337
 20
-41.45940912015425
 42
0.4142123908031846
  0
LWPOLYLINE
  5
66
100
AcDbEntity
  8
0
  6
ByLayer
 62
  256
370
   -1
100
AcDbPolyline
 90
    8
 70
    1
 43
0
 10
153.2463571273371
 20
-98.10955312015398
 10
153.2463571273371
 20
-85.10955312015398
 42
0.4142123908031843
 10
152.7463571273371
 20
-84.60955312015398
 10
139.1463571273381
 20
-84.60955312015398
 42
0.414213562373095
 10
138.6463571273381
 20
-85.10955312015398
 10
138.6463571273381
 20
-98.10955312015398
 42
0.414213562373095
 10
139.1463571273381
 20
-98.60955312015398
 10
152.7463571273371
 20
-98.60955312015398
 42
0.4142123908031846
  0
LWPOLYLINE
  5
67
100
AcDbEntity
  8
0
  6
ByLayer
 62
  256
370
   -1
100
AcDbPolyline
 90
    8
 70
    1
 43
0
 10
172.2964051273372
 20
-98.10955312015398
 10
172.2964051273372
 20
-85.10955312015398
 42
0.4142123908031843
 10
171.7964051273372
 20
-84.60955312015398
 10
158.1964051273382
 20
-84.60955312015398
 42
0.414213562373095
 10
157.6964051273382
 20
-85.10955312015398
 10
157.6964051273382
 20
-98.10955312015398
 42
0.414213562373095
 10
158.1964051273382
 20
-98.60955312015398
 10
171.7964051273372
 20
-98.60955312015398
 42
0.4142123908031846
  0
LWPOLYLINE
  5
68
100
AcDbEntity
  8
0
  6
ByLayer
 62
  256
370
   -1
100
AcDbPolyline
 90
    8
 70
    1
 43
0
 10
224.6840371273371
 20
-40.95940912015425
 10
224.6840371273371
 20
-27.95940912015424
 42
0.4142123908031843
 10
224.1840371273371
 20
-27.45940912015424
 10
210.5840371273381
 20
-27.45940912015424
 42
0.414213562373095
 10
210.0840371273381
 20
-27.95940912015424
 10
210.0840371273381
 20
-40.95940912015425
 42
0.414213562373095
 10
210.5840371273381
 20
-41.45940912015425
 10
224.1840371273371
 20
-41.45940912015425
 42
0.4142123908031846
  0
LWPOLYLINE
  5
69
100
AcDbEntity
  8
0
  6
ByLayer
 62
  256
370
   -1
100
AcDbPolyline
 90
    8
 70
    1
 43
0
 10
281.5217171273381
 20
-66.05950512015391
 10
281.5217171273381
 20
-79.05950512015391
 42
0.4142123908031846
 10
282.0217171273381
 20
-79.55950512015391
 10
295.621717127338
 20
-79.55950512015391
 42
0.414213562373095
 10
296.121717127338
 20
-79.05950512015391
 10
296.121717127338
 20
-66.05950512015391
 42
0.414213562373095
 10
295.621717127338
 20
-65.55950512015391
 10
282.0217171273381
 20
-65.55950512015391
 42
0.4142123908031843
  0
LWPOLYLINE
  5
6A
100
AcDbEntity
  8
0
  6
ByLayer
 62
  256
370
   -1
100
AcDbPolyline
 90
    8
 70
    1
 43
0
 10
143.4088691273383
 20
-47.00945712015431
 10
143.4088691273383
 20
-60.00945712015431
 42
0.4142123908031846
 10
143.9088691273383
 20
-60.50945712015431
 10
157.5088691273382
 20
-60.50945712015431
 42
0.414213562373095
 10
158.0088691273382
 20
-60.00945712015431
 10
158.0088691273382
 20
-47.00945712015431
 42
0.414213562373095
 10
157.5088691273382
 20
-46.50945712015431
 10
143.9088691273383
 20
-46.50945712015431
 42
0.4142123908031843
  0
LWPOLYLINE
  5
6B
100
AcDbEntity
  8
0
  6
ByLayer
 62
  256
370
   -1
100
AcDbPolyline
 90
    8
 70
    1
 43
0
 10
81.47118912733832
 20
-46.90936112015328
 10
81.47118912733832
 20
-59.90936112015328
 42
0.4142123908031846
 10
81.97118912733832
 20
-60.40936112015328
 10
95.57118912733823
 20
-60.40936112015328
 42
0.414213562373095
 10
96.07118912733823
 20
-59.90936112015328
 10
96.07118912733823
 20
-46.90936112015328
 42
0.414213562373095
 10
95.57118912733823
 20
-46.40936112015328
 10
81.97118912733832
 20
-46.40936112015328
 42
0.4142123908031843
  0
LWPOLYLINE
  5
6C
100
AcDbEntity
  8
0
  6
ByLayer
 62
  256
370
   -1
100
AcDbPolyline
 90
    8
 70
    1
 43
0
 10
129.1213331273381
 20
-66.05950512015391
 10
129.1213331273372
 20
-79.05950512015391
 42
0.4142123908031846
 10
129.6213331273381
 20
-79.55950512015391
 10
143.2213331273371
 20
-79.55950512015391
 42
0.414213562373095
 10
143.7213331273371
 20
-79.05950512015391
 10
143.7213331273371
 20
-66.05950512015391
 42
0.414213562373095
 10
143.2213331273371
 20
-65.55950512015391
 10
129.6213331273372
 20
-65.55950512015391
 42
0.4142123908031843
  0
LWPOLYLINE
  5
6D
100
AcDbEntity
  8
0
  6
ByLayer
 62
  256
370
   -1
100
AcDbPolyline
 90
    8
 70
    1
 43
0
 10
276.7592051273383
 20
-47.00945712015431
 10
276.7592051273383
 20
-60.00945712015431
 42
0.4142123908031846
 10
277.2592051273383
 20
-60.50945712015431
 10
290.8592051273373
 20
-60.50945712015431
 42
0.414213562373095
 10
291.3592051273373
 20
-60.00945712015431
 10
291.3592051273373
 20
-47.00945712015431
 42
0.414213562373095
 10
290.8592051273373
 20
-46.50945712015431
 10
277.2592051273383
 20
-46.50945712015431
 42
0.4142123908031843
  0
LWPOLYLINE
  5
6E
100
AcDbEntity
  8
0
  6
ByLayer
 62
  256
370
   -1
100
AcDbPolyline
 90
    8
 70
    1
 43
0
 10
186.2714771273382
 20
-66.05950512015391
 10
186.2714771273382
 20
-79.05950512015391
 42
0.4142123908031846
 10
186.7714771273382
 20
-79.55950512015391
 10
200.3714771273382
 20
-79.55950512015391
 42
0.414213562373095
 10
200.8714771273382
 20
-79.05950512015391
 10
200.8714771273382
 20
-66.05950512015391
 42
0.414213562373095
 10
200.3714771273382
 20
-65.55950512015391
 10
186.7714771273382
 20
-65.55950512015391
 42
0.4142123908031843
  0
LWPOLYLINE
  5
6F
100
AcDbEntity
  8
0
  6
ByLayer
 62
  256
370
   -1
100
AcDbPolyline
 90
    8
 70
    1
 43
0
 10
262.7841331273381
 20
-40.95940912015425
 10
262.7841331273381
 20
-27.95940912015424
 42
0.4142123908031843
 10
262.2841331273381
 20
-27.45940912015424
 10
248.6841331273382
 20
-27.45940912015424
 42
0.414213562373095
 10
248.1841331273382
 20
-27.95940912015424
 10
248.1841331273382
 20
-40.95940912015425
 42
0.414213562373095
 10
248.6841331273382
 20
-41.45940912015425
 10
262.2841331273381
 20
-41.45940912015425
 42
0.4142123908031846
  0
LWPOLYLINE
  5
70
100
AcDbEntity
  8
0
  6
ByLayer
 62
  256
370
   -1
100
AcDbPolyline
 90
    8
 70
    1
 43
0
 10
305.646741127338
 20
-98.10955312015398
 10
305.646741127338
 20
-85.10955312015398
 42
0.4142123908031843
 10
305.146741127338
 20
-84.60955312015398
 10
291.5467411273381
 20
-84.60955312015398
 42
0.414213562373095
 10
291.0467411273381
 20
-85.10955312015398
 10
291.0467411273381
 20
-98.10955312015398
 42
0.414213562373095
 10
291.5467411273381
 20
-98.60955312015398
 10
305.146741127338
 20
-98.60955312015398
 42
0.4142123908031846
  0
LWPOLYLINE
  5
71
100
AcDbEntity
  8
0
  6
ByLayer
 62
  256
370
   -1
100
AcDbPolyline
 90
    8
 70
    1
 43
0
 10
257.7091571273382
 20
-47.00945712015431
 10
257.7091571273382
 20
-60.00945712015431
 42
0.4142123908031846
 10
258.2091571273382
 20
-60.50945712015431
 10
271.8091571273382
 20
-60.50945712015431
 42
0.414213562373095
 10
272.3091571273382
 20
-60.00945712015431
 10
272.3091571273382
 20
-47.00945712015431
 42
0.414213562373095
 10
271.8091571273382
 20
-46.50945712015431
 10
258.2091571273382
 20
-46.50945712015431
 42
0.4142123908031843
  0
LWPOLYLINE
  5
72
100
AcDbEntity
  8
0
  6
ByLayer
 62
  256
370
   -1
100
AcDbPolyline
 90
    8
 70
    1
 43
0
 10
243.7340851273372
 20
-40.95940912015425
 10
243.7340851273372
 20
-27.95940912015424
 42
0.4142123908031843
 10
243.2340851273372
 20
-27.45940912015424
 10
229.6340851273382
 20
-27.45940912015424
 42
0.414213562373095
 10
229.1340851273382
 20
-27.95940912015424
 10
229.1340851273382
 20
-40.95940912015425
 42
0.414213562373095
 10
229.6340851273382
 20
-41.45940912015425
 10
243.2340851273372
 20
-41.45940912015425
 42
0.4142123908031846
  0
LWPOLYLINE
  5
73
100
AcDbEntity
  8
0
  6
ByLayer
 62
  256
370
   -1
100
AcDbPolyline
 90
    8
 70
    1
 43
0
 10
295.8092531273379
 20
-47.00945712015431
 10
295.809253127337
 20
-60.00945712015431
 42
0.4142123908031846
 10
296.3092531273379
 20
-60.50945712015431
 10
309.9092531273369
 20
-60.50945712015431
 42
0.414213562373095
 10
310.4092531273369
 20
-60.00945712015431
 10
310.4092531273369
 20
-47.00945712015431
 42
0.414213562373095
 10
309.9092531273369
 20
-46.50945712015431
 10
296.3092531273379
 20
-46.50945712015431
 42
0.4142123908031843
  0
LWPOLYLINE
  5
74
100
AcDbEntity
  8
0
  6
ByLayer
 62
  256
370
   -1
100
AcDbPolyline
 90
    8
 70
    1
 43
0
 10
219.6090611273381
 20
-47.00945712015431
 10
219.6090611273381
 20
-60.00945712015431
 42
0.4142123908031846
 10
220.1090611273381
 20
-60.50945712015431
 10
233.7090611273371
 20
-60.50945712015431
 42
0.414213562373095
 10
234.2090611273371
 20
-60.00945712015431
 10
234.2090611273371
 20
-47.00945712015431
 42
0.414213562373095
 10
233.7090611273371
 20
-46.50945712015431
 10
220.1090611273381
 20
-46.50945712015431
 42
0.4142123908031843
  0
LWPOLYLINE
  5
75
100
AcDbEntity
  8
0
  6
ByLayer
 62
  256
370
   -1
100
AcDbPolyline
 90
    8
 70
    1
 43
0
 10
224.371573127337
 20
-66.05950512015391
 10
224.371573127337
 20
-79.05950512015391
 42
0.4142123908031846
 10
224.871573127337
 20
-79.55950512015391
 10
238.4715731273383
 20
-79.55950512015391
 42
0.414213562373095
 10
238.9715731273383
 20
-79.05950512015391
 10
238.9715731273383
 20
-66.05950512015391
 42
0.414213562373095
 10
238.4715731273383
 20
-65.55950512015391
 10
224.8715731273379
 20
-65.55950512015391
 42
0.4142123908031843
  0
LWPOLYLINE
  5
76
100
AcDbEntity
  8
0
  6
ByLayer
 62
  256
370
   -1
100
AcDbPolyline
 90
    8
 70
    1
 43
0
 10
229.4465491273382
 20
-98.10955312015398
 10
229.4465491273382
 20
-85.10955312015398
 42
0.4142123908031843
 10
228.9465491273382
 20
-84.60955312015398
 10
215.3465491273383
 20
-84.60955312015398
 42
0.414213562373095
 10
214.8465491273383
 20
-85.10955312015398
 10
214.8465491273383
 20
-98.10955312015398
 42
0.414213562373095
 10
215.3465491273383
 20
-98.60955312015398
 10
228.9465491273382
 20
-98.60955312015398
 42
0.4142123908031846
  0
LWPOLYLINE
  5
77
100
AcDbEntity
  8
0
  6
ByLayer
 62
  256
370
   -1
100
AcDbPolyline
 90
    8
 70
    1
 43
0
 10
267.5466451273379
 20
-98.10955312015398
 10
267.5466451273379
 20
-85.10955312015398
 42
0.4142123908031843
 10
267.0466451273379
 20
-84.60955312015398
 10
253.4466451273371
 20
-84.60955312015398
 42
0.414213562373095
 10
252.9466451273371
 20
-85.10955312015398
 10
252.9466451273371
 20
-98.10955312015398
 42
0.414213562373095
 10
253.4466451273371
 20
-98.60955312015398
 10
267.0466451273379
 20
-98.60955312015398
 42
0.4142123908031846
  0
LWPOLYLINE
  5
78
100
AcDbEntity
  8
0
  6
ByLayer
 62
  256
370
   -1
100
AcDbPolyline
 90
    8
 70
    1
 43
0
 10
300.5717651273382
 20
-66.05950512015391
 10
300.5717651273372
 20
-79.05950512015391
 42
0.4142123908031846
 10
301.0717651273382
 20
-79.55950512015391
 10
314.6717651273381
 20
-79.55950512015391
 42
0.414213562373095
 10
315.1717651273381
 20
-79.05950512015391
 10
315.1717651273381
 20
-66.05950512015391
 42
0.414213562373095
 10
314.6717651273381
 20
-65.55950512015391
 10
301.0717651273382
 20
-65.55950512015391
 42
0.4142123908031843
  0
LWPOLYLINE
  5
79
100
AcDbEntity
  8
0
  6
ByLayer
 62
  256
370
   -1
100
AcDbPolyline
 90
    8
 70
    1
 43
0
 10
200.5590131273372
 20
-47.00945712015431
 10
200.5590131273372
 20
-60.00945712015431
 42
0.4142123908031846
 10
201.0590131273372
 20
-60.50945712015431
 10
214.6590131273371
 20
-60.50945712015431
 42
0.414213562373095
 10
215.1590131273371
 20
-60.00945712015431
 10
215.1590131273371
 20
-47.00945712015431
 42
0.414213562373095
 10
214.6590131273371
 20
-46.50945712015431
 10
201.0590131273372
 20
-46.50945712015431
 42
0.4142123908031843
  0
LWPOLYLINE
  5
7A
100
AcDbEntity
  8
0
  6
ByLayer
 62
  256
370
   -1
100
AcDbPolyline
 90
    8
 70
    1
 43
0
 10
148.1713811273381
 20
-66.05950512015391
 10
148.1713811273381
 20
-79.05950512015391
 42
0.4142123908031846
 10
148.6713811273381
 20
-79.55950512015391
 10
162.2713811273371
 20
-79.55950512015391
 42
0.414213562373095
 10
162.7713811273371
 20
-79.05950512015391
 10
162.7713811273371
 20
-66.05950512015391
 42
0.414213562373095
 10
162.2713811273371
 20
-65.55950512015391
 10
148.6713811273381
 20
-65.55950512015391
 42
0.4142123908031843
  0
LWPOLYLINE
  5
7B
100
AcDbEntity
  8
0
  6
ByLayer
 62
  256
370
   -1
100
AcDbPolyline
 90
    8
 70
    1
 43
0
 10
134.1963091273379
 20
-98.10955312015398
 10
134.196309127337
 20
-85.10955312015398
 42
0.4142123908031843
 10
133.6963091273379
 20
-84.60955312015398
 10
120.0963091273371
 20
-84.60955312015398
 42
0.414213562373095
 10
119.5963091273371
 20
-85.10955312015398
 10
119.5963091273371
 20
-98.10955312015398
 42
0.414213562373095
 10
120.0963091273371
 20
-98.60955312015398
 10
133.696309127337
 20
-98.60955312015398
 42
0.4142123908031846
  0
LWPOLYLINE
  5
7C
100
AcDbEntity
  8
0
  6
ByLayer
 62
  256
370
   -1
100
AcDbPolyline
 90
    8
 70
    1
 43
0
 10
167.5338931273383
 20
-40.95940912015425
 10
167.5338931273383
 20
-27.95940912015424
 42
0.4142123908031843
 10
167.0338931273383
 20
-27.45940912015424
 10
153.433893127337
 20
-27.45940912015424
 42
0.414213562373095
 10
152.933893127337
 20
-27.95940912015424
 10
152.933893127337
 20
-40.95940912015425
 42
0.414213562373095
 10
153.433893127337
 20
-41.45940912015425
 10
167.0338931273383
 20
-41.45940912015425
 42
0.4142123908031846
  0
LWPOLYLINE
  5
7D
100
AcDbEntity
  8
0
  6
ByLayer
 62
  256
370
   -1
100
AcDbPolyline
 90
    8
 70
    1
 43
0
 10
181.5089651273371
 20
-47.00945712015431
 10
181.5089651273371
 20
-60.00945712015431
 42
0.4142123908031846
 10
182.0089651273371
 20
-60.50945712015431
 10
195.608965127337
 20
-60.50945712015431
 42
0.414213562373095
 10
196.108965127337
 20
-60.00945712015431
 10
196.108965127337
 20
-47.00945712015431
 42
0.414213562373095
 10
195.608965127337
 20
-46.50945712015431
 10
182.0089651273371
 20
-46.50945712015431
 42
0.4142123908031843
  0
LWPOLYLINE
  5
7E
100
AcDbEntity
  8
0
  6
ByLayer
 62
  256
370
   -1
100
AcDbPolyline
 90
    8
 70
    1
 43
0
 10
281.8341811273382
 20
-40.95940912015425
 10
281.8341811273391
 20
-27.95940912015424
 42
0.4142123908031843
 10
281.3341811273382
 20
-27.45940912015424
 10
267.7341811273383
 20
-27.45940912015424
 42
0.414213562373095
 10
267.2341811273383
 20
-27.95940912015424
 10
267.2341811273383
 20
-40.95940912015425
 42
0.414213562373095
 10
267.7341811273383
 20
-41.45940912015425
 10
281.3341811273382
 20
-41.45940912015425
 42
0.4142123908031846
  0
LWPOLYLINE
  5
7F
100
AcDbEntity
  8
0
  6
ByLayer
 62
  256
370
   -1
100
AcDbPolyline
 90
    8
 70
    1
 43
0
 10
386.5338931273369
 20
-117.1836651201533
 10
386.5338931273369
 20
-104.1836651201533
 42
0.4142123908031843
 10
386.0338931273369
 20
-103.6836651201533
 10
372.4338931273379
 20
-103.6836651201533
 42
0.414213562373095
 10
371.9338931273379
 20
-104.1836651201533
 10
371.9338931273379
 20
-117.1836651201533
 42
0.414213562373095
 10
372.4338931273379
 20
-117.6836651201533
 10
386.0338931273383
 20
-117.6836651201533
 42
0.4142123908117089
  0
LWPOLYLINE
  5
80
100
AcDbEntity
  8
0
  6
ByLayer
 62
  256
370
   -1
100
AcDbPolyline
 90
    8
 70
    1
 43
0
 10
110.3837491273381
 20
-40.95940912015425
 10
110.3837491273381
 20
-27.95940912015424
 42
0.4142123908031843
 10
109.8837491273381
 20
-27.45940912015424
 10
96.28374912733817
 20
-27.45940912015424
 42
0.414213562373095
 10
95.78374912733817
 20
-27.95940912015424
 10
95.78374912733817
 20
-40.95940912015425
 42
0.414213562373095
 10
96.28374912733817
 20
-41.45940912015425
 10
109.8837491273381
 20
-41.45940912015425
 42
0.4142123908031846
  0
LWPOLYLINE
  5
81
100
AcDbEntity
  8
0
  6
ByLayer
 62
  256
370
   -1
100
AcDbPolyline
 90
    8
 70
    1
 43
0
 10
262.471669127338
 20
-66.05950512015391
 10
262.471669127338
 20
-79.05950512015391
 42
0.4142123908031846
 10
262.971669127338
 20
-79.55950512015391
 10
276.5716691273379
 20
-79.55950512015391
 42
0.414213562373095
 10
277.0716691273379
 20
-79.05950512015391
 10
277.0716691273379
 20
-66.05950512015391
 42
0.414213562373095
 10
276.5716691273379
 20
-65.55950512015391
 10
262.971669127338
 20
-65.55950512015391
 42
0.4142123908031843
  0
LWPOLYLINE
  5
82
100
AcDbEntity
  8
0
  6
ByLayer
 62
  256
370
   -1
100
AcDbPolyline
 90
    8
 70
    1
 43
0
 10
300.8842291273373
 20
-40.95940912015425
 10
300.8842291273373
 20
-27.95940912015424
 42
0.4142123908031843
 10
300.3842291273373
 20
-27.45940912015424
 10
286.7842291273383
 20
-27.45940912015424
 42
0.414213562373095
 10
286.2842291273383
 20
-27.95940912015424
 10
286.2842291273383
 20
-40.95940912015425
 42
0.414213562373095
 10
286.7842291273383
 20
-41.45940912015425
 10
300.3842291273373
 20
-41.45940912015425
 42
0.4142123908031846
  0
LWPOLYLINE
  5
83
100
AcDbEntity
  8
0
  6
ByLayer
 62
  256
370
   -1
100
AcDbPolyline
 90
    8
 70
    1
 43
0
 10
167.2214291273382
 20
-66.05950512015391
 10
167.2214291273382
 20
-79.05950512015391
 42
0.4142123908031846
 10
167.7214291273382
 20
-79.55950512015391
 10
181.3214291273381
 20
-79.55950512015391
 42
0.414213562373095
 10
181.8214291273381
 20
-79.05950512015391
 10
181.8214291273381
 20
-66.05950512015391
 42
0.414213562373095
 10
181.3214291273381
 20
-65.55950512015391
 10
167.7214291273382
 20
-65.55950512015391
 42
0.4142123908031843
  0
LWPOLYLINE
  5
84
100
AcDbEntity
  8
0
  6
ByLayer
 62
  256
370
   -1
100
AcDbPolyline
 90
    8
 70
    1
 43
0
 10
314.859301127338
 20
-47.00945712015431
 10
314.8593011273371
 20
-60.00945712015431
 42
0.4142123908031846
 10
315.359301127338
 20
-60.50945712015431
 10
328.9593011273383
 20
-60.50945712015431
 42
0.414213562373095
 10
329.4593011273383
 20
-60.00945712015431
 10
329.4593011273383
 20
-47.00945712015431
 42
0.414213562373095
 10
328.9593011273383
 20
-46.50945712015431
 10
315.359301127338
 20
-46.50945712015431
 42
0.4142123908031843
  0
LWPOLYLINE
  5
85
100
AcDbEntity
  8
0
  6
ByLayer
 62
  256
370
   -1
100
AcDbPolyline
 90
    8
 70
    1
 43
0
 10
186.5839411273383
 20
-40.95940912015425
 10
186.5839411273383
 20
-27.95940912015424
 42
0.4142123908031843
 10
186.0839411273383
 20
-27.45940912015424
 10
172.4839411273371
 20
-27.45940912015424
 42
0.414213562373095
 10
171.9839411273371
 20
-27.95940912015424
 10
171.9839411273371
 20
-40.95940912015425
 42
0.414213562373095
 10
172.4839411273371
 20
-41.45940912015425
 10
186.0839411273383
 20
-41.45940912015425
 42
0.4142123908031846
  0
LWPOLYLINE
  5
86
100
AcDbEntity
  8
0
  6
ByLayer
 62
  256
370
   -1
100
AcDbPolyline
 90
    8
 70
    1
 43
0
 10
333.909349127338
 20
-104.159601120154
 10
333.909349127338
 20
-117.159601120154
 42
0.4142123908031846
 10
334.409349127338
 20
-117.659601120154
 10
348.0093491273379
 20
-117.659601120154
 42
0.414213562373095
 10
348.5093491273379
 20
-117.159601120154
 10
348.5093491273379
 20
-104.159601120154
 42
0.414213562373095
 10
348.0093491273379
 20
-103.659601120154
 10
334.409349127338
 20
-103.659601120154
 42
0.4142123908031843
  0
LWPOLYLINE
  5
87
100
AcDbEntity
  8
0
  6
ByLayer
 62
  256
370
   -1
100
AcDbPolyline
 90
    8
 70
    1
 43
0
 10
191.3464531273381
 20
-98.10955312015398
 10
191.3464531273381
 20
-85.10955312015398
 42
0.4142123908031843
 10
190.8464531273381
 20
-84.60955312015398
 10
177.2464531273382
 20
-84.60955312015398
 42
0.414213562373095
 10
176.7464531273382
 20
-85.10955312015398
 10
176.7464531273382
 20
-98.10955312015398
 42
0.414213562373095
 10
177.2464531273382
 20
-98.60955312015398
 10
190.8464531273381
 20
-98.60955312015398
 42
0.4142123908031846
  0
LWPOLYLINE
  5
88
100
AcDbEntity
  8
0
  6
ByLayer
 62
  256
370
   -1
100
AcDbPolyline
 90
    8
 70
    1
 43
0
 10
352.9593971273381
 20
-104.159601120154
 10
352.9593971273381
 20
-117.159601120154
 42
0.4142123908031846
 10
353.4593971273381
 20
-117.659601120154
 10
367.059397127338
 20
-117.659601120154
 42
0.414213562373095
 10
367.559397127338
 20
-117.159601120154
 10
367.559397127338
 20
-104.159601120154
 42
0.414213562373095
 10
367.059397127338
 20
-103.659601120154
 10
353.4593971273381
 20
-103.659601120154
 42
0.4142123908031843
  0
LWPOLYLINE
  5
89
100
AcDbEntity
  8
0
  6
ByLayer
 62
  256
370
   -1
100
AcDbPolyline
 90
    8
 70
    1
 43
0
 10
148.4838451273382
 20
-40.95940912015425
 10
148.4838451273373
 20
-27.95940912015424
 42
0.4142123908031843
 10
147.9838451273382
 20
-27.45940912015424
 10
134.3838451273383
 20
-27.45940912015424
 42
0.414213562373095
 10
133.8838451273383
 20
-27.95940912015424
 10
133.8838451273383
 20
-40.95940912015425
 42
0.414213562373095
 10
134.3838451273383
 20
-41.45940912015425
 10
147.9838451273382
 20
-41.45940912015425
 42
0.4142123908031846
  0
LWPOLYLINE
  5
8A
100
AcDbEntity
  8
0
  6
ByLayer
 62
  256
370
   -1
100
AcDbPolyline
 90
    8
 70
    1
 43
0
 10
129.4337971273382
 20
-40.95940912015425
 10
129.4337971273382
 20
-27.95940912015424
 42
0.4142123908031843
 10
128.9337971273382
 20
-27.45940912015424
 10
115.3337971273382
 20
-27.45940912015424
 42
0.414213562373095
 10
114.8337971273382
 20
-27.95940912015424
 10
114.8337971273382
 20
-40.95940912015425
 42
0.414213562373095
 10
115.3337971273382
 20
-41.45940912015425
 10
128.9337971273382
 20
-41.45940912015425
 42
0.4142123908031846
  0
LWPOLYLINE
  5
8B
100
AcDbEntity
  8
0
  6
ByLayer
 62
  256
370
   -1
100
AcDbPolyline
 90
    8
 70
    1
 43
0
 10
162.4589171273379
 20
-47.00945712015431
 10
162.458917127337
 20
-60.00945712015431
 42
0.4142123908031846
 10
162.9589171273379
 20
-60.50945712015431
 10
176.5589171273383
 20
-60.50945712015431
 42
0.414213562373095
 10
177.0589171273383
 20
-60.00945712015431
 10
177.0589171273383
 20
-47.00945712015431
 42
0.414213562373095
 10
176.5589171273383
 20
-46.50945712015431
 10
162.958917127337
 20
-46.50945712015431
 42
0.4142123908031843
  0
LWPOLYLINE
  5
8C
100
AcDbEntity
  8
0
  6
ByLayer
 62
  256
370
   -1
100
AcDbPolyline
 90
    8
 70
    1
 43
0
 10
238.6591091273382
 20
-47.00945712015431
 10
238.6591091273382
 20
-60.00945712015431
 42
0.4142123908031846
 10
239.1591091273382
 20
-60.50945712015431
 10
252.7591091273381
 20
-60.50945712015431
 42
0.414213562373095
 10
253.2591091273381
 20
-60.00945712015431
 10
253.2591091273381
 20
-47.00945712015431
 42
0.414213562373095
 10
252.7591091273381
 20
-46.50945712015431
 10
239.1591091273382
 20
-46.50945712015431
 42
0.4142123908031843
  0
LWPOLYLINE
  5
8D
100
AcDbEntity
  8
0
  6
ByLayer
 62
  256
370
   -1
100
AcDbPolyline
 90
    8
 70
    1
 43
0
 10
286.596693127338
 20
-98.10955312015398
 10
286.596693127338
 20
-85.10955312015398
 42
0.4142123908031843
 10
286.096693127338
 20
-84.60955312015398
 10
272.4966931273381
 20
-84.60955312015398
 42
0.414213562373095
 10
271.9966931273381
 20
-85.10955312015398
 10
271.9966931273381
 20
-98.10955312015398
 42
0.414213562373095
 10
272.4966931273381
 20
-98.60955312015398
 10
286.096693127338
 20
-98.60955312015398
 42
0.4142123908031846
  0
LWPOLYLINE
  5
8E
100
AcDbEntity
  8
0
  6
ByLayer
 62
  256
370
   -1
100
AcDbPolyline
 90
    8
 70
    1
 43
0
 10
105.3087731273382
 20
-47.00945712015431
 10
105.3087731273382
 20
-60.00945712015431
 42
0.4142123908031846
 10
105.8087731273382
 20
-60.50945712015431
 10
119.4087731273381
 20
-60.50945712015431
 42
0.414213562373095
 10
119.9087731273381
 20
-60.00945712015431
 10
119.9087731273381
 20
-47.00945712015431
 42
0.414213562373095
 10
119.4087731273381
 20
-46.50945712015431
 10
105.8087731273382
 20
-46.50945712015431
 42
0.4142123908031843
  0
LWPOLYLINE
  5
8F
100
AcDbEntity
  8
0
  6
ByLayer
 62
  256
370
   -1
100
AcDbPolyline
 90
    8
 70
    1
 43
0
 10
124.3588211273383
 20
-47.00945712015431
 10
124.3588211273371
 20
-60.00945712015431
 42
0.4142123908031846
 10
124.8588211273383
 20
-60.50945712015431
 10
138.4588211273382
 20
-60.50945712015431
 42
0.414213562373095
 10
138.9588211273382
 20
-60.00945712015431
 10
138.9588211273382
 20
-47.00945712015431
 42
0.414213562373095
 10
138.4588211273382
 20
-46.50945712015431
 10
124.8588211273369
 20
-46.50945712015431
 42
0.4142123908023851
  0
LWPOLYLINE
  5
90
100
AcDbEntity
  8
0
  6
ByLayer
 62
  256
370
   -1
100
AcDbPolyline
 90
    8
 70
    1
 43
0
 10
243.4216211273371
 20
-66.05950512015391
 10
243.4216211273371
 20
-79.05950512015391
 42
0.4142123908031846
 10
243.9216211273371
 20
-79.55950512015391
 10
257.5216211273383
 20
-79.55950512015391
 42
0.414213562373095
 10
258.0216211273383
 20
-79.05950512015391
 10
258.0216211273383
 20
-66.05950512015391
 42
0.414213562373095
 10
257.5216211273383
 20
-65.55950512015391
 10
243.921621127338
 20
-65.55950512015391
 42
0.4142123908031843
  0
LWPOLYLINE
  5
91
100
AcDbEntity
  8
0
  6
ByLayer
 62
  256
370
   -1
100
AcDbPolyline
 90
    8
 70
    1
 43
0
 10
338.6718131273379
 20
-47.00940912015398
 10
338.671813127337
 20
-60.00940912015398
 42
0.4142123908031846
 10
339.1718131273379
 20
-60.50940912015398
 10
352.7718131273369
 20
-60.50940912015398
 42
0.414213562373095
 10
353.2718131273369
 20
-60.00940912015398
 10
353.2718131273369
 20
-47.00940912015398
 42
0.414213562373095
 10
352.7718131273369
 20
-46.50940912015398
 10
339.1718131273379
 20
-46.50940912015398
 42
0.4142123908031843
  0
LINE
  5
92
100
AcDbEntity
  8
0
  6
ByLayer
 62
  256
370
   -1
100
AcDbLine
 10
76.73370112733811
 20
-27.95940912015424
 11
76.73370112733811
 21
-40.95940912015425
  0
ARC
  5
93
100
AcDbEntity
  8
0
  6
ByLayer
 62
  256
370
   -1
100
AcDbCircle
 10
77.23370212733708
 20
-40.95940812015391
 40
0.500001000001
100
AcDbArc
 50
180.0001145913297
 51
269.9998854086701
  0
ARC
  5
94
100
AcDbEntity
  8
0
  6
ByLayer
 62
  256
370
   -1
100
AcDbCircle
 10
90.83370112733711
 20
-40.95940912015425
 40
0.5
100
AcDbArc
 50
270
 51
0
  0
LINE
  5
95
100
AcDbEntity
  8
0
  6
ByLayer
 62
  256
370
   -1
100
AcDbLine
 10
91.33370112733711
 20
-40.95940912015425
 11
91.33370112733711
 21
-27.95940912015424
  0
ARC
  5
96
100
AcDbEntity
  8
0
  6
ByLayer
 62
  256
370
   -1
100
AcDbCircle
 10
90.83370112733711
 20
-27.95940912015424
 40
0.5
100
AcDbArc
 50
359.9999999999999
 51
90
  0
ARC
  5
97
100
AcDbEntity
  8
0
  6
ByLayer
 62
  256
370
   -1
100
AcDbCircle
 10
77.23370212733708
 20
-27.95941012015413
 40
0.500001000001
100
AcDbArc
 50
90.00011459132986
 51
179.9998854086702
  0
LINE
  5
98
100
AcDbEntity
  8
0
  6
ByLayer
 62
  256
370
   -1
100
AcDbLine
 10
90.83370112733711
 20
-27.45940912015424
 11
84.03370112733829
 21
-27.45940912015424
  0
LINE
  5
99
100
AcDbEntity
  8
0
  6
ByLayer
 62
  256
370
   -1
100
AcDbLine
 10
84.03370112733829
 20
-27.45940912015424
 11
77.23370112733811
 21
-27.45940912015424
  0
LINE
  5
9A
100
AcDbEntity
  8
0
  6
ByLayer
 62
  256
370
   -1
100
AcDbLine
 10
77.23370112733811
 20
-41.45940912015425
 11
84.03370112733829
 21
-41.45940912015425
  0
LINE
  5
9B
100
AcDbEntity
  8
0
  6
ByLayer
 62
  256
370
   -1
100
AcDbLine
 10
84.03370112733829
 20
-41.45940912015425
 11
90.83370112733711
 21
-41.45940912015425
  0
LINE
  5
9C
100
AcDbEntity
  8
0
  6
ByLayer
 62
  256
370
   -1
100
AcDbLine
 10
84.03370112733829
 20
-27.45940912015424
 11
84.03370112733829
 21
-34.45940912015425
  0
LINE
  5
9D
100
AcDbEntity
  8
0
  6
ByLayer
 62
  256
370
   -1
100
AcDbLine
 10
386.6094451273381
 20
-40.95940912015425
 11
386.6094451273381
 21
-27.95940912015424
  0
ARC
  5
9E
100
AcDbEntity
  8
0
  6
ByLayer
 62
  256
370
   -1
100
AcDbCircle
 10
386.1094441273382
 20
-27.95941012015413
 40
0.500001000000993
100
AcDbArc
 50
0.0001145913289481341
 51
89.99988540867045
  0
ARC
  5
9F
100
AcDbEntity
  8
0
  6
ByLayer
 62
  256
370
   -1
100
AcDbCircle
 10
372.5094451273382
 20
-27.95940912015424
 40
0.5000000000000001
100
AcDbArc
 50
90
 51
180
  0
LINE
  5
A0
100
AcDbEntity
  8
0
  6
ByLayer
 62
  256
370
   -1
100
AcDbLine
 10
372.0094451273382
 20
-27.95940912015424
 11
372.0094451273382
 21
-40.95940912015425
  0
ARC
  5
A1
100
AcDbEntity
  8
0
  6
ByLayer
 62
  256
370
   -1
100
AcDbCircle
 10
372.5094451273382
 20
-40.95940912015425
 40
0.5000000000000001
100
AcDbArc
 50
180
 51
270
  0
ARC
  5
A2
100
AcDbEntity
  8
0
  6
ByLayer
 62
  256
370
   -1
100
AcDbCircle
 10
386.1094441273382
 20
-40.95940812015391
 40
0.5000010000009929
100
AcDbArc
 50
270.0001145913295
 51
359.999885408671
  0
LINE
  5
A3
100
AcDbEntity
  8
0
  6
ByLayer
 62
  256
370
   -1
100
AcDbLine
 10
386.1094451273381
 20
-27.45940912015424
 11
379.3094451273383
 21
-27.45940912015424
  0
LINE
  5
A4
100
AcDbEntity
  8
0
  6
ByLayer
 62
  256
370
   -1
100
AcDbLine
 10
379.3094451273383
 20
-27.45940912015424
 11
372.5094451273382
 21
-27.45940912015424
  0
LINE
  5
A5
100
AcDbEntity
  8
0
  6
ByLayer
 62
  256
370
   -1
100
AcDbLine
 10
372.5094451273382
 20
-41.45940912015425
 11
379.3094451273383
 21
-41.45940912015425
  0
LINE
  5
A6
100
AcDbEntity
  8
0
  6
ByLayer
 62
  256
370
   -1
100
AcDbLine
 10
379.3094451273383
 20
-41.45940912015425
 11
386.1094451273381
 21
-41.45940912015425
  0
LINE
  5
A7
100
AcDbEntity
  8
0
  6
ByLayer
 62
  256
370
   -1
100
AcDbLine
 10
325.2093491273373
 20
-27.98440912015388
 11
325.2093491273373
 21
-39.70240912015328
  0
LINE
  5
A8
100
AcDbEntity
  8
0
  6
ByLayer
 62
  256
370
   -1
100
AcDbLine
 10
325.2093491273373
 20
-39.70240912015328
 11
328.2093491273373
 21
-41.43440912015416
  0
LINE
  5
A9
100
AcDbEntity
  8
0
  6
ByLayer
 62
  256
370
   -1
100
AcDbLine
 10
354.2093491273382
 20
-41.43440912015416
 11
357.2093491273382
 21
-39.70240912015328
  0
LINE
  5
AA
100
AcDbEntity
  8
0
  6
ByLayer
 62
  256
370
   -1
100
AcDbLine
 10
357.2093491273382
 20
-39.70240912015328
 11
357.2093491273382
 21
-27.98440912015388
  0
ARC
  5
AB
100
AcDbEntity
  8
0
  6
ByLayer
 62
  256
370
   -1
100
AcDbCircle
 10
356.7093491273382
 20
-27.98440912015388
 40
0.5000000000000001
100
AcDbArc
 50
0
 51
90
  0
ARC
  5
AC
100
AcDbEntity
  8
0
  6
ByLayer
 62
  256
370
   -1
100
AcDbCircle
 10
325.7093501273381
 20
-27.98441012015331
 40
0.5000010000010016
100
AcDbArc
 50
90.00011459132956
 51
179.9998854086699
  0
LINE
  5
AD
100
AcDbEntity
  8
0
  6
ByLayer
 62
  256
370
   -1
100
AcDbLine
 10
356.7093491273382
 20
-27.48440912015388
 11
341.2093491273382
 21
-27.48440912015388
  0
LINE
  5
AE
100
AcDbEntity
  8
0
  6
ByLayer
 62
  256
370
   -1
100
AcDbLine
 10
341.2093491273382
 20
-27.48440912015388
 11
325.7093491273373
 21
-27.48440912015388
  0
LINE
  5
AF
100
AcDbEntity
  8
0
  6
ByLayer
 62
  256
370
   -1
100
AcDbLine
 10
328.2093491273373
 20
-41.43440912015416
 11
341.2093491273382
 21
-41.43440912015416
  0
LINE
  5
B0
100
AcDbEntity
  8
0
  6
ByLayer
 62
  256
370
   -1
100
AcDbLine
 10
341.2093491273382
 20
-41.43440912015416
 11
354.2093491273382
 21
-41.43440912015416
  0
LINE
  5
B1
100
AcDbEntity
  8
0
  6
ByLayer
 62
  256
370
   -1
100
AcDbLine
 10
386.6094451273381
 20
-60.00945712015431
 11
386.6094451273381
 21
-47.00945712015431
  0
ARC
  5
B2
100
AcDbEntity
  8
0
  6
ByLayer
 62
  256
370
   -1
100
AcDbCircle
 10
386.1094441273382
 20
-47.00945812015328
 40
0.5000010000009931
100
AcDbArc
 50
0.0001145913291516896
 51
89.99988540867045
  0
ARC
  5
B3
100
AcDbEntity
  8
0
  6
ByLayer
 62
  256
370
   -1
100
AcDbCircle
 10
372.5094451273382
 20
-47.00945712015431
 40
0.5000000000000001
100
AcDbArc
 50
90
 51
180
  0
LINE
  5
B4
100
AcDbEntity
  8
0
  6
ByLayer
 62
  256
370
   -1
100
AcDbLine
 10
372.0094451273382
 20
-47.00945712015431
 11
372.0094451273382
 21
-60.00945712015431
  0
ARC
  5
B5
100
AcDbEntity
  8
0
  6
ByLayer
 62
  256
370
   -1
100
AcDbCircle
 10
372.5094451273382
 20
-60.00945712015431
 40
0.5000000000000001
100
AcDbArc
 50
180
 51
270
  0
ARC
  5
B6
100
AcDbEntity
  8
0
  6
ByLayer
 62
  256
370
   -1
100
AcDbCircle
 10
386.1094441273382
 20
-60.00945612015397
 40
0.5000010000009937
100
AcDbArc
 50
270.0001145913295
 51
359.9998854086709
  0
LINE
  5
B7
100
AcDbEntity
  8
0
  6
ByLayer
 62
  256
370
   -1
100
AcDbLine
 10
386.1094451273381
 20
-46.50945712015431
 11
379.3094451273383
 21
-46.50945712015431
  0
LINE
  5
B8
100
AcDbEntity
  8
0
  6
ByLayer
 62
  256
370
   -1
100
AcDbLine
 10
379.3094451273383
 20
-46.50945712015431
 11
372.5094451273382
 21
-46.50945712015431
  0
LINE
  5
B9
100
AcDbEntity
  8
0
  6
ByLayer
 62
  256
370
   -1
100
AcDbLine
 10
372.5094451273382
 20
-60.50945712015431
 11
379.3094451273383
 21
-60.50945712015431
  0
LINE
  5
BA
100
AcDbEntity
  8
0
  6
ByLayer
 62
  256
370
   -1
100
AcDbLine
 10
379.3094451273383
 20
-60.50945712015431
 11
386.1094451273381
 21
-60.50945712015431
  0
LINE
  5
BB
100
AcDbEntity
  8
0
  6
ByLayer
 62
  256
370
   -1
100
AcDbLine
 10
312.4774011273381
 20
-104.1594091201541
 11
312.4774011273381
 21
-117.1594091201541
  0
ARC
  5
BC
100
AcDbEntity
  8
0
  6
ByLayer
 62
  256
370
   -1
100
AcDbCircle
 10
312.9774011273381
 20
-117.1594091201541
 40
0.5000000000000071
100
AcDbArc
 50
179.9999999999984
 51
269.9999999999984
  0
ARC
  5
BD
100
AcDbEntity
  8
0
  6
ByLayer
 62
  256
370
   -1
100
AcDbCircle
 10
326.5774001273381
 20
-117.1594081201533
 40
0.5000010000010009
100
AcDbArc
 50
270.0001145913295
 51
359.9998854086721
  0
LINE
  5
BE
100
AcDbEntity
  8
0
  6
ByLayer
 62
  256
370
   -1
100
AcDbLine
 10
327.077401127338
 20
-117.1594091201541
 11
327.077401127338
 21
-104.1594091201541
  0
ARC
  5
BF
100
AcDbEntity
  8
0
  6
ByLayer
 62
  256
370
   -1
100
AcDbCircle
 10
326.5774001273381
 20
-104.159410120154
 40
0.5000010000009985
100
AcDbArc
 50
0.0001145913295588006
 51
89.99988540867045
  0
ARC
  5
C0
100
AcDbEntity
  8
0
  6
ByLayer
 62
  256
370
   -1
100
AcDbCircle
 10
312.9774011273381
 20
-104.1594091201541
 40
0.5
100
AcDbArc
 50
90
 51
180
  0
LINE
  5
C1
100
AcDbEntity
  8
0
  6
ByLayer
 62
  256
370
   -1
100
AcDbLine
 10
326.577401127338
 20
-103.6594091201541
 11
319.7774011273369
 21
-103.6594091201541
  0
LINE
  5
C2
100
AcDbEntity
  8
0
  6
ByLayer
 62
  256
370
   -1
100
AcDbLine
 10
319.7774011273369
 20
-103.6594091201541
 11
312.9774011273381
 21
-103.6594091201541
  0
LINE
  5
C3
100
AcDbEntity
  8
0
  6
ByLayer
 62
  256
370
   -1
100
AcDbLine
 10
312.9774011273381
 20
-117.6594091201541
 11
319.7774011273369
 21
-117.6594091201541
  0
LINE
  5
C4
100
AcDbEntity
  8
0
  6
ByLayer
 62
  256
370
   -1
100
AcDbLine
 10
319.7774011273369
 20
-117.6594091201541
 11
326.577401127338
 21
-117.6594091201541
  0
LINE
  5
C5
100
AcDbEntity
  8
0
  6
ByLayer
 62
  256
370
   -1
100
AcDbLine
 10
288.6649011273381
 20
-104.1594091201541
 11
288.6649011273381
 21
-117.1594091201541
  0
ARC
  5
C6
100
AcDbEntity
  8
0
  6
ByLayer
 62
  256
370
   -1
100
AcDbCircle
 10
289.1649011273381
 20
-117.1594091201541
 40
0.5000000000000071
100
AcDbArc
 50
179.9999999999984
 51
269.9999999999984
  0
ARC
  5
C7
100
AcDbEntity
  8
0
  6
ByLayer
 62
  256
370
   -1
100
AcDbCircle
 10
302.7649001273381
 20
-117.1594081201533
 40
0.5000010000010009
100
AcDbArc
 50
270.0001145913295
 51
359.9998854086721
  0
LINE
  5
C8
100
AcDbEntity
  8
0
  6
ByLayer
 62
  256
370
   -1
100
AcDbLine
 10
303.264901127338
 20
-117.1594091201541
 11
303.264901127338
 21
-104.1594091201541
  0
ARC
  5
C9
100
AcDbEntity
  8
0
  6
ByLayer
 62
  256
370
   -1
100
AcDbCircle
 10
302.7649001273381
 20
-104.159410120154
 40
0.5000010000009985
100
AcDbArc
 50
0.0001145913295588006
 51
89.99988540867045
  0
ARC
  5
CA
100
AcDbEntity
  8
0
  6
ByLayer
 62
  256
370
   -1
100
AcDbCircle
 10
289.1649011273381
 20
-104.1594091201541
 40
0.5
100
AcDbArc
 50
90
 51
180
  0
LINE
  5
CB
100
AcDbEntity
  8
0
  6
ByLayer
 62
  256
370
   -1
100
AcDbLine
 10
302.764901127338
 20
-103.6594091201541
 11
295.9649011273369
 21
-103.6594091201541
  0
LINE
  5
CC
100
AcDbEntity
  8
0
  6
ByLayer
 62
  256
370
   -1
100
AcDbLine
 10
295.9649011273369
 20
-103.6594091201541
 11
289.1649011273381
 21
-103.6594091201541
  0
LINE
  5
CD
100
AcDbEntity
  8
0
  6
ByLayer
 62
  256
370
   -1
100
AcDbLine
 10
289.1649011273381
 20
-117.6594091201541
 11
295.9649011273369
 21
-117.6594091201541
  0
LINE
  5
CE
100
AcDbEntity
  8
0
  6
ByLayer
 62
  256
370
   -1
100
AcDbLine
 10
295.9649011273369
 20
-117.6594091201541
 11
302.764901127338
 21
-117.6594091201541
  0
LINE
  5
CF
100
AcDbEntity
  8
0
  6
ByLayer
 62
  256
370
   -1
100
AcDbLine
 10
264.8524011273381
 20
-104.1594091201541
 11
264.8524011273381
 21
-117.1594091201541
  0
ARC
  5
D0
100
AcDbEntity
  8
0
  6
ByLayer
 62
  256
370
   -1
100
AcDbCircle
 10
265.3524011273381
 20
-117.1594091201541
 40
0.5000000000000071
100
AcDbArc
 50
179.9999999999984
 51
269.9999999999984
  0
ARC
  5
D1
100
AcDbEntity
  8
0
  6
ByLayer
 62
  256
370
   -1
100
AcDbCircle
 10
278.9524001273381
 20
-117.1594081201533
 40
0.5000010000010009
100
AcDbArc
 50
270.0001145913295
 51
359.9998854086721
  0
LINE
  5
D2
100
AcDbEntity
  8
0
  6
ByLayer
 62
  256
370
   -1
100
AcDbLine
 10
279.452401127338
 20
-117.1594091201541
 11
279.452401127338
 21
-104.1594091201541
  0
ARC
  5
D3
100
AcDbEntity
  8
0
  6
ByLayer
 62
  256
370
   -1
100
AcDbCircle
 10
278.9524001273381
 20
-104.159410120154
 40
0.5000010000009985
100
AcDbArc
 50
0.0001145913295588006
 51
89.99988540867045
  0
ARC
  5
D4
100
AcDbEntity
  8
0
  6
ByLayer
 62
  256
370
   -1
100
AcDbCircle
 10
265.3524011273381
 20
-104.1594091201541
 40
0.5
100
AcDbArc
 50
90
 51
180
  0
LINE
  5
D5
100
AcDbEntity
  8
0
  6
ByLayer
 62
  256
370
   -1
100
AcDbLine
 10
278.952401127338
 20
-103.6594091201541
 11
272.1524011273383
 21
-103.6594091201541
  0
LINE
  5
D6
100
AcDbEntity
  8
0
  6
ByLayer
 62
  256
370
   -1
100
AcDbLine
 10
272.1524011273383
 20
-103.6594091201541
 11
265.3524011273381
 21
-103.6594091201541
  0
LINE
  5
D7
100
AcDbEntity
  8
0
  6
ByLayer
 62
  256
370
   -1
100
AcDbLine
 10
265.3524011273381
 20
-117.6594091201541
 11
272.1524011273383
 21
-117.6594091201541
  0
LINE
  5
D8
100
AcDbEntity
  8
0
  6
ByLayer
 62
  256
370
   -1
100
AcDbLine
 10
272.1524011273383
 20
-117.6594091201541
 11
278.952401127338
 21
-117.6594091201541
  0
LINE
  5
D9
100
AcDbEntity
  8
0
  6
ByLayer
 62
  256
370
   -1
100
AcDbLine
 10
79.11490112733792
 20
-104.1594091201541
 11
79.11490112733792
 21
-117.1594091201541
  0
ARC
  5
DA
100
AcDbEntity
  8
0
  6
ByLayer
 62
  256
370
   -1
100
AcDbCircle
 10
79.61490112733792
 20
-117.1594091201541
 40
0.5000000000000071
100
AcDbArc
 50
179.9999999999984
 51
269.9999999999984
  0
ARC
  5
DB
100
AcDbEntity
  8
0
  6
ByLayer
 62
  256
370
   -1
100
AcDbCircle
 10
93.21490012733794
 20
-117.1594081201533
 40
0.5000010000010009
100
AcDbArc
 50
270.0001145913295
 51
359.9998854086721
  0
LINE
  5
DC
100
AcDbEntity
  8
0
  6
ByLayer
 62
  256
370
   -1
100
AcDbLine
 10
93.71490112733828
 20
-117.1594091201541
 11
93.71490112733828
 21
-104.1594091201541
  0
ARC
  5
DD
100
AcDbEntity
  8
0
  6
ByLayer
 62
  256
370
   -1
100
AcDbCircle
 10
93.21490012733794
 20
-104.159410120154
 40
0.5000010000009985
100
AcDbArc
 50
0.0001145913295588006
 51
89.99988540867045
  0
ARC
  5
DE
100
AcDbEntity
  8
0
  6
ByLayer
 62
  256
370
   -1
100
AcDbCircle
 10
79.61490112733792
 20
-104.1594091201541
 40
0.5
100
AcDbArc
 50
90
 51
180
  0
LINE
  5
DF
100
AcDbEntity
  8
0
  6
ByLayer
 62
  256
370
   -1
100
AcDbLine
 10
93.21490112733828
 20
-103.6594091201541
 11
86.4149011273381
 21
-103.6594091201541
  0
LINE
  5
E0
100
AcDbEntity
  8
0
  6
ByLayer
 62
  256
370
   -1
100
AcDbLine
 10
86.4149011273381
 20
-103.6594091201541
 11
79.61490112733792
 21
-103.6594091201541
  0
LINE
  5
E1
100
AcDbEntity
  8
0
  6
ByLayer
 62
  256
370
   -1
100
AcDbLine
 10
79.61490112733792
 20
-117.6594091201541
 11
86.4149011273381
 21
-117.6594091201541
  0
LINE
  5
E2
100
AcDbEntity
  8
0
  6
ByLayer
 62
  256
370
   -1
100
AcDbLine
 10
86.4149011273381
 20
-117.6594091201541
 11
93.21490112733828
 21
-117.6594091201541
  0
LWPOLYLINE
  5
E3
100
AcDbEntity
  8
0
  6
ByLayer
 62
    2
370
   -1
100
AcDbPolyline
 90
   10
 70
    1
 43
0
 10
312.6342771273381
 20
-27.45940912015424
 10
305.8342771273379
 20
-27.45940912015424
 42
0.414213562373095
 10
305.3342771273379
 20
-27.95940912015424
 10
305.3342771273379
 20
-40.95940912015425
 42
0.414213562373095
 10
305.8342771273379
 20
-41.45940912015425
 10
312.6342771273381
 20
-41.45940912015425
 10
319.4342771273369
 20
-41.45940912015425
 42
0.4142123908031846
 10
319.9342771273369
 20
-40.95940912015425
 10
319.9342771273369
 20
-27.95940912015424
 42
0.4142123908031843
 10
319.4342771273369
 20
-27.45940912015424
  0
LINE
  5
E4
100
AcDbEntity
  8
0
  6
ByLayer
 62
  256
370
   -1
100
AcDbLine
 10
83.87740112733819
 20
-66.05940912015416
 11
83.87740112733819
 21
-79.05940912015416
  0
ARC
  5
E5
100
AcDbEntity
  8
0
  6
ByLayer
 62
  256
370
   -1
100
AcDbCircle
 10
84.37740112733819
 20
-79.05940912015416
 40
0.5000000000000071
100
AcDbArc
 50
179.9999999999984
 51
269.9999999999984
  0
ARC
  5
E6
100
AcDbEntity
  8
0
  6
ByLayer
 62
  256
370
   -1
100
AcDbCircle
 10
97.97740012733821
 20
-79.05940812015427
 40
0.5000010000010009
100
AcDbArc
 50
270.0001145913295
 51
359.9998854086721
  0
LINE
  5
E7
100
AcDbEntity
  8
0
  6
ByLayer
 62
  256
370
   -1
100
AcDbLine
 10
98.4774011273381
 20
-79.05940912015416
 11
98.4774011273381
 21
-66.05940912015416
  0
ARC
  5
E8
100
AcDbEntity
  8
0
  6
ByLayer
 62
  256
370
   -1
100
AcDbCircle
 10
97.97740012733821
 20
-66.05941012015404
 40
0.5000010000009985
100
AcDbArc
 50
0.0001145913295588006
 51
89.99988540867045
  0
ARC
  5
E9
100
AcDbEntity
  8
0
  6
ByLayer
 62
  256
370
   -1
100
AcDbCircle
 10
84.37740112733819
 20
-66.05940912015416
 40
0.5
100
AcDbArc
 50
90
 51
180
  0
LINE
  5
EA
100
AcDbEntity
  8
0
  6
ByLayer
 62
  256
370
   -1
100
AcDbLine
 10
97.9774011273381
 20
-65.55940912015416
 11
91.17740112733792
 21
-65.55940912015416
  0
LINE
  5
EB
100
AcDbEntity
  8
0
  6
ByLayer
 62
  256
370
   -1
100
AcDbLine
 10
91.17740112733792
 20
-65.55940912015416
 11
84.37740112733819
 21
-65.55940912015416
  0
LINE
  5
EC
100
AcDbEntity
  8
0
  6
ByLayer
 62
  256
370
   -1
100
AcDbLine
 10
84.37740112733819
 20
-79.55940912015416
 11
91.17740112733792
 21
-79.55940912015416
  0
LINE
  5
ED
100
AcDbEntity
  8
0
  6
ByLayer
 62
  256
370
   -1
100
AcDbLine
 10
91.17740112733792
 20
-79.55940912015416
 11
97.9774011273381
 21
-79.55940912015416
  0
LINE
  5
EE
100
AcDbEntity
  8
0
  6
ByLayer
 62
  256
370
   -1
100
AcDbLine
 10
210.3965011273382
 20
-98.10955312015398
 11
210.3965011273382
 21
-85.10955312015398
  0
ARC
  5
EF
100
AcDbEntity
  8
0
  6
ByLayer
 62
  256
370
   -1
100
AcDbCircle
 10
209.8965001273383
 20
-85.10955412015431
 40
0.5000010000009975
100
AcDbArc
 50
0.0001145913295588006
 51
89.99988540867045
  0
ARC
  5
F0
100
AcDbEntity
  8
0
  6
ByLayer
 62
  256
370
   -1
100
AcDbCircle
 10
196.2965011273383
 20
-85.10955312015398
 40
0.5000000000000001
100
AcDbArc
 50
90
 51
180
  0
LINE
  5
F1
100
AcDbEntity
  8
0
  6
ByLayer
 62
  256
370
   -1
100
AcDbLine
 10
195.7965011273383
 20
-85.10955312015398
 11
195.7965011273383
 21
-98.10955312015398
  0
ARC
  5
F2
100
AcDbEntity
  8
0
  6
ByLayer
 62
  256
370
   -1
100
AcDbCircle
 10
196.2965011273383
 20
-98.10955312015398
 40
0.5000000000000105
100
AcDbArc
 50
179.9999999999992
 51
269.9999999999984
  0
ARC
  5
F3
100
AcDbEntity
  8
0
  6
ByLayer
 62
  256
370
   -1
100
AcDbCircle
 10
209.8965001273383
 20
-98.10955212015409
 40
0.5000010000009973
100
AcDbArc
 50
270.0001145913295
 51
359.9998854086721
  0
LINE
  5
F4
100
AcDbEntity
  8
0
  6
ByLayer
 62
  256
370
   -1
100
AcDbLine
 10
209.8965011273382
 20
-84.60955312015398
 11
203.0965011273371
 21
-84.60955312015398
  0
LINE
  5
F5
100
AcDbEntity
  8
0
  6
ByLayer
 62
  256
370
   -1
100
AcDbLine
 10
203.0965011273371
 20
-84.60955312015398
 11
196.2965011273383
 21
-84.60955312015398
  0
LINE
  5
F6
100
AcDbEntity
  8
0
  6
ByLayer
 62
  256
370
   -1
100
AcDbLine
 10
196.2965011273383
 20
-98.60955312015398
 11
203.0965011273371
 21
-98.60955312015398
  0
LINE
  5
F7
100
AcDbEntity
  8
0
  6
ByLayer
 62
  256
370
   -1
100
AcDbLine
 10
203.0965011273371
 20
-98.60955312015398
 11
209.8965011273382
 21
-98.60955312015398
  0
LINE
  5
F8
100
AcDbEntity
  8
0
  6
ByLayer
 62
  256
370
   -1
100
AcDbLine
 10
322.8280931273381
 20
-66.08450512015401
 11
322.8280931273381
 21
-77.80250512015431
  0
LINE
  5
F9
100
AcDbEntity
  8
0
  6
ByLayer
 62
  256
370
   -1
100
AcDbLine
 10
322.8280931273381
 20
-77.80250512015431
 11
325.8280931273381
 21
-79.53450512015428
  0
LINE
  5
FA
100
AcDbEntity
  8
0
  6
ByLayer
 62
  256
370
   -1
100
AcDbLine
 10
351.8280931273381
 20
-79.53450512015428
 11
354.8280931273381
 21
-77.80250512015431
  0
LINE
  5
FB
100
AcDbEntity
  8
0
  6
ByLayer
 62
  256
370
   -1
100
AcDbLine
 10
354.8280931273381
 20
-77.80250512015431
 11
354.8280931273381
 21
-66.08450512015401
  0
ARC
  5
FC
100
AcDbEntity
  8
0
  6
ByLayer
 62
  256
370
   -1
100
AcDbCircle
 10
354.3280931273381
 20
-66.08450512015401
 40
0.5000000000000001
100
AcDbArc
 50
0
 51
90
  0
ARC
  5
FD
100
AcDbEntity
  8
0
  6
ByLayer
 62
  256
370
   -1
100
AcDbCircle
 10
323.328094127338
 20
-66.08450612015389
 40
0.5000010000009993
100
AcDbArc
 50
90.00011459132956
 51
179.99988540867
  0
LINE
  5
FE
100
AcDbEntity
  8
0
  6
ByLayer
 62
  256
370
   -1
100
AcDbLine
 10
354.3280931273381
 20
-65.58450512015401
 11
338.8280931273381
 21
-65.58450512015401
  0
LINE
  5
FF
100
AcDbEntity
  8
0
  6
ByLayer
 62
  256
370
   -1
100
AcDbLine
 10
338.8280931273381
 20
-65.58450512015401
 11
323.3280931273381
 21
-65.58450512015401
  0
LINE
  5
100
100
AcDbEntity
  8
0
  6
ByLayer
 62
  256
370
   -1
100
AcDbLine
 10
325.8280931273381
 20
-79.53450512015428
 11
338.8280931273381
 21
-79.53450512015428
  0
LINE
  5
101
100
AcDbEntity
  8
0
  6
ByLayer
 62
  256
370
   -1
100
AcDbLine
 10
338.8280931273381
 20
-79.53450512015428
 11
351.8280931273381
 21
-79.53450512015428
  0
LINE
  5
102
100
AcDbEntity
  8
0
  6
ByLayer
 62
  256
370
   -1
100
AcDbLine
 10
79.93998112733708
 20
-85.13455312015407
 11
79.93998112733708
 21
-96.85255312015391
  0
LINE
  5
103
100
AcDbEntity
  8
0
  6
ByLayer
 62
  256
370
   -1
100
AcDbLine
 10
79.93998112733708
 20
-96.85255312015391
 11
82.93998112733708
 21
-98.58455312015388
  0
LINE
  5
104
100
AcDbEntity
  8
0
  6
ByLayer
 62
  256
370
   -1
100
AcDbLine
 10
108.9399811273371
 20
-98.58455312015388
 11
111.9399811273371
 21
-96.85255312015391
  0
LINE
  5
105
100
AcDbEntity
  8
0
  6
ByLayer
 62
  256
370
   -1
100
AcDbLine
 10
111.9399811273371
 20
-96.85255312015391
 11
111.9399811273371
 21
-85.13455312015407
  0
ARC
  5
106
100
AcDbEntity
  8
0
  6
ByLayer
 62
  256
370
   -1
100
AcDbCircle
 10
111.4399811273371
 20
-85.13455312015407
 40
0.5000000000000001
100
AcDbArc
 50
0
 51
90
  0
ARC
  5
107
100
AcDbEntity
  8
0
  6
ByLayer
 62
  256
370
   -1
100
AcDbCircle
 10
80.43998212733833
 20
-85.13455412015395
 40
0.5000010000010049
100
AcDbArc
 50
90.00011459133027
 51
179.9998854086696
  0
LINE
  5
108
100
AcDbEntity
  8
0
  6
ByLayer
 62
  256
370
   -1
100
AcDbLine
 10
111.4399811273371
 20
-84.63455312015407
 11
95.93998112733708
 21
-84.63455312015407
  0
LINE
  5
109
100
AcDbEntity
  8
0
  6
ByLayer
 62
  256
370
   -1
100
AcDbLine
 10
95.93998112733708
 20
-84.63455312015407
 11
80.43998112733708
 21
-84.63455312015407
  0
LINE
  5
10A
100
AcDbEntity
  8
0
  6
ByLayer
 62
  256
370
   -1
100
AcDbLine
 10
82.93998112733708
 20
-98.58455312015388
 11
95.93998112733708
 21
-98.58455312015388
  0
LINE
  5
10B
100
AcDbEntity
  8
0
  6
ByLayer
 62
  256
370
   -1
100
AcDbLine
 10
95.93998112733708
 20
-98.58455312015388
 11
108.9399811273371
 21
-98.58455312015388
  0
LINE
  5
10C
100
AcDbEntity
  8
0
  6
ByLayer
 62
  256
370
   -1
100
AcDbLine
 10
110.071285127338
 20
-66.05950512015391
 11
110.071285127338
 21
-79.05950512015391
  0
ARC
  5
10D
100
AcDbEntity
  8
0
  6
ByLayer
 62
  256
370
   -1
100
AcDbCircle
 10
110.5712861273383
 20
-79.05950412015403
 40
0.5000010000009973
100
AcDbArc
 50
180.0001145913295
 51
269.9998854086705
  0
ARC
  5
10E
100
AcDbEntity
  8
0
  6
ByLayer
 62
  256
370
   -1
100
AcDbCircle
 10
124.171285127337
 20
-79.05950512015391
 40
0.5000000000000001
100
AcDbArc
 50
270
 51
0
  0
LINE
  5
10F
100
AcDbEntity
  8
0
  6
ByLayer
 62
  256
370
   -1
100
AcDbLine
 10
124.671285127337
 20
-79.05950512015391
 11
124.671285127337
 21
-66.05950512015391
  0
ARC
  5
110
100
AcDbEntity
  8
0
  6
ByLayer
 62
  256
370
   -1
100
AcDbCircle
 10
124.171285127337
 20
-66.05950512015391
 40
0.5000000000000001
100
AcDbArc
 50
0
 51
90
  0
ARC
  5
111
100
AcDbEntity
  8
0
  6
ByLayer
 62
  256
370
   -1
100
AcDbCircle
 10
110.5712861273383
 20
-66.05950612015425
 40
0.5000010000009976
100
AcDbArc
 50
90.00011459132956
 51
179.9998854086705
  0
LINE
  5
112
100
AcDbEntity
  8
0
  6
ByLayer
 62
  256
370
   -1
100
AcDbLine
 10
124.171285127337
 20
-65.55950512015391
 11
117.3712851273382
 21
-65.55950512015391
  0
LINE
  5
113
100
AcDbEntity
  8
0
  6
ByLayer
 62
  256
370
   -1
100
AcDbLine
 10
117.3712851273382
 20
-65.55950512015391
 11
110.571285127338
 21
-65.55950512015391
  0
LINE
  5
114
100
AcDbEntity
  8
0
  6
ByLayer
 62
  256
370
   -1
100
AcDbLine
 10
110.571285127338
 20
-79.55950512015391
 11
117.3712851273382
 21
-79.55950512015391
  0
LINE
  5
115
100
AcDbEntity
  8
0
  6
ByLayer
 62
  256
370
   -1
100
AcDbLine
 10
117.3712851273382
 20
-79.55950512015391
 11
124.171285127337
 21
-79.55950512015391
  0
LWPOLYLINE
  5
116
100
AcDbEntity
  8
0
  6
ByLayer
 62
  256
370
   -1
100
AcDbPolyline
 90
   10
 70
    1
 43
0
 10
329.302451127338
 20
-98.58440912015425
 10
342.302451127338
 20
-98.58440912015425
 10
345.302451127338
 20
-96.85240912015428
 10
345.302451127338
 20
-85.13440912015398
 42
0.414213562373095
 10
344.802451127338
 20
-84.63440912015398
 10
329.302451127338
 20
-84.63440912015398
 10
313.802451127338
 20
-84.63440912015398
 42
0.4142123908031843
 10
313.3024511273371
 20
-85.13440912015398
 10
313.302451127338
 20
-96.85240912015428
 10
316.302451127338
 20
-98.58440912015425
  0
ARC
  5
117
100
AcDbEntity
  8
0
  6
ByLayer
 62
    2
370
   -1
100
AcDbCircle
 10
257.0208011273381
 20
-117.1092171201539
 40
0.5000000000000001
100
AcDbArc
 50
270
 51
0
  0
LINE
  5
118
100
AcDbEntity
  8
0
  6
ByLayer
 62
    2
370
   -1
100
AcDbLine
 10
257.5208011273381
 20
-117.1092171201539
 11
257.5208011273381
 21
-104.2092171201543
  0
ARC
  5
119
100
AcDbEntity
  8
0
  6
ByLayer
 62
    2
370
   -1
100
AcDbCircle
 10
257.0208011273381
 20
-104.2092171201543
 40
0.5000000000000001
100
AcDbArc
 50
0
 51
90
  0
ARC
  5
11A
100
AcDbEntity
  8
0
  6
ByLayer
 62
    2
370
   -1
100
AcDbCircle
 10
244.4208011273382
 20
-104.2092171201543
 40
0.5000000000000001
100
AcDbArc
 50
90
 51
180
  0
LINE
  5
11B
100
AcDbEntity
  8
0
  6
ByLayer
 62
    2
370
   -1
100
AcDbLine
 10
243.9208011273382
 20
-104.2092171201543
 11
243.9208011273382
 21
-117.1092171201539
  0
ARC
  5
11C
100
AcDbEntity
  8
0
  6
ByLayer
 62
    2
370
   -1
100
AcDbCircle
 10
244.4208011273382
 20
-117.1092171201539
 40
0.5000000000000001
100
AcDbArc
 50
180
 51
270
  0
LINE
  5
11D
100
AcDbEntity
  8
0
  6
ByLayer
 62
    2
370
   -1
100
AcDbLine
 10
257.0208011273381
 20
-103.7092171201543
 11
250.720801127337
 21
-103.7092171201543
  0
LINE
  5
11E
100
AcDbEntity
  8
0
  6
ByLayer
 62
    2
370
   -1
100
AcDbLine
 10
250.720801127337
 20
-103.7092171201543
 11
244.4208011273382
 21
-103.7092171201543
  0
LINE
  5
11F
100
AcDbEntity
  8
0
  6
ByLayer
 62
    2
370
   -1
100
AcDbLine
 10
244.4208011273382
 20
-117.6092171201539
 11
250.720801127337
 21
-117.6092171201539
  0
LINE
  5
120
100
AcDbEntity
  8
0
  6
ByLayer
 62
    2
370
   -1
100
AcDbLine
 10
250.720801127337
 20
-117.6092171201539
 11
257.0208011273381
 21
-117.6092171201539
  0
LINE
  5
121
100
AcDbEntity
  8
0
  6
ByLayer
 62
  256
370
   -1
100
AcDbLine
 10
208.0149011273371
 20
-117.1594091201541
 11
208.0149011273371
 21
-104.1594091201541
  0
ARC
  5
122
100
AcDbEntity
  8
0
  6
ByLayer
 62
  256
370
   -1
100
AcDbCircle
 10
207.5149001273381
 20
-104.159410120153
 40
0.5000010000008839
100
AcDbArc
 50
0.0001145913165312487
 51
89.99988540868348
  0
ARC
  5
123
100
AcDbEntity
  8
0
  6
ByLayer
 62
  256
370
   -1
100
AcDbCircle
 10
193.9149011273381
 20
-104.1594091201541
 40
0.5000000000000001
100
AcDbArc
 50
90
 51
180
  0
LINE
  5
124
100
AcDbEntity
  8
0
  6
ByLayer
 62
  256
370
   -1
100
AcDbLine
 10
193.4149011273381
 20
-104.1594091201541
 11
193.4149011273381
 21
-117.1594091201541
  0
ARC
  5
125
100
AcDbEntity
  8
0
  6
ByLayer
 62
  256
370
   -1
100
AcDbCircle
 10
193.9149011273381
 20
-117.1594091201541
 40
0.5000000000000001
100
AcDbArc
 50
180
 51
270
  0
ARC
  5
126
100
AcDbEntity
  8
0
  6
ByLayer
 62
  256
370
   -1
100
AcDbCircle
 10
207.5149001273381
 20
-117.1594081201533
 40
0.5000010000008835
100
AcDbArc
 50
270.0001145913165
 51
359.9998854086835
  0
LINE
  5
127
100
AcDbEntity
  8
0
  6
ByLayer
 62
  256
370
   -1
100
AcDbLine
 10
207.5149011273371
 20
-103.6594091201541
 11
200.7149011273383
 21
-103.6594091201541
  0
LINE
  5
128
100
AcDbEntity
  8
0
  6
ByLayer
 62
  256
370
   -1
100
AcDbLine
 10
200.7149011273383
 20
-103.6594091201541
 11
193.9149011273381
 21
-103.6594091201541
  0
LINE
  5
129
100
AcDbEntity
  8
0
  6
ByLayer
 62
  256
370
   -1
100
AcDbLine
 10
193.9149011273381
 20
-117.6594091201541
 11
200.7149011273383
 21
-117.6594091201541
  0
LINE
  5
12A
100
AcDbEntity
  8
0
  6
ByLayer
 62
  256
370
   -1
100
AcDbLine
 10
200.7149011273383
 20
-117.6594091201541
 11
207.5149011273371
 21
-117.6594091201541
  0
ARC
  5
12B
100
AcDbEntity
  8
0
  6
ByLayer
 62
    2
370
   -1
100
AcDbCircle
 10
157.0149011273371
 20
-117.1094091201539
 40
0.5000000000000001
100
AcDbArc
 50
270
 51
0
  0
LINE
  5
12C
100
AcDbEntity
  8
0
  6
ByLayer
 62
    2
370
   -1
100
AcDbLine
 10
157.5149011273371
 20
-117.1094091201539
 11
157.5149011273371
 21
-104.2094091201542
  0
ARC
  5
12D
100
AcDbEntity
  8
0
  6
ByLayer
 62
    2
370
   -1
100
AcDbCircle
 10
157.0149011273371
 20
-104.2094091201542
 40
0.5000000000000001
100
AcDbArc
 50
0
 51
90
  0
ARC
  5
12E
100
AcDbEntity
  8
0
  6
ByLayer
 62
    2
370
   -1
100
AcDbCircle
 10
144.4149011273381
 20
-104.2094091201542
 40
0.5000000000000001
100
AcDbArc
 50
90
 51
180
  0
LINE
  5
12F
100
AcDbEntity
  8
0
  6
ByLayer
 62
    2
370
   -1
100
AcDbLine
 10
143.9149011273381
 20
-104.2094091201542
 11
143.9149011273381
 21
-117.1094091201539
  0
ARC
  5
130
100
AcDbEntity
  8
0
  6
ByLayer
 62
    2
370
   -1
100
AcDbCircle
 10
144.4149011273381
 20
-117.1094091201539
 40
0.5000000000000001
100
AcDbArc
 50
180
 51
270
  0
LINE
  5
131
100
AcDbEntity
  8
0
  6
ByLayer
 62
    2
370
   -1
100
AcDbLine
 10
157.0149011273371
 20
-103.7094091201542
 11
150.7149011273383
 21
-103.7094091201542
  0
LINE
  5
132
100
AcDbEntity
  8
0
  6
ByLayer
 62
    2
370
   -1
100
AcDbLine
 10
150.7149011273383
 20
-103.7094091201542
 11
144.4149011273381
 21
-103.7094091201542
  0
LINE
  5
133
100
AcDbEntity
  8
0
  6
ByLayer
 62
    2
370
   -1
100
AcDbLine
 10
144.4149011273381
 20
-117.6094091201539
 11
150.7149011273383
 21
-117.6094091201539
  0
LINE
  5
134
100
AcDbEntity
  8
0
  6
ByLayer
 62
    2
370
   -1
100
AcDbLine
 10
150.7149011273383
 20
-117.6094091201539
 11
157.0149011273371
 21
-117.6094091201539
  0
LINE
  5
135
100
AcDbEntity
  8
0
  6
ByLayer
 62
  256
370
   -1
100
AcDbLine
 10
124.358601127337
 20
-104.1594091201541
 11
124.358601127337
 21
-117.1594091201541
  0
ARC
  5
136
100
AcDbEntity
  8
0
  6
ByLayer
 62
  256
370
   -1
100
AcDbCircle
 10
124.858601127337
 20
-117.1594091201541
 40
0.5000000000000071
100
AcDbArc
 50
179.9999999999984
 51
269.9999999999984
  0
ARC
  5
137
100
AcDbEntity
  8
0
  6
ByLayer
 62
  256
370
   -1
100
AcDbCircle
 10
138.458600127337
 20
-117.1594081201533
 40
0.5000010000010009
100
AcDbArc
 50
270.0001145913295
 51
359.9998854086721
  0
LINE
  5
138
100
AcDbEntity
  8
0
  6
ByLayer
 62
  256
370
   -1
100
AcDbLine
 10
138.9586011273369
 20
-117.1594091201541
 11
138.9586011273369
 21
-104.1594091201541
  0
ARC
  5
139
100
AcDbEntity
  8
0
  6
ByLayer
 62
  256
370
   -1
100
AcDbCircle
 10
138.458600127337
 20
-104.159410120154
 40
0.5000010000009985
100
AcDbArc
 50
0.0001145913295588006
 51
89.99988540867045
  0
ARC
  5
13A
100
AcDbEntity
  8
0
  6
ByLayer
 62
  256
370
   -1
100
AcDbCircle
 10
124.858601127337
 20
-104.1594091201541
 40
0.5
100
AcDbArc
 50
90
 51
180
  0
LINE
  5
13B
100
AcDbEntity
  8
0
  6
ByLayer
 62
  256
370
   -1
100
AcDbLine
 10
138.4586011273369
 20
-103.6594091201541
 11
131.6586011273381
 21
-103.6594091201541
  0
LINE
  5
13C
100
AcDbEntity
  8
0
  6
ByLayer
 62
  256
370
   -1
100
AcDbLine
 10
131.6586011273381
 20
-103.6594091201541
 11
124.858601127337
 21
-103.6594091201541
  0
LINE
  5
13D
100
AcDbEntity
  8
0
  6
ByLayer
 62
  256
370
   -1
100
AcDbLine
 10
124.858601127337
 20
-117.6594091201541
 11
131.6586011273381
 21
-117.6594091201541
  0
LINE
  5
13E
100
AcDbEntity
  8
0
  6
ByLayer
 62
  256
370
   -1
100
AcDbLine
 10
131.6586011273381
 20
-117.6594091201541
 11
138.4586011273369
 21
-117.6594091201541
  0
LINE
  5
13F
100
AcDbEntity
  8
0
  6
ByLayer
 62
  256
370
   -1
100
AcDbLine
 10
102.927401127337
 20
-104.1594091201541
 11
102.927401127337
 21
-117.1594091201541
  0
ARC
  5
140
100
AcDbEntity
  8
0
  6
ByLayer
 62
  256
370
   -1
100
AcDbCircle
 10
103.427401127337
 20
-117.1594091201541
 40
0.5000000000000071
100
AcDbArc
 50
179.9999999999984
 51
269.9999999999984
  0
ARC
  5
141
100
AcDbEntity
  8
0
  6
ByLayer
 62
  256
370
   -1
100
AcDbCircle
 10
117.027400127337
 20
-117.1594081201533
 40
0.5000010000010009
100
AcDbArc
 50
270.0001145913295
 51
359.9998854086721
  0
LINE
  5
142
100
AcDbEntity
  8
0
  6
ByLayer
 62
  256
370
   -1
100
AcDbLine
 10
117.5274011273369
 20
-117.1594091201541
 11
117.5274011273369
 21
-104.1594091201541
  0
ARC
  5
143
100
AcDbEntity
  8
0
  6
ByLayer
 62
  256
370
   -1
100
AcDbCircle
 10
117.027400127337
 20
-104.159410120154
 40
0.5000010000009985
100
AcDbArc
 50
0.0001145913295588006
 51
89.99988540867045
  0
ARC
  5
144
100
AcDbEntity
  8
0
  6
ByLayer
 62
  256
370
   -1
100
AcDbCircle
 10
103.427401127337
 20
-104.1594091201541
 40
0.5
100
AcDbArc
 50
90
 51
180
  0
LINE
  5
145
100
AcDbEntity
  8
0
  6
ByLayer
 62
  256
370
   -1
100
AcDbLine
 10
117.0274011273369
 20
-103.6594091201541
 11
110.2274011273381
 21
-103.6594091201541
  0
LINE
  5
146
100
AcDbEntity
  8
0
  6
ByLayer
 62
  256
370
   -1
100
AcDbLine
 10
110.2274011273381
 20
-103.6594091201541
 11
103.427401127337
 21
-103.6594091201541
  0
LINE
  5
147
100
AcDbEntity
  8
0
  6
ByLayer
 62
  256
370
   -1
100
AcDbLine
 10
103.427401127337
 20
-117.6594091201541
 11
110.2274011273381
 21
-117.6594091201541
  0
LINE
  5
148
100
AcDbEntity
  8
0
  6
ByLayer
 62
  256
370
   -1
100
AcDbLine
 10
110.2274011273381
 20
-117.6594091201541
 11
117.0274011273369
 21
-117.6594091201541
  0
CIRCLE
  5
149
100
AcDbEntity
  8
0
  6
ByLayer
 62
    2
370
   -1
100
AcDbCircle
 10
93.55870112733793
 20
-34.45940912015425
 40
1
  0
CIRCLE
  5
14A
100
AcDbEntity
  8
0
  6
ByLayer
 62
    2
370
   -1
100
AcDbCircle
 10
150.7087022403813
 20
-34.45940888322497
 40
1
  0
CIRCLE
  5
14B
100
AcDbEntity
  8
0
  6
ByLayer
 62
    2
370
   -1
100
AcDbCircle
 10
207.85870161388
 20
-34.45940941830708
 40
1
  0
CIRCLE
  5
14C
100
AcDbEntity
  8
0
  6
ByLayer
 62
    2
370
   -1
100
AcDbCircle
 10
245.95870161388
 20
-34.45940941830708
 40
1
  0
CIRCLE
  5
14D
100
AcDbEntity
  8
0
  6
ByLayer
 62
    2
370
   -1
100
AcDbCircle
 10
303.1087016992543
 20
-34.45940933293417
 40
1
  0
CIRCLE
  5
14E
100
AcDbEntity
  8
0
  6
ByLayer
 62
    2
370
   -1
100
AcDbCircle
 10
365.021201673646
 20
-34.4594093585419
 40
1
  0
CIRCLE
  5
14F
100
AcDbEntity
  8
0
  6
ByLayer
 62
    2
370
   -1
100
AcDbCircle
 10
179.2837017095723
 20
-53.5094097879591
 40
1
  0
CIRCLE
  5
150
100
AcDbEntity
  8
0
  6
ByLayer
 62
    2
370
   -1
100
AcDbCircle
 10
274.5337015363372
 20
-53.50940990047405
 40
1
  0
CIRCLE
  5
151
100
AcDbEntity
  8
0
  6
ByLayer
 62
    2
370
   -1
100
AcDbCircle
 10
334.064951444475
 20
-53.50940924890205
 40
1
  0
CIRCLE
  5
152
100
AcDbEntity
  8
0
  6
ByLayer
 62
    2
370
   -1
100
AcDbCircle
 10
222.1462018831331
 20
-72.55940973356195
 40
1
  0
CIRCLE
  5
153
100
AcDbEntity
  8
0
  6
ByLayer
 62
    2
370
   -1
100
AcDbCircle
 10
298.3462016138802
 20
-72.55940941830698
 40
1
  0
CIRCLE
  5
154
100
AcDbEntity
  8
0
  6
ByLayer
 62
    2
370
   -1
100
AcDbCircle
 10
355.2962020227611
 20
-79.75315953589092
 40
1
  0
CIRCLE
  5
155
100
AcDbEntity
  8
0
  6
ByLayer
 62
    2
370
   -1
100
AcDbCircle
 10
155.4712016389532
 20
-91.6094092967723
 40
1
  0
CIRCLE
  5
156
100
AcDbEntity
  8
0
  6
ByLayer
 62
    2
370
   -1
100
AcDbCircle
 10
212.6212015400762
 20
-91.6094089672701
 40
1
  0
CIRCLE
  5
157
100
AcDbEntity
  8
0
  6
ByLayer
 62
    2
370
   -1
100
AcDbCircle
 10
269.7712021161502
 20
-91.60940927438827
 40
1
  0
CIRCLE
  5
158
100
AcDbEntity
  8
0
  6
ByLayer
 62
    2
370
   -1
100
AcDbCircle
 10
369.7837015278711
 20
-110.6594094895462
 40
1
  0
CIRCLE
  5
159
100
AcDbEntity
  8
0
  6
ByLayer
 62
    2
370
   -1
100
AcDbCircle
 10
331.6837015030411
 20
-110.6594093074681
 40
1
  0
CIRCLE
  5
15A
100
AcDbEntity
  8
0
  6
ByLayer
 62
    2
370
   -1
100
AcDbCircle
 10
284.0587015030411
 20
-110.6594093074681
 40
1
  0
CIRCLE
  5
15B
100
AcDbEntity
  8
0
  6
ByLayer
 62
    2
370
   -1
100
AcDbCircle
 10
181.7650017837819
 20
-110.6594095882091
 40
1
  0
CIRCLE
  5
15C
100
AcDbEntity
  8
0
  6
ByLayer
 62
    2
370
   -1
100
AcDbCircle
 10
122.1337019957201
 20
-110.659409234875
 40
1
  0
CIRCLE
  5
15D
100
AcDbEntity
  8
0
  6
ByLayer
 62
    2
370
   -1
100
AcDbCircle
 10
98.32120145425698
 20
-110.6594099273229
 40
1
  0
CIRCLE
  5
15E
100
AcDbEntity
  8
0
  6
ByLayer
 62
    4
370
   -1
100
AcDbCircle
 10
79.51500112807126
 20
-98.80940908749693
 40
1
  0
CIRCLE
  5
15F
100
AcDbEntity
  8
0
  6
ByLayer
 62
    4
370
   -1
100
AcDbCircle
 10
224.3974013317703
 20
-110.6594087712869
 40
1
  0
CIRCLE
  5
160
100
AcDbEntity
  8
0
  6
ByLayer
 62
    4
370
   -1
100
AcDbCircle
 10
345.7474014690021
 20
-98.75940866824197
 40
1
  0
CIRCLE
  5
161
100
AcDbEntity
  8
0
  6
ByLayer
 62
    4
370
   -1
100
AcDbCircle
 10
379.3087013535061
 20
-67.69690899917708
 40
1
  0
CIRCLE
  5
162
100
AcDbEntity
  8
0
  6
ByLayer
 62
    2
370
   -1
100
AcDbCircle
 10
126.8962018831331
 20
-72.55940973356195
 40
1
  0
CIRCLE
  5
163
100
AcDbEntity
  8
0
  6
ByLayer
 62
    2
370
   -1
100
AcDbCircle
 10
78.87740188313329
 20
-72.55940973356195
 40
1
  0
LWPOLYLINE
  5
164
100
AcDbEntity
  8
0
  6
ByLayer
 62
  256
370
   -1
100
AcDbPolyline
 90
    8
 70
    1
 43
0
 10
-214.3695782055709
 20
-70.32979625448907
 10
-214.3695782055709
 20
-83.32979625448907
 42
0.4142123908031846
 10
-213.8695782055709
 20
-83.82979625448907
 10
-200.2695782055707
 20
-83.82979625448907
 42
0.414213562373095
 10
-199.7695782055707
 20
-83.32979625448907
 10
-199.7695782055707
 20
-70.32979625448907
 42
0.414213562373095
 10
-200.2695782055707
 20
-69.82979625448907
 10
-213.8695782055709
 20
-69.82979625448907
 42
0.4142123908031843
  0
LWPOLYLINE
  5
165
100
AcDbEntity
  8
0
  6
ByLayer
 62
  256
370
   -1
100
AcDbPolyline
 90
    8
 70
    1
 43
0
 10
-66.73170620557084
 20
-89.37984425448913
 10
-66.73170620557084
 20
-102.3798442544891
 42
0.4142123908031846
 10
-66.23170620557084
 20
-102.8798442544891
 10
-52.63170620557071
 20
-102.8798442544891
 42
0.414213562373095
 10
-52.13170620557071
 20
-102.3798442544891
 10
-52.13170620557071
 20
-89.37984425448913
 42
0.414213562373095
 10
-52.63170620557071
 20
-88.87984425448913
 10
-66.23170620557084
 20
-88.87984425448913
 42
0.4142123908031843
  0
LWPOLYLINE
  5
166
100
AcDbEntity
  8
0
  6
ByLayer
 62
  256
370
   -1
100
AcDbPolyline
 90
    8
 70
    1
 43
0
 10
-171.1945062055709
 20
-102.3798442544891
 10
-171.1945062055709
 20
-89.37984425448913
 42
0.4142123908031843
 10
-171.6945062055709
 20
-88.87984425448913
 10
-185.2945062055708
 20
-88.87984425448913
 42
0.414213562373095
 10
-185.7945062055708
 20
-89.37984425448913
 10
-185.7945062055708
 20
-102.3798442544891
 42
0.414213562373095
 10
-185.2945062055708
 20
-102.8798442544891
 10
-171.6945062055709
 20
-102.8798442544891
 42
0.4142123908031846
  0
LWPOLYLINE
  5
167
100
AcDbEntity
  8
0
  6
ByLayer
 62
  256
370
   -1
100
AcDbPolyline
 90
    8
 70
    1
 43
0
 10
-214.0571142055708
 20
-45.22970025448895
 10
-214.0571142055697
 20
-32.22970025448895
 42
0.4142123908033176
 10
-214.5571142055708
 20
-31.72970025448895
 10
-228.1571142055709
 20
-31.72970025448895
 42
0.414213562373095
 10
-228.6571142055709
 20
-32.22970025448895
 10
-228.6571142055709
 20
-45.22970025448895
 42
0.414213562373095
 10
-228.1571142055709
 20
-45.72970025448895
 10
-214.5571142055708
 20
-45.72970025448895
 42
0.4142123908031846
  0
LWPOLYLINE
  5
168
100
AcDbEntity
  8
0
  6
ByLayer
 62
  256
370
   -1
100
AcDbPolyline
 90
    8
 70
    1
 43
0
 10
-266.4447462055707
 20
-102.3798442544891
 10
-266.4447462055707
 20
-89.37984425448913
 42
0.4142123908031843
 10
-266.9447462055707
 20
-88.87984425448913
 10
-280.5447462055708
 20
-88.87984425448913
 42
0.414213562373095
 10
-281.0447462055708
 20
-89.37984425448913
 10
-281.0447462055708
 20
-102.3798442544891
 42
0.414213562373095
 10
-280.5447462055708
 20
-102.8798442544891
 10
-266.9447462055707
 20
-102.8798442544891
 42
0.4142123908031846
  0
LWPOLYLINE
  5
169
100
AcDbEntity
  8
0
  6
ByLayer
 62
  256
370
   -1
100
AcDbPolyline
 90
    8
 70
    1
 43
0
 10
-247.3946982055709
 20
-102.3798442544891
 10
-247.3946982055709
 20
-89.37984425448913
 42
0.4142123908031843
 10
-247.8946982055709
 20
-88.87984425448913
 10
-261.4946982055708
 20
-88.87984425448913
 42
0.414213562373095
 10
-261.9946982055708
 20
-89.37984425448913
 10
-261.9946982055708
 20
-102.3798442544891
 42
0.414213562373095
 10
-261.4946982055708
 20
-102.8798442544891
 10
-247.8946982055709
 20
-102.8798442544891
 42
0.4142123908031846
  0
LWPOLYLINE
  5
16A
100
AcDbEntity
  8
0
  6
ByLayer
 62
  256
370
   -1
100
AcDbPolyline
 90
    8
 70
    1
 43
0
 10
-195.0070662055707
 20
-45.22970025448895
 10
-195.0070662055707
 20
-32.22970025448895
 42
0.4142123908031843
 10
-195.5070662055707
 20
-31.72970025448895
 10
-209.1070662055708
 20
-31.72970025448895
 42
0.414213562373095
 10
-209.6070662055708
 20
-32.22970025448895
 10
-209.6070662055708
 20
-45.22970025448895
 42
0.414213562373095
 10
-209.1070662055708
 20
-45.72970025448895
 10
-195.5070662055698
 20
-45.72970025448895
 42
0.4142123908031846
  0
LWPOLYLINE
  5
16B
100
AcDbEntity
  8
0
  6
ByLayer
 62
  256
370
   -1
100
AcDbPolyline
 90
    8
 70
    1
 43
0
 10
-138.1693862055708
 20
-70.32979625448907
 10
-138.1693862055708
 20
-83.32979625448907
 42
0.4142123908031846
 10
-137.6693862055708
 20
-83.82979625448907
 10
-124.0693862055707
 20
-83.82979625448907
 42
0.414213562373095
 10
-123.5693862055707
 20
-83.32979625448907
 10
-123.5693862055707
 20
-70.32979625448907
 42
0.414213562373095
 10
-124.0693862055707
 20
-69.82979625448907
 10
-137.6693862055708
 20
-69.82979625448907
 42
0.4142123908031843
  0
LWPOLYLINE
  5
16C
100
AcDbEntity
  8
0
  6
ByLayer
 62
  256
370
   -1
100
AcDbPolyline
 90
    8
 70
    1
 43
0
 10
-276.2822342055708
 20
-51.27974825448901
 10
-276.2822342055708
 20
-64.27974825448901
 42
0.4142123908031846
 10
-275.7822342055708
 20
-64.77974825448901
 10
-262.1822342055707
 20
-64.77974825448901
 42
0.414213562373095
 10
-261.6822342055707
 20
-64.27974825448901
 10
-261.6822342055707
 20
-51.27974825448901
 42
0.414213562373095
 10
-262.1822342055707
 20
-50.77974825448901
 10
-275.7822342055708
 20
-50.77974825448901
 42
0.4142123908031843
  0
LWPOLYLINE
  5
16D
100
AcDbEntity
  8
0
  6
ByLayer
 62
  256
370
   -1
100
AcDbPolyline
 90
    8
 70
    1
 43
0
 10
-338.2199142055708
 20
-51.17965225448889
 10
-338.2199142055708
 20
-64.17965225448889
 42
0.4142123908031846
 10
-337.7199142055708
 20
-64.67965225448889
 10
-324.1199142055707
 20
-64.67965225448889
 42
0.414213562373095
 10
-323.6199142055707
 20
-64.17965225448889
 10
-323.6199142055707
 20
-51.17965225448889
 42
0.414213562373095
 10
-324.1199142055707
 20
-50.67965225448889
 10
-337.7199142055708
 20
-50.67965225448889
 42
0.4142123908031843
  0
LWPOLYLINE
  5
16E
100
AcDbEntity
  8
0
  6
ByLayer
 62
  256
370
   -1
100
AcDbPolyline
 90
    8
 70
    1
 43
0
 10
-290.5697702055709
 20
-70.32979625448907
 10
-290.5697702055709
 20
-83.32979625448907
 42
0.4142123908031846
 10
-290.0697702055709
 20
-83.82979625448907
 10
-276.4697702055707
 20
-83.82979625448907
 42
0.414213562373095
 10
-275.9697702055707
 20
-83.32979625448907
 10
-275.9697702055707
 20
-70.32979625448907
 42
0.414213562373095
 10
-276.4697702055707
 20
-69.82979625448907
 10
-290.0697702055709
 20
-69.82979625448907
 42
0.4142123908031843
  0
LWPOLYLINE
  5
16F
100
AcDbEntity
  8
0
  6
ByLayer
 62
  256
370
   -1
100
AcDbPolyline
 90
    8
 70
    1
 43
0
 10
-142.9318982055709
 20
-51.27974825448901
 10
-142.9318982055709
 20
-64.27974825448901
 42
0.4142123908031846
 10
-142.4318982055709
 20
-64.77974825448901
 10
-128.8318982055707
 20
-64.77974825448901
 42
0.414213562373095
 10
-128.3318982055707
 20
-64.27974825448901
 10
-128.3318982055707
 20
-51.27974825448901
 42
0.414213562373095
 10
-128.8318982055707
 20
-50.77974825448901
 10
-142.4318982055709
 20
-50.77974825448901
 42
0.4142123908031843
  0
LWPOLYLINE
  5
170
100
AcDbEntity
  8
0
  6
ByLayer
 62
  256
370
   -1
100
AcDbPolyline
 90
    8
 70
    1
 43
0
 10
-233.4196262055707
 20
-70.32979625448907
 10
-233.4196262055707
 20
-83.32979625448907
 42
0.4142123908031846
 10
-232.9196262055707
 20
-83.82979625448907
 10
-219.3196262055708
 20
-83.82979625448907
 42
0.414213562373095
 10
-218.8196262055708
 20
-83.32979625448907
 10
-218.8196262055708
 20
-70.32979625448907
 42
0.414213562373095
 10
-219.3196262055708
 20
-69.82979625448907
 10
-232.9196262055707
 20
-69.82979625448907
 42
0.4142123908031843
  0
LWPOLYLINE
  5
171
100
AcDbEntity
  8
0
  6
ByLayer
 62
  256
370
   -1
100
AcDbPolyline
 90
    8
 70
    1
 43
0
 10
-156.9069702055708
 20
-45.22970025448895
 10
-156.9069702055708
 20
-32.22970025448895
 42
0.4142123908031843
 10
-157.4069702055708
 20
-31.72970025448895
 10
-171.0069702055707
 20
-31.72970025448895
 42
0.414213562373095
 10
-171.5069702055707
 20
-32.22970025448895
 10
-171.5069702055707
 20
-45.22970025448895
 42
0.414213562373095
 10
-171.0069702055707
 20
-45.72970025448895
 10
-157.4069702055708
 20
-45.72970025448895
 42
0.4142123908031846
  0
LWPOLYLINE
  5
172
100
AcDbEntity
  8
0
  6
ByLayer
 62
  256
370
   -1
100
AcDbPolyline
 90
    8
 70
    1
 43
0
 10
-114.0443622055709
 20
-102.3798442544891
 10
-114.0443622055709
 20
-89.37984425448913
 42
0.4142123908031843
 10
-114.5443622055709
 20
-88.87984425448913
 10
-128.1443622055708
 20
-88.87984425448913
 42
0.414213562373095
 10
-128.6443622055708
 20
-89.37984425448913
 10
-128.6443622055708
 20
-102.3798442544891
 42
0.414213562373095
 10
-128.1443622055708
 20
-102.8798442544891
 10
-114.5443622055709
 20
-102.8798442544891
 42
0.4142123908031846
  0
LWPOLYLINE
  5
173
100
AcDbEntity
  8
0
  6
ByLayer
 62
  256
370
   -1
100
AcDbPolyline
 90
    8
 70
    1
 43
0
 10
-161.9819462055707
 20
-51.27974825448901
 10
-161.9819462055707
 20
-64.27974825448901
 42
0.4142123908031846
 10
-161.4819462055707
 20
-64.77974825448901
 10
-147.8819462055708
 20
-64.77974825448901
 42
0.414213562373095
 10
-147.3819462055708
 20
-64.27974825448901
 10
-147.3819462055708
 20
-51.27974825448901
 42
0.414213562373095
 10
-147.8819462055708
 20
-50.77974825448901
 10
-161.4819462055707
 20
-50.77974825448901
 42
0.4142123908031843
  0
LWPOLYLINE
  5
174
100
AcDbEntity
  8
0
  6
ByLayer
 62
  256
370
   -1
100
AcDbPolyline
 90
    8
 70
    1
 43
0
 10
-175.9570182055709
 20
-45.22970025448895
 10
-175.9570182055709
 20
-32.22970025448895
 42
0.4142123908031843
 10
-176.4570182055709
 20
-31.72970025448895
 10
-190.0570182055708
 20
-31.72970025448895
 42
0.414213562373095
 10
-190.5570182055708
 20
-32.22970025448895
 10
-190.5570182055708
 20
-45.22970025448895
 42
0.414213562373095
 10
-190.0570182055708
 20
-45.72970025448895
 10
-176.4570182055709
 20
-45.72970025448895
 42
0.4142123908031846
  0
LWPOLYLINE
  5
175
100
AcDbEntity
  8
0
  6
ByLayer
 62
  256
370
   -1
100
AcDbPolyline
 90
    8
 70
    1
 43
0
 10
-123.8818502055708
 20
-51.27974825448901
 10
-123.8818502055709
 20
-64.27974825448901
 42
0.4142123908033177
 10
-123.3818502055708
 20
-64.77974825448901
 10
-109.7818502055709
 20
-64.77974825448901
 42
0.414213562373095
 10
-109.2818502055709
 20
-64.27974825448901
 10
-109.2818502055709
 20
-51.27974825448901
 42
0.414213562373095
 10
-109.7818502055709
 20
-50.77974825448901
 10
-123.3818502055708
 20
-50.77974825448901
 42
0.4142123908031843
  0
LWPOLYLINE
  5
176
100
AcDbEntity
  8
0
  6
ByLayer
 62
  256
370
   -1
100
AcDbPolyline
 90
    8
 70
    1
 43
0
 10
-200.0820422055708
 20
-51.27974825448901
 10
-200.0820422055709
 20
-64.27974825448901
 42
0.4142123908033177
 10
-199.5820422055708
 20
-64.77974825448901
 10
-185.9820422055709
 20
-64.77974825448901
 42
0.414213562373095
 10
-185.4820422055709
 20
-64.27974825448901
 10
-185.4820422055709
 20
-51.27974825448901
 42
0.414213562373095
 10
-185.9820422055709
 20
-50.77974825448901
 10
-199.5820422055708
 20
-50.77974825448901
 42
0.4142123908031843
  0
LWPOLYLINE
  5
177
100
AcDbEntity
  8
0
  6
ByLayer
 62
  256
370
   -1
100
AcDbPolyline
 90
    8
 70
    1
 43
0
 10
-195.3195302055708
 20
-70.32979625448907
 10
-195.3195302055709
 20
-83.32979625448907
 42
0.4142123908033177
 10
-194.8195302055708
 20
-83.82979625448907
 10
-181.2195302055709
 20
-83.82979625448907
 42
0.414213562373095
 10
-180.7195302055709
 20
-83.32979625448907
 10
-180.7195302055709
 20
-70.32979625448907
 42
0.414213562373095
 10
-181.2195302055709
 20
-69.82979625448907
 10
-194.8195302055708
 20
-69.82979625448907
 42
0.4142123908031843
  0
LWPOLYLINE
  5
178
100
AcDbEntity
  8
0
  6
ByLayer
 62
  256
370
   -1
100
AcDbPolyline
 90
    8
 70
    1
 43
0
 10
-190.2445542055707
 20
-102.3798442544891
 10
-190.2445542055707
 20
-89.37984425448913
 42
0.4142123908031843
 10
-190.7445542055707
 20
-88.87984425448913
 10
-204.3445542055708
 20
-88.87984425448913
 42
0.414213562373095
 10
-204.8445542055708
 20
-89.37984425448913
 10
-204.8445542055708
 20
-102.3798442544891
 42
0.414213562373095
 10
-204.3445542055708
 20
-102.8798442544891
 10
-190.7445542055707
 20
-102.8798442544891
 42
0.4142123908031846
  0
LWPOLYLINE
  5
179
100
AcDbEntity
  8
0
  6
ByLayer
 62
  256
370
   -1
100
AcDbPolyline
 90
    8
 70
    1
 43
0
 10
-152.1444582055708
 20
-102.3798442544891
 10
-152.1444582055698
 20
-89.37984425448913
 42
0.4142123908033176
 10
-152.6444582055708
 20
-88.87984425448913
 10
-166.2444582055707
 20
-88.87984425448913
 42
0.414213562373095
 10
-166.7444582055707
 20
-89.37984425448913
 10
-166.7444582055707
 20
-102.3798442544891
 42
0.414213562373095
 10
-166.2444582055707
 20
-102.8798442544891
 10
-152.6444582055708
 20
-102.8798442544891
 42
0.4142123908031846
  0
LWPOLYLINE
  5
17A
100
AcDbEntity
  8
0
  6
ByLayer
 62
  256
370
   -1
100
AcDbPolyline
 90
    8
 70
    1
 43
0
 10
-119.1193382055708
 20
-70.32979625448907
 10
-119.1193382055709
 20
-83.32979625448907
 42
0.4142123908033177
 10
-118.6193382055708
 20
-83.82979625448907
 10
-105.0193382055709
 20
-83.82979625448907
 42
0.414213562373095
 10
-104.5193382055709
 20
-83.32979625448907
 10
-104.5193382055709
 20
-70.32979625448907
 42
0.414213562373095
 10
-105.0193382055709
 20
-69.82979625448907
 10
-118.6193382055708
 20
-69.82979625448907
 42
0.4142123908031843
  0
LWPOLYLINE
  5
17B
100
AcDbEntity
  8
0
  6
ByLayer
 62
  256
370
   -1
100
AcDbPolyline
 90
    8
 70
    1
 43
0
 10
-219.1320902055709
 20
-51.27974825448901
 10
-219.1320902055709
 20
-64.27974825448901
 42
0.4142123908031846
 10
-218.6320902055709
 20
-64.77974825448901
 10
-205.0320902055707
 20
-64.77974825448901
 42
0.414213562373095
 10
-204.5320902055707
 20
-64.27974825448901
 10
-204.5320902055707
 20
-51.27974825448901
 42
0.414213562373095
 10
-205.0320902055707
 20
-50.77974825448901
 10
-218.6320902055709
 20
-50.77974825448901
 42
0.4142123908031843
  0
LWPOLYLINE
  5
17C
100
AcDbEntity
  8
0
  6
ByLayer
 62
  256
370
   -1
100
AcDbPolyline
 90
    8
 70
    1
 43
0
 10
-271.5197222055708
 20
-70.32979625448907
 10
-271.5197222055709
 20
-83.32979625448907
 42
0.4142123908033177
 10
-271.0197222055708
 20
-83.82979625448907
 10
-257.4197222055709
 20
-83.82979625448907
 42
0.414213562373095
 10
-256.9197222055709
 20
-83.32979625448907
 10
-256.9197222055709
 20
-70.32979625448907
 42
0.414213562373095
 10
-257.4197222055709
 20
-69.82979625448907
 10
-271.0197222055708
 20
-69.82979625448907
 42
0.4142123908031843
  0
LWPOLYLINE
  5
17D
100
AcDbEntity
  8
0
  6
ByLayer
 62
  256
370
   -1
100
AcDbPolyline
 90
    8
 70
    1
 43
0
 10
-285.4947942055708
 20
-102.3798442544891
 10
-285.4947942055708
 20
-89.37984425448913
 42
0.4142123908031843
 10
-285.9947942055708
 20
-88.87984425448913
 10
-299.5947942055709
 20
-88.87984425448913
 42
0.414213562373095
 10
-300.0947942055709
 20
-89.37984425448913
 10
-300.0947942055709
 20
-102.3798442544891
 42
0.414213562373095
 10
-299.5947942055709
 20
-102.8798442544891
 10
-285.9947942055708
 20
-102.8798442544891
 42
0.4142123908031846
  0
LWPOLYLINE
  5
17E
100
AcDbEntity
  8
0
  6
ByLayer
 62
  256
370
   -1
100
AcDbPolyline
 90
    8
 70
    1
 43
0
 10
-252.1572102055709
 20
-45.22970025448895
 10
-252.1572102055709
 20
-32.22970025448895
 42
0.4142123908031843
 10
-252.6572102055709
 20
-31.72970025448895
 10
-266.2572102055708
 20
-31.72970025448895
 42
0.414213562373095
 10
-266.7572102055708
 20
-32.22970025448895
 10
-266.7572102055708
 20
-45.22970025448895
 42
0.414213562373095
 10
-266.2572102055708
 20
-45.72970025448895
 10
-252.6572102055709
 20
-45.72970025448895
 42
0.4142123908031846
  0
LWPOLYLINE
  5
17F
100
AcDbEntity
  8
0
  6
ByLayer
 62
  256
370
   -1
100
AcDbPolyline
 90
    8
 70
    1
 43
0
 10
-238.1821382055707
 20
-51.27974825448901
 10
-238.1821382055707
 20
-64.27974825448901
 42
0.4142123908031846
 10
-237.6821382055707
 20
-64.77974825448901
 10
-224.0821382055708
 20
-64.77974825448901
 42
0.414213562373095
 10
-223.5821382055708
 20
-64.27974825448901
 10
-223.5821382055708
 20
-51.27974825448901
 42
0.414213562373095
 10
-224.0821382055708
 20
-50.77974825448901
 10
-237.6821382055707
 20
-50.77974825448901
 42
0.4142123908031843
  0
LWPOLYLINE
  5
180
100
AcDbEntity
  8
0
  6
ByLayer
 62
  256
370
   -1
100
AcDbPolyline
 90
    8
 70
    1
 43
0
 10
-137.8569222055698
 20
-45.22970025448895
 10
-137.8569222055698
 20
-32.22970025448895
 42
0.4142123908031843
 10
-138.3569222055698
 20
-31.72970025448895
 10
-151.9569222055709
 20
-31.72970025448895
 42
0.414213562373095
 10
-152.4569222055709
 20
-32.22970025448895
 10
-152.4569222055709
 20
-45.22970025448895
 42
0.414213562373095
 10
-151.9569222055709
 20
-45.72970025448895
 10
-138.3569222055698
 20
-45.72970025448895
 42
0.4142123908031846
  0
LWPOLYLINE
  5
181
100
AcDbEntity
  8
0
  6
ByLayer
 62
  256
370
   -1
100
AcDbPolyline
 90
    8
 70
    1
 43
0
 10
-33.15721020557066
 20
-121.4539562544889
 10
-33.15721020556975
 20
-108.4539562544889
 42
0.4142123908031843
 10
-33.65721020557066
 20
-107.9539562544889
 10
-47.2572102055708
 20
-107.9539562544889
 42
0.414213562373095
 10
-47.7572102055708
 20
-108.4539562544889
 10
-47.7572102055708
 20
-121.4539562544889
 42
0.414213562373095
 10
-47.2572102055708
 20
-121.9539562544889
 10
-33.65721020557066
 20
-121.9539562544889
 42
0.4142123908031846
  0
LWPOLYLINE
  5
182
100
AcDbEntity
  8
0
  6
ByLayer
 62
  256
370
   -1
100
AcDbPolyline
 90
    8
 70
    1
 43
0
 10
-309.3073542055708
 20
-45.22970025448895
 10
-309.3073542055708
 20
-32.22970025448895
 42
0.4142123908031843
 10
-309.8073542055708
 20
-31.72970025448895
 10
-323.4073542055698
 20
-31.72970025448895
 42
0.414213562373095
 10
-323.9073542055698
 20
-32.22970025448895
 10
-323.9073542055698
 20
-45.22970025448895
 42
0.414213562373095
 10
-323.4073542055698
 20
-45.72970025448895
 10
-309.8073542055708
 20
-45.72970025448895
 42
0.4142123908031846
  0
LWPOLYLINE
  5
183
100
AcDbEntity
  8
0
  6
ByLayer
 62
  256
370
   -1
100
AcDbPolyline
 90
    8
 70
    1
 43
0
 10
-157.2194342055709
 20
-70.32979625448907
 10
-157.2194342055709
 20
-83.32979625448907
 42
0.4142123908031846
 10
-156.7194342055709
 20
-83.82979625448907
 10
-143.1194342055708
 20
-83.82979625448907
 42
0.414213562373095
 10
-142.6194342055708
 20
-83.32979625448907
 10
-142.6194342055708
 20
-70.32979625448907
 42
0.414213562373095
 10
-143.1194342055708
 20
-69.82979625448907
 10
-156.7194342055709
 20
-69.82979625448907
 42
0.4142123908031843
  0
LWPOLYLINE
  5
184
100
AcDbEntity
  8
0
  6
ByLayer
 62
  256
370
   -1
100
AcDbPolyline
 90
    8
 70
    1
 43
0
 10
-118.8068742055707
 20
-45.22970025448895
 10
-118.8068742055707
 20
-32.22970025448895
 42
0.4142123908031843
 10
-119.3068742055707
 20
-31.72970025448895
 10
-132.9068742055708
 20
-31.72970025448895
 42
0.414213562373095
 10
-133.4068742055708
 20
-32.22970025448895
 10
-133.4068742055708
 20
-45.22970025448895
 42
0.414213562373095
 10
-132.9068742055708
 20
-45.72970025448895
 10
-119.3068742055707
 20
-45.72970025448895
 42
0.4142123908031846
  0
LWPOLYLINE
  5
185
100
AcDbEntity
  8
0
  6
ByLayer
 62
  256
370
   -1
100
AcDbPolyline
 90
    8
 70
    1
 43
0
 10
-252.4696742055708
 20
-70.32979625448907
 10
-252.4696742055709
 20
-83.32979625448907
 42
0.4142123908033177
 10
-251.9696742055708
 20
-83.82979625448907
 10
-238.3696742055708
 20
-83.82979625448907
 42
0.414213562373095
 10
-237.8696742055708
 20
-83.32979625448907
 10
-237.8696742055708
 20
-70.32979625448907
 42
0.414213562373095
 10
-238.3696742055708
 20
-69.82979625448907
 10
-251.9696742055708
 20
-69.82979625448907
 42
0.4142123908031843
  0
LWPOLYLINE
  5
186
100
AcDbEntity
  8
0
  6
ByLayer
 62
  256
370
   -1
100
AcDbPolyline
 90
    8
 70
    1
 43
0
 10
-104.8318022055707
 20
-51.27974825448901
 10
-104.8318022055709
 20
-64.27974825448901
 42
0.4142123908033177
 10
-104.3318022055707
 20
-64.77974825448901
 10
-90.73180220557083
 20
-64.77974825448901
 42
0.414213562373095
 10
-90.23180220557083
 20
-64.27974825448901
 10
-90.23180220557083
 20
-51.27974825448901
 42
0.414213562373095
 10
-90.73180220557083
 20
-50.77974825448901
 10
-104.3318022055707
 20
-50.77974825448901
 42
0.4142123908031843
  0
LWPOLYLINE
  5
187
100
AcDbEntity
  8
0
  6
ByLayer
 62
  256
370
   -1
100
AcDbPolyline
 90
    8
 70
    1
 43
0
 10
-233.1071622055708
 20
-45.22970025448895
 10
-233.1071622055708
 20
-32.22970025448895
 42
0.4142123908031843
 10
-233.6071622055708
 20
-31.72970025448895
 10
-247.2071622055707
 20
-31.72970025448895
 42
0.414213562373095
 10
-247.7071622055707
 20
-32.22970025448895
 10
-247.7071622055707
 20
-45.22970025448895
 42
0.414213562373095
 10
-247.2071622055707
 20
-45.72970025448895
 10
-233.6071622055708
 20
-45.72970025448883
 42
0.4142123908033177
  0
LWPOLYLINE
  5
188
100
AcDbEntity
  8
0
  6
ByLayer
 62
  256
370
   -1
100
AcDbPolyline
 90
    8
 70
    1
 43
0
 10
-85.78175420557091
 20
-108.4298922544887
 10
-85.78175420557091
 20
-121.4298922544887
 42
0.4142123908031846
 10
-85.28175420557091
 20
-121.9298922544887
 10
-71.68175420557077
 20
-121.9298922544887
 42
0.414213562373095
 10
-71.18175420557077
 20
-121.4298922544887
 10
-71.18175420557077
 20
-108.4298922544887
 42
0.414213562373095
 10
-71.68175420557077
 20
-107.9298922544887
 10
-85.28175420557091
 20
-107.9298922544887
 42
0.4142123908031843
  0
LWPOLYLINE
  5
189
100
AcDbEntity
  8
0
  6
ByLayer
 62
  256
370
   -1
100
AcDbPolyline
 90
    8
 70
    1
 43
0
 10
-228.3446502055708
 20
-102.3798442544891
 10
-228.3446502055708
 20
-89.37984425448913
 42
0.4142123908031843
 10
-228.8446502055708
 20
-88.87984425448913
 10
-242.4446502055707
 20
-88.87984425448913
 42
0.414213562373095
 10
-242.9446502055707
 20
-89.37984425448913
 10
-242.9446502055707
 20
-102.3798442544891
 42
0.414213562373095
 10
-242.4446502055707
 20
-102.8798442544891
 10
-228.8446502055708
 20
-102.8798442544891
 42
0.4142123908031846
  0
LWPOLYLINE
  5
18A
100
AcDbEntity
  8
0
  6
ByLayer
 62
  256
370
   -1
100
AcDbPolyline
 90
    8
 70
    1
 43
0
 10
-66.73170620557084
 20
-108.4298922544887
 10
-66.73170620557084
 20
-121.4298922544887
 42
0.4142123908031846
 10
-66.23170620557084
 20
-121.9298922544887
 10
-52.63170620557071
 20
-121.9298922544887
 42
0.414213562373095
 10
-52.13170620557071
 20
-121.4298922544887
 10
-52.13170620557071
 20
-108.4298922544887
 42
0.414213562373095
 10
-52.63170620557071
 20
-107.9298922544887
 10
-66.23170620557084
 20
-107.9298922544887
 42
0.4142123908031843
  0
LWPOLYLINE
  5
18B
100
AcDbEntity
  8
0
  6
ByLayer
 62
  256
370
   -1
100
AcDbPolyline
 90
    8
 70
    1
 43
0
 10
-271.2072582055707
 20
-45.22970025448895
 10
-271.2072582055707
 20
-32.22970025448895
 42
0.4142123908031843
 10
-271.7072582055707
 20
-31.72970025448895
 10
-285.3072582055709
 20
-31.72970025448895
 42
0.414213562373095
 10
-285.8072582055709
 20
-32.22970025448895
 10
-285.8072582055709
 20
-45.22970025448895
 42
0.414213562373095
 10
-285.3072582055709
 20
-45.72970025448895
 10
-271.7072582055707
 20
-45.72970025448895
 42
0.4142123908031846
  0
LWPOLYLINE
  5
18C
100
AcDbEntity
  8
0
  6
ByLayer
 62
  256
370
   -1
100
AcDbPolyline
 90
    8
 70
    1
 43
0
 10
-290.2573062055708
 20
-45.22970025448895
 10
-290.2573062055708
 20
-32.22970025448895
 42
0.4142123908031843
 10
-290.7573062055708
 20
-31.72970025448895
 10
-304.3573062055707
 20
-31.72970025448895
 42
0.414213562373095
 10
-304.8573062055707
 20
-32.22970025448895
 10
-304.8573062055707
 20
-45.22970025448895
 42
0.414213562373095
 10
-304.3573062055707
 20
-45.72970025448895
 10
-290.7573062055708
 20
-45.72970025448895
 42
0.4142123908031846
  0
LWPOLYLINE
  5
18D
100
AcDbEntity
  8
0
  6
ByLayer
 62
  256
370
   -1
100
AcDbPolyline
 90
    8
 70
    1
 43
0
 10
-257.2321862055708
 20
-51.27974825448901
 10
-257.2321862055709
 20
-64.27974825448901
 42
0.4142123908033177
 10
-256.7321862055708
 20
-64.77974825448901
 10
-243.1321862055709
 20
-64.77974825448901
 42
0.414213562373095
 10
-242.6321862055709
 20
-64.27974825448901
 10
-242.6321862055709
 20
-51.27974825448901
 42
0.414213562373095
 10
-243.1321862055709
 20
-50.77974825448901
 10
-256.7321862055708
 20
-50.77974825448901
 42
0.4142123908031843
  0
LWPOLYLINE
  5
18E
100
AcDbEntity
  8
0
  6
ByLayer
 62
  256
370
   -1
100
AcDbPolyline
 90
    8
 70
    1
 43
0
 10
-181.0319942055698
 20
-51.27974825448901
 10
-181.0319942055709
 20
-64.27974825448901
 42
0.4142123908033177
 10
-180.5319942055698
 20
-64.77974825448901
 10
-166.9319942055708
 20
-64.77974825448901
 42
0.414213562373095
 10
-166.4319942055708
 20
-64.27974825448901
 10
-166.4319942055708
 20
-51.27974825448901
 42
0.414213562373095
 10
-166.9319942055708
 20
-50.77974825448901
 10
-180.5319942055698
 20
-50.77974825448901
 42
0.4142123908031843
  0
LWPOLYLINE
  5
18F
100
AcDbEntity
  8
0
  6
ByLayer
 62
  256
370
   -1
100
AcDbPolyline
 90
    8
 70
    1
 43
0
 10
-133.0944102055707
 20
-102.3798442544891
 10
-133.0944102055697
 20
-89.37984425448913
 42
0.4142123908033176
 10
-133.5944102055707
 20
-88.87984425448913
 10
-147.1944102055709
 20
-88.87984425448913
 42
0.414213562373095
 10
-147.6944102055709
 20
-89.37984425448913
 10
-147.6944102055709
 20
-102.3798442544891
 42
0.414213562373095
 10
-147.1944102055709
 20
-102.8798442544891
 10
-133.5944102055707
 20
-102.8798442544891
 42
0.4142123908031846
  0
LWPOLYLINE
  5
190
100
AcDbEntity
  8
0
  6
ByLayer
 62
  256
370
   -1
100
AcDbPolyline
 90
    8
 70
    1
 43
0
 10
-314.3823302055707
 20
-51.27974825448901
 10
-314.3823302055707
 20
-64.27974825448901
 42
0.4142123908031846
 10
-313.8823302055707
 20
-64.77974825448901
 10
-300.2823302055708
 20
-64.77974825448901
 42
0.414213562373095
 10
-299.7823302055708
 20
-64.27974825448901
 10
-299.7823302055708
 20
-51.27974825448901
 42
0.414213562373095
 10
-300.2823302055708
 20
-50.77974825448901
 10
-313.8823302055707
 20
-50.77974825448901
 42
0.4142123908031843
  0
LWPOLYLINE
  5
191
100
AcDbEntity
  8
0
  6
ByLayer
 62
  256
370
   -1
100
AcDbPolyline
 90
    8
 70
    1
 43
0
 10
-295.3322822055709
 20
-51.27974825448901
 10
-295.3322822055709
 20
-64.27974825448901
 42
0.4142123908031846
 10
-294.8322822055709
 20
-64.77974825448901
 10
-281.2322822055708
 20
-64.77974825448901
 42
0.414213562373095
 10
-280.7322822055708
 20
-64.27974825448901
 10
-280.7322822055708
 20
-51.27974825448901
 42
0.414213562373095
 10
-281.2322822055708
 20
-50.77974825448901
 10
-294.8322822055709
 20
-50.77974825448901
 42
0.4142123908031843
  0
LWPOLYLINE
  5
192
100
AcDbEntity
  8
0
  6
ByLayer
 62
  256
370
   -1
100
AcDbPolyline
 90
    8
 70
    1
 43
0
 10
-176.2694822055707
 20
-70.32979625448907
 10
-176.2694822055709
 20
-83.32979625448907
 42
0.4142123908033177
 10
-175.7694822055707
 20
-83.82979625448907
 10
-162.1694822055708
 20
-83.82979625448907
 42
0.414213562373095
 10
-161.6694822055708
 20
-83.32979625448907
 10
-161.6694822055708
 20
-70.32979625448907
 42
0.414213562373095
 10
-162.1694822055708
 20
-69.82979625448907
 10
-175.7694822055707
 20
-69.82979625448907
 42
0.4142123908031843
  0
LWPOLYLINE
  5
193
100
AcDbEntity
  8
0
  6
ByLayer
 62
  256
370
   -1
100
AcDbPolyline
 90
    8
 70
    1
 43
0
 10
-81.01929020557077
 20
-51.27970025448913
 10
-81.01929020557088
 20
-64.27970025448913
 42
0.4142123908033177
 10
-80.51929020557077
 20
-64.77970025448913
 10
-66.91929020557086
 20
-64.77970025448913
 42
0.414213562373095
 10
-66.41929020557086
 20
-64.27970025448913
 10
-66.41929020557086
 20
-51.27970025448913
 42
0.414213562373095
 10
-66.91929020557086
 20
-50.77970025448913
 10
-80.51929020557077
 20
-50.77970025448913
 42
0.4142123908031843
  0
LINE
  5
194
100
AcDbEntity
  8
0
  6
ByLayer
 62
  256
370
   -1
100
AcDbLine
 10
-223.8946022055709
 20
-108.4298922544887
 11
-223.8946022055709
 21
-121.4298922544887
  0
ARC
  5
195
100
AcDbEntity
  8
0
  6
ByLayer
 62
  256
370
   -1
100
AcDbCircle
 10
-223.3946022055709
 20
-121.4298922544887
 40
0.5000000000000071
100
AcDbArc
 50
179.9999999999984
 51
269.9999999999984
  0
ARC
  5
196
100
AcDbEntity
  8
0
  6
ByLayer
 62
  256
370
   -1
100
AcDbCircle
 10
-209.7946032055709
 20
-121.4298912544889
 40
0.5000010000010009
100
AcDbArc
 50
270.0001145913295
 51
359.9998854086721
  0
LINE
  5
197
100
AcDbEntity
  8
0
  6
ByLayer
 62
  256
370
   -1
100
AcDbLine
 10
-209.2946022055698
 20
-121.4298922544887
 11
-209.2946022055698
 21
-108.4298922544887
  0
ARC
  5
198
100
AcDbEntity
  8
0
  6
ByLayer
 62
  256
370
   -1
100
AcDbCircle
 10
-209.7946032055709
 20
-108.4298932544891
 40
0.5000010000009985
100
AcDbArc
 50
0.0001145913295588006
 51
89.99988540867045
  0
ARC
  5
199
100
AcDbEntity
  8
0
  6
ByLayer
 62
  256
370
   -1
100
AcDbCircle
 10
-223.3946022055709
 20
-108.4298922544887
 40
0.5
100
AcDbArc
 50
90
 51
180
  0
LINE
  5
19A
100
AcDbEntity
  8
0
  6
ByLayer
 62
  256
370
   -1
100
AcDbLine
 10
-209.7946022055698
 20
-107.9298922544887
 11
-216.5946022055707
 21
-107.9298922544887
  0
LINE
  5
19B
100
AcDbEntity
  8
0
  6
ByLayer
 62
  256
370
   -1
100
AcDbLine
 10
-216.5946022055707
 20
-107.9298922544887
 11
-223.3946022055709
 21
-107.9298922544887
  0
LINE
  5
19C
100
AcDbEntity
  8
0
  6
ByLayer
 62
  256
370
   -1
100
AcDbLine
 10
-223.3946022055709
 20
-121.9298922544887
 11
-216.5946022055707
 21
-121.9298922544887
  0
LINE
  5
19D
100
AcDbEntity
  8
0
  6
ByLayer
 62
  256
370
   -1
100
AcDbLine
 10
-216.5946022055707
 20
-121.9298922544887
 11
-209.7946022055698
 21
-121.9298922544887
  0
LINE
  5
19E
100
AcDbEntity
  8
0
  6
ByLayer
 62
  256
370
   -1
100
AcDbLine
 10
-342.9574022055708
 20
-32.22970025448895
 11
-342.9574022055708
 21
-45.22970025448895
  0
ARC
  5
19F
100
AcDbEntity
  8
0
  6
ByLayer
 62
  256
370
   -1
100
AcDbCircle
 10
-342.4574012055707
 20
-45.22969925448906
 40
0.500001000001
100
AcDbArc
 50
180.0001145913297
 51
269.9998854086701
  0
ARC
  5
1A0
100
AcDbEntity
  8
0
  6
ByLayer
 62
  256
370
   -1
100
AcDbCircle
 10
-328.8574022055709
 20
-45.22970025448895
 40
0.5
100
AcDbArc
 50
270
 51
0
  0
LINE
  5
1A1
100
AcDbEntity
  8
0
  6
ByLayer
 62
  256
370
   -1
100
AcDbLine
 10
-328.3574022055709
 20
-45.22970025448895
 11
-328.3574022055709
 21
-32.22970025448895
  0
ARC
  5
1A2
100
AcDbEntity
  8
0
  6
ByLayer
 62
  256
370
   -1
100
AcDbCircle
 10
-328.8574022055709
 20
-32.22970025448895
 40
0.5
100
AcDbArc
 50
359.9999999999999
 51
90
  0
ARC
  5
1A3
100
AcDbEntity
  8
0
  6
ByLayer
 62
  256
370
   -1
100
AcDbCircle
 10
-342.4574012055707
 20
-32.22970125448883
 40
0.500001000001
100
AcDbArc
 50
90.00011459132986
 51
179.9998854086702
  0
LINE
  5
1A4
100
AcDbEntity
  8
0
  6
ByLayer
 62
  256
370
   -1
100
AcDbLine
 10
-328.8574022055709
 20
-31.72970025448895
 11
-335.6574022055709
 21
-31.72970025448895
  0
LINE
  5
1A5
100
AcDbEntity
  8
0
  6
ByLayer
 62
  256
370
   -1
100
AcDbLine
 10
-335.6574022055709
 20
-31.72970025448895
 11
-342.4574022055708
 21
-31.72970025448895
  0
LINE
  5
1A6
100
AcDbEntity
  8
0
  6
ByLayer
 62
  256
370
   -1
100
AcDbLine
 10
-342.4574022055708
 20
-45.72970025448895
 11
-335.6574022055709
 21
-45.72970025448895
  0
LINE
  5
1A7
100
AcDbEntity
  8
0
  6
ByLayer
 62
  256
370
   -1
100
AcDbLine
 10
-335.6574022055709
 20
-45.72970025448895
 11
-328.8574022055709
 21
-45.72970025448895
  0
LINE
  5
1A8
100
AcDbEntity
  8
0
  6
ByLayer
 62
  256
370
   -1
100
AcDbLine
 10
-335.6574022055709
 20
-31.72970025448895
 11
-335.6574022055709
 21
-38.72970025448895
  0
LINE
  5
1A9
100
AcDbEntity
  8
0
  6
ByLayer
 62
  256
370
   -1
100
AcDbLine
 10
-33.08165820557087
 20
-45.22970025448895
 11
-33.08165820557087
 21
-32.22970025448895
  0
ARC
  5
1AA
100
AcDbEntity
  8
0
  6
ByLayer
 62
  256
370
   -1
100
AcDbCircle
 10
-33.58165920556985
 20
-32.22970125448883
 40
0.500001000000993
100
AcDbArc
 50
0.0001145913289481341
 51
89.99988540867045
  0
ARC
  5
1AB
100
AcDbEntity
  8
0
  6
ByLayer
 62
  256
370
   -1
100
AcDbCircle
 10
-47.18165820557078
 20
-32.22970025448895
 40
0.5000000000000001
100
AcDbArc
 50
90
 51
180
  0
LINE
  5
1AC
100
AcDbEntity
  8
0
  6
ByLayer
 62
  256
370
   -1
100
AcDbLine
 10
-47.68165820557078
 20
-32.22970025448895
 11
-47.68165820557078
 21
-45.22970025448895
  0
ARC
  5
1AD
100
AcDbEntity
  8
0
  6
ByLayer
 62
  256
370
   -1
100
AcDbCircle
 10
-47.18165820557078
 20
-45.22970025448895
 40
0.5000000000000001
100
AcDbArc
 50
180
 51
270
  0
ARC
  5
1AE
100
AcDbEntity
  8
0
  6
ByLayer
 62
  256
370
   -1
100
AcDbCircle
 10
-33.58165920556985
 20
-45.22969925448906
 40
0.5000010000009929
100
AcDbArc
 50
270.0001145913295
 51
359.999885408671
  0
LINE
  5
1AF
100
AcDbEntity
  8
0
  6
ByLayer
 62
  256
370
   -1
100
AcDbLine
 10
-33.58165820557087
 20
-31.72970025448895
 11
-40.38165820557083
 21
-31.72970025448895
  0
LINE
  5
1B0
100
AcDbEntity
  8
0
  6
ByLayer
 62
  256
370
   -1
100
AcDbLine
 10
-40.38165820557083
 20
-31.72970025448895
 11
-47.18165820557078
 21
-31.72970025448895
  0
LINE
  5
1B1
100
AcDbEntity
  8
0
  6
ByLayer
 62
  256
370
   -1
100
AcDbLine
 10
-47.18165820557078
 20
-45.72970025448895
 11
-40.38165820557083
 21
-45.72970025448895
  0
LINE
  5
1B2
100
AcDbEntity
  8
0
  6
ByLayer
 62
  256
370
   -1
100
AcDbLine
 10
-40.38165820557083
 20
-45.72970025448895
 11
-33.58165820557087
 21
-45.72970025448895
  0
LINE
  5
1B3
100
AcDbEntity
  8
0
  6
ByLayer
 62
  256
370
   -1
100
AcDbLine
 10
-94.48175420557072
 20
-32.25470025448904
 11
-94.48175420557072
 21
-43.97270025448888
  0
LINE
  5
1B4
100
AcDbEntity
  8
0
  6
ByLayer
 62
  256
370
   -1
100
AcDbLine
 10
-94.48175420557072
 20
-43.97270025448888
 11
-91.48175420557072
 21
-45.70470025448886
  0
LINE
  5
1B5
100
AcDbEntity
  8
0
  6
ByLayer
 62
  256
370
   -1
100
AcDbLine
 10
-65.48175420556981
 20
-45.70470025448886
 11
-62.48175420556981
 21
-43.97270025448888
  0
LINE
  5
1B6
100
AcDbEntity
  8
0
  6
ByLayer
 62
  256
370
   -1
100
AcDbLine
 10
-62.48175420556981
 20
-43.97270025448888
 11
-62.48175420556981
 21
-32.25470025448904
  0
ARC
  5
1B7
100
AcDbEntity
  8
0
  6
ByLayer
 62
  256
370
   -1
100
AcDbCircle
 10
-62.98175420556981
 20
-32.25470025448904
 40
0.5000000000000001
100
AcDbArc
 50
0
 51
90
  0
ARC
  5
1B8
100
AcDbEntity
  8
0
  6
ByLayer
 62
  256
370
   -1
100
AcDbCircle
 10
-93.98175320557084
 20
-32.25470125448892
 40
0.5000010000010016
100
AcDbArc
 50
90.00011459132956
 51
179.9998854086699
  0
LINE
  5
1B9
100
AcDbEntity
  8
0
  6
ByLayer
 62
  256
370
   -1
100
AcDbLine
 10
-62.98175420556981
 20
-31.75470025448904
 11
-78.48175420556981
 21
-31.75470025448904
  0
LINE
  5
1BA
100
AcDbEntity
  8
0
  6
ByLayer
 62
  256
370
   -1
100
AcDbLine
 10
-78.48175420556981
 20
-31.75470025448904
 11
-93.98175420557072
 21
-31.75470025448904
  0
LINE
  5
1BB
100
AcDbEntity
  8
0
  6
ByLayer
 62
  256
370
   -1
100
AcDbLine
 10
-91.48175420557072
 20
-45.70470025448886
 11
-78.48175420556981
 21
-45.70470025448886
  0
LINE
  5
1BC
100
AcDbEntity
  8
0
  6
ByLayer
 62
  256
370
   -1
100
AcDbLine
 10
-78.48175420556981
 20
-45.70470025448886
 11
-65.48175420556981
 21
-45.70470025448886
  0
LINE
  5
1BD
100
AcDbEntity
  8
0
  6
ByLayer
 62
  256
370
   -1
100
AcDbLine
 10
-33.08165820557087
 20
-64.27974825448901
 11
-33.08165820557087
 21
-51.27974825448901
  0
ARC
  5
1BE
100
AcDbEntity
  8
0
  6
ByLayer
 62
  256
370
   -1
100
AcDbCircle
 10
-33.58165920556985
 20
-51.27974925448889
 40
0.5000010000009931
100
AcDbArc
 50
0.0001145913291516896
 51
89.99988540867045
  0
ARC
  5
1BF
100
AcDbEntity
  8
0
  6
ByLayer
 62
  256
370
   -1
100
AcDbCircle
 10
-47.18165820557078
 20
-51.27974825448901
 40
0.5000000000000001
100
AcDbArc
 50
90
 51
180
  0
LINE
  5
1C0
100
AcDbEntity
  8
0
  6
ByLayer
 62
  256
370
   -1
100
AcDbLine
 10
-47.68165820557078
 20
-51.27974825448901
 11
-47.68165820557078
 21
-64.27974825448901
  0
ARC
  5
1C1
100
AcDbEntity
  8
0
  6
ByLayer
 62
  256
370
   -1
100
AcDbCircle
 10
-47.18165820557078
 20
-64.27974825448901
 40
0.5000000000000001
100
AcDbArc
 50
180
 51
270
  0
ARC
  5
1C2
100
AcDbEntity
  8
0
  6
ByLayer
 62
  256
370
   -1
100
AcDbCircle
 10
-33.58165920556985
 20
-64.27974725448912
 40
0.5000010000009937
100
AcDbArc
 50
270.0001145913295
 51
359.9998854086709
  0
LINE
  5
1C3
100
AcDbEntity
  8
0
  6
ByLayer
 62
  256
370
   -1
100
AcDbLine
 10
-33.58165820557087
 20
-50.77974825448901
 11
-40.38165820557083
 21
-50.77974825448901
  0
LINE
  5
1C4
100
AcDbEntity
  8
0
  6
ByLayer
 62
  256
370
   -1
100
AcDbLine
 10
-40.38165820557083
 20
-50.77974825448901
 11
-47.18165820557078
 21
-50.77974825448901
  0
LINE
  5
1C5
100
AcDbEntity
  8
0
  6
ByLayer
 62
  256
370
   -1
100
AcDbLine
 10
-47.18165820557078
 20
-64.77974825448901
 11
-40.38165820557083
 21
-64.77974825448901
  0
LINE
  5
1C6
100
AcDbEntity
  8
0
  6
ByLayer
 62
  256
370
   -1
100
AcDbLine
 10
-40.38165820557083
 20
-64.77974825448901
 11
-33.58165820557087
 21
-64.77974825448901
  0
LINE
  5
1C7
100
AcDbEntity
  8
0
  6
ByLayer
 62
  256
370
   -1
100
AcDbLine
 10
-107.2137022055708
 20
-108.4297002544888
 11
-107.2137022055708
 21
-121.4297002544888
  0
ARC
  5
1C8
100
AcDbEntity
  8
0
  6
ByLayer
 62
  256
370
   -1
100
AcDbCircle
 10
-106.7137022055708
 20
-121.4297002544888
 40
0.5000000000000071
100
AcDbArc
 50
179.9999999999984
 51
269.9999999999984
  0
ARC
  5
1C9
100
AcDbEntity
  8
0
  6
ByLayer
 62
  256
370
   -1
100
AcDbCircle
 10
-93.1137032055708
 20
-121.4296992544889
 40
0.5000010000010009
100
AcDbArc
 50
270.0001145913295
 51
359.9998854086721
  0
LINE
  5
1CA
100
AcDbEntity
  8
0
  6
ByLayer
 62
  256
370
   -1
100
AcDbLine
 10
-92.61370220557092
 20
-121.4297002544888
 11
-92.61370220557092
 21
-108.4297002544888
  0
ARC
  5
1CB
100
AcDbEntity
  8
0
  6
ByLayer
 62
  256
370
   -1
100
AcDbCircle
 10
-93.1137032055708
 20
-108.4297012544891
 40
0.5000010000009985
100
AcDbArc
 50
0.0001145913295588006
 51
89.99988540867045
  0
ARC
  5
1CC
100
AcDbEntity
  8
0
  6
ByLayer
 62
  256
370
   -1
100
AcDbCircle
 10
-106.7137022055708
 20
-108.4297002544888
 40
0.5
100
AcDbArc
 50
90
 51
180
  0
LINE
  5
1CD
100
AcDbEntity
  8
0
  6
ByLayer
 62
  256
370
   -1
100
AcDbLine
 10
-93.11370220557092
 20
-107.9297002544888
 11
-99.91370220557087
 21
-107.9297002544888
  0
LINE
  5
1CE
100
AcDbEntity
  8
0
  6
ByLayer
 62
  256
370
   -1
100
AcDbLine
 10
-99.91370220557087
 20
-107.9297002544888
 11
-106.7137022055708
 21
-107.9297002544888
  0
LINE
  5
1CF
100
AcDbEntity
  8
0
  6
ByLayer
 62
  256
370
   -1
100
AcDbLine
 10
-106.7137022055708
 20
-121.9297002544888
 11
-99.91370220557087
 21
-121.9297002544888
  0
LINE
  5
1D0
100
AcDbEntity
  8
0
  6
ByLayer
 62
  256
370
   -1
100
AcDbLine
 10
-99.91370220557087
 20
-121.9297002544888
 11
-93.11370220557092
 21
-121.9297002544888
  0
LINE
  5
1D1
100
AcDbEntity
  8
0
  6
ByLayer
 62
  256
370
   -1
100
AcDbLine
 10
-131.0262022055708
 20
-108.4297002544888
 11
-131.0262022055708
 21
-121.4297002544888
  0
ARC
  5
1D2
100
AcDbEntity
  8
0
  6
ByLayer
 62
  256
370
   -1
100
AcDbCircle
 10
-130.5262022055708
 20
-121.4297002544888
 40
0.5000000000000071
100
AcDbArc
 50
179.9999999999984
 51
269.9999999999984
  0
ARC
  5
1D3
100
AcDbEntity
  8
0
  6
ByLayer
 62
  256
370
   -1
100
AcDbCircle
 10
-116.9262032055708
 20
-121.4296992544889
 40
0.5000010000010009
100
AcDbArc
 50
270.0001145913295
 51
359.9998854086721
  0
LINE
  5
1D4
100
AcDbEntity
  8
0
  6
ByLayer
 62
  256
370
   -1
100
AcDbLine
 10
-116.4262022055709
 20
-121.4297002544888
 11
-116.4262022055709
 21
-108.4297002544888
  0
ARC
  5
1D5
100
AcDbEntity
  8
0
  6
ByLayer
 62
  256
370
   -1
100
AcDbCircle
 10
-116.9262032055708
 20
-108.4297012544891
 40
0.5000010000009985
100
AcDbArc
 50
0.0001145913295588006
 51
89.99988540867045
  0
ARC
  5
1D6
100
AcDbEntity
  8
0
  6
ByLayer
 62
  256
370
   -1
100
AcDbCircle
 10
-130.5262022055708
 20
-108.4297002544888
 40
0.5
100
AcDbArc
 50
90
 51
180
  0
LINE
  5
1D7
100
AcDbEntity
  8
0
  6
ByLayer
 62
  256
370
   -1
100
AcDbLine
 10
-116.9262022055709
 20
-107.9297002544888
 11
-123.7262022055709
 21
-107.9297002544888
  0
LINE
  5
1D8
100
AcDbEntity
  8
0
  6
ByLayer
 62
  256
370
   -1
100
AcDbLine
 10
-123.7262022055709
 20
-107.9297002544888
 11
-130.5262022055708
 21
-107.9297002544888
  0
LINE
  5
1D9
100
AcDbEntity
  8
0
  6
ByLayer
 62
  256
370
   -1
100
AcDbLine
 10
-130.5262022055708
 20
-121.9297002544888
 11
-123.7262022055709
 21
-121.9297002544888
  0
LINE
  5
1DA
100
AcDbEntity
  8
0
  6
ByLayer
 62
  256
370
   -1
100
AcDbLine
 10
-123.7262022055709
 20
-121.9297002544888
 11
-116.9262022055709
 21
-121.9297002544888
  0
LINE
  5
1DB
100
AcDbEntity
  8
0
  6
ByLayer
 62
  256
370
   -1
100
AcDbLine
 10
-154.8387022055708
 20
-108.4297002544888
 11
-154.8387022055708
 21
-121.4297002544888
  0
ARC
  5
1DC
100
AcDbEntity
  8
0
  6
ByLayer
 62
  256
370
   -1
100
AcDbCircle
 10
-154.3387022055708
 20
-121.4297002544888
 40
0.5000000000000071
100
AcDbArc
 50
179.9999999999984
 51
269.9999999999984
  0
ARC
  5
1DD
100
AcDbEntity
  8
0
  6
ByLayer
 62
  256
370
   -1
100
AcDbCircle
 10
-140.7387032055708
 20
-121.4296992544889
 40
0.5000010000010009
100
AcDbArc
 50
270.0001145913295
 51
359.9998854086721
  0
LINE
  5
1DE
100
AcDbEntity
  8
0
  6
ByLayer
 62
  256
370
   -1
100
AcDbLine
 10
-140.2387022055709
 20
-121.4297002544888
 11
-140.2387022055709
 21
-108.4297002544888
  0
ARC
  5
1DF
100
AcDbEntity
  8
0
  6
ByLayer
 62
  256
370
   -1
100
AcDbCircle
 10
-140.7387032055708
 20
-108.4297012544891
 40
0.5000010000009985
100
AcDbArc
 50
0.0001145913295588006
 51
89.99988540867045
  0
ARC
  5
1E0
100
AcDbEntity
  8
0
  6
ByLayer
 62
  256
370
   -1
100
AcDbCircle
 10
-154.3387022055708
 20
-108.4297002544888
 40
0.5
100
AcDbArc
 50
90
 51
180
  0
LINE
  5
1E1
100
AcDbEntity
  8
0
  6
ByLayer
 62
  256
370
   -1
100
AcDbLine
 10
-140.7387022055709
 20
-107.9297002544888
 11
-147.5387022055709
 21
-107.9297002544888
  0
LINE
  5
1E2
100
AcDbEntity
  8
0
  6
ByLayer
 62
  256
370
   -1
100
AcDbLine
 10
-147.5387022055709
 20
-107.9297002544888
 11
-154.3387022055708
 21
-107.9297002544888
  0
LINE
  5
1E3
100
AcDbEntity
  8
0
  6
ByLayer
 62
  256
370
   -1
100
AcDbLine
 10
-154.3387022055708
 20
-121.9297002544888
 11
-147.5387022055709
 21
-121.9297002544888
  0
LINE
  5
1E4
100
AcDbEntity
  8
0
  6
ByLayer
 62
  256
370
   -1
100
AcDbLine
 10
-147.5387022055709
 20
-121.9297002544888
 11
-140.7387022055709
 21
-121.9297002544888
  0
LINE
  5
1E5
100
AcDbEntity
  8
0
  6
ByLayer
 62
  256
370
   -1
100
AcDbLine
 10
-340.5762022055708
 20
-108.4297002544888
 11
-340.5762022055708
 21
-121.4297002544888
  0
ARC
  5
1E6
100
AcDbEntity
  8
0
  6
ByLayer
 62
  256
370
   -1
100
AcDbCircle
 10
-340.0762022055708
 20
-121.4297002544888
 40
0.5000000000000071
100
AcDbArc
 50
179.9999999999984
 51
269.9999999999984
  0
ARC
  5
1E7
100
AcDbEntity
  8
0
  6
ByLayer
 62
  256
370
   -1
100
AcDbCircle
 10
-326.4762032055708
 20
-121.4296992544889
 40
0.5000010000010009
100
AcDbArc
 50
270.0001145913295
 51
359.9998854086721
  0
LINE
  5
1E8
100
AcDbEntity
  8
0
  6
ByLayer
 62
  256
370
   -1
100
AcDbLine
 10
-325.9762022055709
 20
-121.4297002544888
 11
-325.9762022055709
 21
-108.4297002544888
  0
ARC
  5
1E9
100
AcDbEntity
  8
0
  6
ByLayer
 62
  256
370
   -1
100
AcDbCircle
 10
-326.4762032055708
 20
-108.4297012544891
 40
0.5000010000009985
100
AcDbArc
 50
0.0001145913295588006
 51
89.99988540867045
  0
ARC
  5
1EA
100
AcDbEntity
  8
0
  6
ByLayer
 62
  256
370
   -1
100
AcDbCircle
 10
-340.0762022055708
 20
-108.4297002544888
 40
0.5
100
AcDbArc
 50
90
 51
180
  0
LINE
  5
1EB
100
AcDbEntity
  8
0
  6
ByLayer
 62
  256
370
   -1
100
AcDbLine
 10
-326.4762022055709
 20
-107.9297002544888
 11
-333.2762022055708
 21
-107.9297002544888
  0
LINE
  5
1EC
100
AcDbEntity
  8
0
  6
ByLayer
 62
  256
370
   -1
100
AcDbLine
 10
-333.2762022055708
 20
-107.9297002544888
 11
-340.0762022055708
 21
-107.9297002544888
  0
LINE
  5
1ED
100
AcDbEntity
  8
0
  6
ByLayer
 62
  256
370
   -1
100
AcDbLine
 10
-340.0762022055708
 20
-121.9297002544888
 11
-333.2762022055708
 21
-121.9297002544888
  0
LINE
  5
1EE
100
AcDbEntity
  8
0
  6
ByLayer
 62
  256
370
   -1
100
AcDbLine
 10
-333.2762022055708
 20
-121.9297002544888
 11
-326.4762022055709
 21
-121.9297002544888
  0
LINE
  5
1EF
100
AcDbEntity
  8
0
  6
ByLayer
 62
  256
370
   -1
100
AcDbLine
 10
-316.7636022055708
 20
-108.4297002544888
 11
-316.7636022055708
 21
-121.4297002544888
  0
ARC
  5
1F0
100
AcDbEntity
  8
0
  6
ByLayer
 62
  256
370
   -1
100
AcDbCircle
 10
-316.2636022055708
 20
-121.4297002544888
 40
0.5000000000000071
100
AcDbArc
 50
179.9999999999984
 51
269.9999999999984
  0
ARC
  5
1F1
100
AcDbEntity
  8
0
  6
ByLayer
 62
  256
370
   -1
100
AcDbCircle
 10
-302.6636032055708
 20
-121.4296992544889
 40
0.5000010000010009
100
AcDbArc
 50
270.0001145913295
 51
359.9998854086721
  0
LINE
  5
1F2
100
AcDbEntity
  8
0
  6
ByLayer
 62
  256
370
   -1
100
AcDbLine
 10
-302.1636022055709
 20
-121.4297002544888
 11
-302.1636022055709
 21
-108.4297002544888
  0
ARC
  5
1F3
100
AcDbEntity
  8
0
  6
ByLayer
 62
  256
370
   -1
100
AcDbCircle
 10
-302.6636032055708
 20
-108.4297012544891
 40
0.5000010000009985
100
AcDbArc
 50
0.0001145913295588006
 51
89.99988540867045
  0
ARC
  5
1F4
100
AcDbEntity
  8
0
  6
ByLayer
 62
  256
370
   -1
100
AcDbCircle
 10
-316.2636022055708
 20
-108.4297002544888
 40
0.5
100
AcDbArc
 50
90
 51
180
  0
LINE
  5
1F5
100
AcDbEntity
  8
0
  6
ByLayer
 62
  256
370
   -1
100
AcDbLine
 10
-302.6636022055709
 20
-107.9297002544888
 11
-309.4636022055709
 21
-107.9297002544888
  0
LINE
  5
1F6
100
AcDbEntity
  8
0
  6
ByLayer
 62
  256
370
   -1
100
AcDbLine
 10
-309.4636022055709
 20
-107.9297002544888
 11
-316.2636022055708
 21
-107.9297002544888
  0
LINE
  5
1F7
100
AcDbEntity
  8
0
  6
ByLayer
 62
  256
370
   -1
100
AcDbLine
 10
-316.2636022055708
 20
-121.9297002544888
 11
-309.4636022055709
 21
-121.9297002544888
  0
LINE
  5
1F8
100
AcDbEntity
  8
0
  6
ByLayer
 62
  256
370
   -1
100
AcDbLine
 10
-309.4636022055709
 20
-121.9297002544888
 11
-302.6636022055709
 21
-121.9297002544888
  0
LINE
  5
1F9
100
AcDbEntity
  8
0
  6
ByLayer
 62
  256
370
   -1
100
AcDbLine
 10
-292.9511022055708
 20
-108.4297002544888
 11
-292.9511022055708
 21
-121.4297002544888
  0
ARC
  5
1FA
100
AcDbEntity
  8
0
  6
ByLayer
 62
  256
370
   -1
100
AcDbCircle
 10
-292.4511022055708
 20
-121.4297002544888
 40
0.5000000000000071
100
AcDbArc
 50
179.9999999999984
 51
269.9999999999984
  0
ARC
  5
1FB
100
AcDbEntity
  8
0
  6
ByLayer
 62
  256
370
   -1
100
AcDbCircle
 10
-278.8511032055708
 20
-121.4296992544889
 40
0.5000010000010009
100
AcDbArc
 50
270.0001145913295
 51
359.9998854086721
  0
LINE
  5
1FC
100
AcDbEntity
  8
0
  6
ByLayer
 62
  256
370
   -1
100
AcDbLine
 10
-278.3511022055709
 20
-121.4297002544888
 11
-278.3511022055709
 21
-108.4297002544888
  0
ARC
  5
1FD
100
AcDbEntity
  8
0
  6
ByLayer
 62
  256
370
   -1
100
AcDbCircle
 10
-278.8511032055708
 20
-108.4297012544891
 40
0.5000010000009985
100
AcDbArc
 50
0.0001145913295588006
 51
89.99988540867045
  0
ARC
  5
1FE
100
AcDbEntity
  8
0
  6
ByLayer
 62
  256
370
   -1
100
AcDbCircle
 10
-292.4511022055708
 20
-108.4297002544888
 40
0.5
100
AcDbArc
 50
90
 51
180
  0
LINE
  5
1FF
100
AcDbEntity
  8
0
  6
ByLayer
 62
  256
370
   -1
100
AcDbLine
 10
-278.8511022055709
 20
-107.9297002544888
 11
-285.6511022055709
 21
-107.9297002544888
  0
LINE
  5
200
100
AcDbEntity
  8
0
  6
ByLayer
 62
  256
370
   -1
100
AcDbLine
 10
-285.6511022055709
 20
-107.9297002544888
 11
-292.4511022055708
 21
-107.9297002544888
  0
LINE
  5
201
100
AcDbEntity
  8
0
  6
ByLayer
 62
  256
370
   -1
100
AcDbLine
 10
-292.4511022055708
 20
-121.9297002544888
 11
-285.6511022055709
 21
-121.9297002544888
  0
LINE
  5
202
100
AcDbEntity
  8
0
  6
ByLayer
 62
  256
370
   -1
100
AcDbLine
 10
-285.6511022055709
 20
-121.9297002544888
 11
-278.8511022055709
 21
-121.9297002544888
  0
LWPOLYLINE
  5
203
100
AcDbEntity
  8
0
  6
ByLayer
 62
    2
370
   -1
100
AcDbPolyline
 90
   10
 70
    1
 43
0
 10
-107.0568262055708
 20
-31.72970025448895
 10
-113.8568262055708
 20
-31.72970025448895
 42
0.414213562373095
 10
-114.3568262055708
 20
-32.22970025448895
 10
-114.3568262055708
 20
-45.22970025448895
 42
0.414213562373095
 10
-113.8568262055708
 20
-45.72970025448895
 10
-107.0568262055708
 20
-45.72970025448895
 10
-100.2568262055709
 20
-45.72970025448895
 42
0.4142123908031846
 10
-99.75682620557086
 20
-45.22970025448895
 10
-99.75682620557086
 20
-32.22970025448895
 42
0.4142123908031843
 10
-100.2568262055709
 20
-31.72970025448895
  0
LINE
  5
204
100
AcDbEntity
  8
0
  6
ByLayer
 62
  256
370
   -1
100
AcDbLine
 10
-335.8137022055707
 20
-70.32970025448886
 11
-335.8137022055707
 21
-83.32970025448886
  0
ARC
  5
205
100
AcDbEntity
  8
0
  6
ByLayer
 62
  256
370
   -1
100
AcDbCircle
 10
-335.3137022055707
 20
-83.32970025448886
 40
0.5000000000000071
100
AcDbArc
 50
179.9999999999984
 51
269.9999999999984
  0
ARC
  5
206
100
AcDbEntity
  8
0
  6
ByLayer
 62
  256
370
   -1
100
AcDbCircle
 10
-321.7137032055707
 20
-83.32969925448897
 40
0.5000010000010009
100
AcDbArc
 50
270.0001145913295
 51
359.9998854086721
  0
LINE
  5
207
100
AcDbEntity
  8
0
  6
ByLayer
 62
  256
370
   -1
100
AcDbLine
 10
-321.2137022055708
 20
-83.32970025448886
 11
-321.2137022055708
 21
-70.32970025448886
  0
ARC
  5
208
100
AcDbEntity
  8
0
  6
ByLayer
 62
  256
370
   -1
100
AcDbCircle
 10
-321.7137032055707
 20
-70.32970125448874
 40
0.5000010000009985
100
AcDbArc
 50
0.0001145913295588006
 51
89.99988540867045
  0
ARC
  5
209
100
AcDbEntity
  8
0
  6
ByLayer
 62
  256
370
   -1
100
AcDbCircle
 10
-335.3137022055707
 20
-70.32970025448886
 40
0.5
100
AcDbArc
 50
90
 51
180
  0
LINE
  5
20A
100
AcDbEntity
  8
0
  6
ByLayer
 62
  256
370
   -1
100
AcDbLine
 10
-321.7137022055708
 20
-69.82970025448886
 11
-328.5137022055708
 21
-69.82970025448886
  0
LINE
  5
20B
100
AcDbEntity
  8
0
  6
ByLayer
 62
  256
370
   -1
100
AcDbLine
 10
-328.5137022055708
 20
-69.82970025448886
 11
-335.3137022055707
 21
-69.82970025448886
  0
LINE
  5
20C
100
AcDbEntity
  8
0
  6
ByLayer
 62
  256
370
   -1
100
AcDbLine
 10
-335.3137022055707
 20
-83.82970025448886
 11
-328.5137022055708
 21
-83.82970025448886
  0
LINE
  5
20D
100
AcDbEntity
  8
0
  6
ByLayer
 62
  256
370
   -1
100
AcDbLine
 10
-328.5137022055708
 20
-83.82970025448886
 11
-321.7137022055708
 21
-83.82970025448886
  0
LINE
  5
20E
100
AcDbEntity
  8
0
  6
ByLayer
 62
  256
370
   -1
100
AcDbLine
 10
-209.2946022055698
 20
-102.3798442544891
 11
-209.2946022055698
 21
-89.37984425448913
  0
ARC
  5
20F
100
AcDbEntity
  8
0
  6
ByLayer
 62
  256
370
   -1
100
AcDbCircle
 10
-209.7946032055709
 20
-89.37984525448901
 40
0.5000010000009975
100
AcDbArc
 50
0.0001145913295588006
 51
89.99988540867045
  0
ARC
  5
210
100
AcDbEntity
  8
0
  6
ByLayer
 62
  256
370
   -1
100
AcDbCircle
 10
-223.3946022055709
 20
-89.37984425448913
 40
0.5000000000000001
100
AcDbArc
 50
90
 51
180
  0
LINE
  5
211
100
AcDbEntity
  8
0
  6
ByLayer
 62
  256
370
   -1
100
AcDbLine
 10
-223.8946022055709
 20
-89.37984425448913
 11
-223.8946022055709
 21
-102.3798442544891
  0
ARC
  5
212
100
AcDbEntity
  8
0
  6
ByLayer
 62
  256
370
   -1
100
AcDbCircle
 10
-223.3946022055709
 20
-102.3798442544891
 40
0.5000000000000105
100
AcDbArc
 50
179.9999999999992
 51
269.9999999999984
  0
ARC
  5
213
100
AcDbEntity
  8
0
  6
ByLayer
 62
  256
370
   -1
100
AcDbCircle
 10
-209.7946032055709
 20
-102.3798432544888
 40
0.5000010000009973
100
AcDbArc
 50
270.0001145913295
 51
359.9998854086721
  0
LINE
  5
214
100
AcDbEntity
  8
0
  6
ByLayer
 62
  256
370
   -1
100
AcDbLine
 10
-209.7946022055698
 20
-88.87984425448913
 11
-216.5946022055707
 21
-88.87984425448913
  0
LINE
  5
215
100
AcDbEntity
  8
0
  6
ByLayer
 62
  256
370
   -1
100
AcDbLine
 10
-216.5946022055707
 20
-88.87984425448913
 11
-223.3946022055709
 21
-88.87984425448913
  0
LINE
  5
216
100
AcDbEntity
  8
0
  6
ByLayer
 62
  256
370
   -1
100
AcDbLine
 10
-223.3946022055709
 20
-102.8798442544891
 11
-216.5946022055707
 21
-102.8798442544891
  0
LINE
  5
217
100
AcDbEntity
  8
0
  6
ByLayer
 62
  256
370
   -1
100
AcDbLine
 10
-216.5946022055707
 20
-102.8798442544891
 11
-209.7946022055698
 21
-102.8798442544891
  0
LINE
  5
218
100
AcDbEntity
  8
0
  6
ByLayer
 62
  256
370
   -1
100
AcDbLine
 10
-96.86301020557084
 20
-70.3547962544887
 11
-96.86301020557084
 21
-82.07279625448901
  0
LINE
  5
219
100
AcDbEntity
  8
0
  6
ByLayer
 62
  256
370
   -1
100
AcDbLine
 10
-96.86301020557084
 20
-82.07279625448901
 11
-93.86301020557084
 21
-83.80479625448898
  0
LINE
  5
21A
100
AcDbEntity
  8
0
  6
ByLayer
 62
  256
370
   -1
100
AcDbLine
 10
-67.86301020557084
 20
-83.80479625448898
 11
-64.86301020557084
 21
-82.07279625448901
  0
LINE
  5
21B
100
AcDbEntity
  8
0
  6
ByLayer
 62
  256
370
   -1
100
AcDbLine
 10
-64.86301020557084
 20
-82.07279625448901
 11
-64.86301020557084
 21
-70.3547962544887
  0
ARC
  5
21C
100
AcDbEntity
  8
0
  6
ByLayer
 62
  256
370
   -1
100
AcDbCircle
 10
-65.36301020557084
 20
-70.3547962544887
 40
0.5000000000000001
100
AcDbArc
 50
0
 51
90
  0
ARC
  5
21D
100
AcDbEntity
  8
0
  6
ByLayer
 62
  256
370
   -1
100
AcDbCircle
 10
-96.36300920557073
 20
-70.35479725448904
 40
0.5000010000009993
100
AcDbArc
 50
90.00011459132956
 51
179.99988540867
  0
LINE
  5
21E
100
AcDbEntity
  8
0
  6
ByLayer
 62
  256
370
   -1
100
AcDbLine
 10
-65.36301020557084
 20
-69.8547962544887
 11
-80.86301020557084
 21
-69.8547962544887
  0
LINE
  5
21F
100
AcDbEntity
  8
0
  6
ByLayer
 62
  256
370
   -1
100
AcDbLine
 10
-80.86301020557084
 20
-69.8547962544887
 11
-96.36301020557084
 21
-69.8547962544887
  0
LINE
  5
220
100
AcDbEntity
  8
0
  6
ByLayer
 62
  256
370
   -1
100
AcDbLine
 10
-93.86301020557084
 20
-83.80479625448898
 11
-80.86301020557084
 21
-83.80479625448898
  0
LINE
  5
221
100
AcDbEntity
  8
0
  6
ByLayer
 62
  256
370
   -1
100
AcDbLine
 10
-80.86301020557084
 20
-83.80479625448898
 11
-67.86301020557084
 21
-83.80479625448898
  0
ARC
  5
222
100
AcDbEntity
  8
0
  6
ByLayer
 62
  256
370
   -1
100
AcDbCircle
 10
-257.9265032055707
 20
-121.3796992544887
 40
0.5000010000009972
100
AcDbArc
 50
270.0001145900007
 51
359.9998854100025
  0
LINE
  5
223
100
AcDbEntity
  8
0
  6
ByLayer
 62
  256
370
   -1
100
AcDbLine
 10
-257.4265022055708
 20
-121.3797002544768
 11
-257.4265022055708
 21
-108.4797002545008
  0
ARC
  5
224
100
AcDbEntity
  8
0
  6
ByLayer
 62
  256
370
   -1
100
AcDbCircle
 10
-257.9265032055707
 20
-108.4797012544888
 40
0.5000010000009975
100
AcDbArc
 50
0.0001145899974916112
 51
89.99988540999925
  0
ARC
  5
225
100
AcDbEntity
  8
0
  6
ByLayer
 62
  256
370
   -1
100
AcDbCircle
 10
-270.5265012055709
 20
-108.4797012544888
 40
0.5000010000009975
100
AcDbArc
 50
90.00011459000075
 51
179.9998854100009
  0
LINE
  5
226
100
AcDbEntity
  8
0
  6
ByLayer
 62
  256
370
   -1
100
AcDbLine
 10
-271.0265022055708
 20
-108.4797002545008
 11
-271.0265022055708
 21
-121.3797002544768
  0
ARC
  5
227
100
AcDbEntity
  8
0
  6
ByLayer
 62
  256
370
   -1
100
AcDbCircle
 10
-270.5265012055709
 20
-121.3796992544887
 40
0.5000010000009972
100
AcDbArc
 50
180.0001145899975
 51
269.9998854099993
  0
LINE
  5
228
100
AcDbEntity
  8
0
  6
ByLayer
 62
  256
370
   -1
100
AcDbLine
 10
-257.9265022055818
 20
-107.9797002544889
 11
-264.2265022055708
 21
-107.9797002544889
  0
LINE
  5
229
100
AcDbEntity
  8
0
  6
ByLayer
 62
  256
370
   -1
100
AcDbLine
 10
-264.2265022055708
 20
-107.9797002544889
 11
-270.5265022055587
 21
-107.9797002544889
  0
LINE
  5
22A
100
AcDbEntity
  8
0
  6
ByLayer
 62
  256
370
   -1
100
AcDbLine
 10
-270.5265022055587
 20
-121.879700254489
 11
-264.2265022055708
 21
-121.879700254489
  0
LINE
  5
22B
100
AcDbEntity
  8
0
  6
ByLayer
 62
  256
370
   -1
100
AcDbLine
 10
-264.2265022055708
 20
-121.879700254489
 11
-257.9265022055818
 21
-121.879700254489
  0
ARC
  5
22C
100
AcDbEntity
  8
0
  6
ByLayer
 62
  256
370
   -1
100
AcDbCircle
 10
-162.6699022055709
 20
-121.379700254489
 40
0.5000000000000001
100
AcDbArc
 50
270
 51
0
  0
LINE
  5
22D
100
AcDbEntity
  8
0
  6
ByLayer
 62
  256
370
   -1
100
AcDbLine
 10
-162.1699022055709
 20
-121.379700254489
 11
-162.1699022055709
 21
-108.4797002544889
  0
ARC
  5
22E
100
AcDbEntity
  8
0
  6
ByLayer
 62
  256
370
   -1
100
AcDbCircle
 10
-162.6699022055709
 20
-108.4797002544889
 40
0.5000000000000001
100
AcDbArc
 50
0
 51
90
  0
ARC
  5
22F
100
AcDbEntity
  8
0
  6
ByLayer
 62
  256
370
   -1
100
AcDbCircle
 10
-175.2699022055708
 20
-108.4797002544889
 40
0.5000000000000001
100
AcDbArc
 50
90
 51
180
  0
LINE
  5
230
100
AcDbEntity
  8
0
  6
ByLayer
 62
  256
370
   -1
100
AcDbLine
 10
-175.7699022055708
 20
-108.4797002544889
 11
-175.7699022055708
 21
-121.379700254489
  0
ARC
  5
231
100
AcDbEntity
  8
0
  6
ByLayer
 62
  256
370
   -1
100
AcDbCircle
 10
-175.2699022055708
 20
-121.379700254489
 40
0.5000000000000001
100
AcDbArc
 50
180
 51
270
  0
LINE
  5
232
100
AcDbEntity
  8
0
  6
ByLayer
 62
  256
370
   -1
100
AcDbLine
 10
-162.6699022055709
 20
-107.9797002544889
 11
-168.9699022055709
 21
-107.9797002544889
  0
LINE
  5
233
100
AcDbEntity
  8
0
  6
ByLayer
 62
  256
370
   -1
100
AcDbLine
 10
-168.9699022055709
 20
-107.9797002544889
 11
-175.2699022055708
 21
-107.9797002544889
  0
LINE
  5
234
100
AcDbEntity
  8
0
  6
ByLayer
 62
  256
370
   -1
100
AcDbLine
 10
-175.2699022055708
 20
-121.879700254489
 11
-168.9699022055709
 21
-121.879700254489
  0
LINE
  5
235
100
AcDbEntity
  8
0
  6
ByLayer
 62
  256
370
   -1
100
AcDbLine
 10
-168.9699022055709
 20
-121.879700254489
 11
-162.6699022055709
 21
-121.879700254489
  0
LINE
  5
236
100
AcDbEntity
  8
0
  6
ByLayer
 62
  256
370
   -1
100
AcDbLine
 10
-339.7511222055707
 20
-89.40484425448876
 11
-339.7511222055707
 21
-101.1228442544891
  0
LINE
  5
237
100
AcDbEntity
  8
0
  6
ByLayer
 62
  256
370
   -1
100
AcDbLine
 10
-339.7511222055707
 20
-101.1228442544891
 11
-336.7511222055707
 21
-102.854844254489
  0
LINE
  5
238
100
AcDbEntity
  8
0
  6
ByLayer
 62
  256
370
   -1
100
AcDbLine
 10
-310.7511222055707
 20
-102.854844254489
 11
-307.7511222055707
 21
-101.1228442544891
  0
LINE
  5
239
100
AcDbEntity
  8
0
  6
ByLayer
 62
  256
370
   -1
100
AcDbLine
 10
-307.7511222055707
 20
-101.1228442544891
 11
-307.7511222055707
 21
-89.40484425448876
  0
ARC
  5
23A
100
AcDbEntity
  8
0
  6
ByLayer
 62
  256
370
   -1
100
AcDbCircle
 10
-308.2511222055707
 20
-89.40484425448876
 40
0.5000000000000001
100
AcDbArc
 50
0
 51
90
  0
ARC
  5
23B
100
AcDbEntity
  8
0
  6
ByLayer
 62
  256
370
   -1
100
AcDbCircle
 10
-339.2511212055708
 20
-89.4048452544891
 40
0.5000010000010049
100
AcDbArc
 50
90.00011459133027
 51
179.9998854086696
  0
LINE
  5
23C
100
AcDbEntity
  8
0
  6
ByLayer
 62
  256
370
   -1
100
AcDbLine
 10
-308.2511222055707
 20
-88.90484425448876
 11
-323.7511222055707
 21
-88.90484425448876
  0
LINE
  5
23D
100
AcDbEntity
  8
0
  6
ByLayer
 62
  256
370
   -1
100
AcDbLine
 10
-323.7511222055707
 20
-88.90484425448876
 11
-339.2511222055707
 21
-88.90484425448876
  0
LINE
  5
23E
100
AcDbEntity
  8
0
  6
ByLayer
 62
  256
370
   -1
100
AcDbLine
 10
-336.7511222055707
 20
-102.854844254489
 11
-323.7511222055707
 21
-102.854844254489
  0
LINE
  5
23F
100
AcDbEntity
  8
0
  6
ByLayer
 62
  256
370
   -1
100
AcDbLine
 10
-323.7511222055707
 20
-102.854844254489
 11
-310.7511222055707
 21
-102.854844254489
  0
LINE
  5
240
100
AcDbEntity
  8
0
  6
ByLayer
 62
  256
370
   -1
100
AcDbLine
 10
-309.6198182055707
 20
-70.32979625448907
 11
-309.6198182055707
 21
-83.32979625448907
  0
ARC
  5
241
100
AcDbEntity
  8
0
  6
ByLayer
 62
  256
370
   -1
100
AcDbCircle
 10
-309.1198172055708
 20
-83.32979525448873
 40
0.5000010000009973
100
AcDbArc
 50
180.0001145913295
 51
269.9998854086705
  0
ARC
  5
242
100
AcDbEntity
  8
0
  6
ByLayer
 62
  256
370
   -1
100
AcDbCircle
 10
-295.5198182055708
 20
-83.32979625448907
 40
0.5000000000000001
100
AcDbArc
 50
270
 51
0
  0
LINE
  5
243
100
AcDbEntity
  8
0
  6
ByLayer
 62
  256
370
   -1
100
AcDbLine
 10
-295.0198182055708
 20
-83.32979625448907
 11
-295.0198182055708
 21
-70.32979625448907
  0
ARC
  5
244
100
AcDbEntity
  8
0
  6
ByLayer
 62
  256
370
   -1
100
AcDbCircle
 10
-295.5198182055708
 20
-70.32979625448907
 40
0.5000000000000001
100
AcDbArc
 50
0
 51
90
  0
ARC
  5
245
100
AcDbEntity
  8
0
  6
ByLayer
 62
  256
370
   -1
100
AcDbCircle
 10
-309.1198172055708
 20
-70.32979725448895
 40
0.5000010000009976
100
AcDbArc
 50
90.00011459132956
 51
179.9998854086705
  0
LINE
  5
246
100
AcDbEntity
  8
0
  6
ByLayer
 62
  256
370
   -1
100
AcDbLine
 10
-295.5198182055708
 20
-69.82979625448907
 11
-302.3198182055698
 21
-69.82979625448907
  0
LINE
  5
247
100
AcDbEntity
  8
0
  6
ByLayer
 62
  256
370
   -1
100
AcDbLine
 10
-302.3198182055698
 20
-69.82979625448907
 11
-309.1198182055707
 21
-69.82979625448907
  0
LINE
  5
248
100
AcDbEntity
  8
0
  6
ByLayer
 62
  256
370
   -1
100
AcDbLine
 10
-309.1198182055707
 20
-83.82979625448907
 11
-302.3198182055698
 21
-83.82979625448907
  0
LINE
  5
249
100
AcDbEntity
  8
0
  6
ByLayer
 62
  256
370
   -1
100
AcDbLine
 10
-302.3198182055698
 20
-83.82979625448907
 11
-295.5198182055708
 21
-83.82979625448907
  0
LWPOLYLINE
  5
24A
100
AcDbEntity
  8
0
  6
ByLayer
 62
  256
370
   -1
100
AcDbPolyline
 90
   10
 70
    1
 43
0
 10
-90.38865220557091
 20
-102.8547002544889
 10
-77.38865220557091
 20
-102.8547002544889
 10
-74.38865220557091
 20
-101.122700254489
 10
-74.38865220557091
 20
-89.40470025448913
 42
0.414213562373095
 10
-74.88865220557091
 20
-88.90470025448913
 10
-90.38865220557091
 20
-88.90470025448913
 10
-105.8886522055709
 20
-88.90470025448913
 42
0.4142123908031843
 10
-106.3886522055709
 20
-89.40470025448913
 10
-106.3886522055709
 20
-101.122700254489
 10
-103.3886522055709
 20
-102.8547002544889
  0
CIRCLE
  5
24B
100
AcDbEntity
  8
0
  6
ByLayer
 62
    2
370
   -1
100
AcDbCircle
 10
-326.1324022055708
 20
-38.72970025448895
 40
1
  0
CIRCLE
  5
24C
100
AcDbEntity
  8
0
  6
ByLayer
 62
    2
370
   -1
100
AcDbCircle
 10
-268.9824010925279
 20
-38.72970001756103
 40
1
  0
CIRCLE
  5
24D
100
AcDbEntity
  8
0
  6
ByLayer
 62
    2
370
   -1
100
AcDbCircle
 10
-211.8324017190289
 20
-38.72970055264314
 40
1
  0
CIRCLE
  5
24E
100
AcDbEntity
  8
0
  6
ByLayer
 62
    2
370
   -1
100
AcDbCircle
 10
-173.7324017190288
 20
-38.72970055264314
 40
1
  0
CIRCLE
  5
24F
100
AcDbEntity
  8
0
  6
ByLayer
 62
    2
370
   -1
100
AcDbCircle
 10
-116.5824016336549
 20
-38.72970046726887
 40
1
  0
CIRCLE
  5
250
100
AcDbEntity
  8
0
  6
ByLayer
 62
    2
370
   -1
100
AcDbCircle
 10
-54.66990165926381
 20
-38.72970049287706
 40
1
  0
CIRCLE
  5
251
100
AcDbEntity
  8
0
  6
ByLayer
 62
    2
370
   -1
100
AcDbCircle
 10
-240.4074016233378
 20
-57.77970092229471
 40
1
  0
CIRCLE
  5
252
100
AcDbEntity
  8
0
  6
ByLayer
 62
    2
370
   -1
100
AcDbCircle
 10
-145.1574017965729
 20
-57.77970103480875
 40
1
  0
CIRCLE
  5
253
100
AcDbEntity
  8
0
  6
ByLayer
 62
    2
370
   -1
100
AcDbCircle
 10
-85.62615188843483
 20
-57.77970038323674
 40
1
  0
CIRCLE
  5
254
100
AcDbEntity
  8
0
  6
ByLayer
 62
    2
370
   -1
100
AcDbCircle
 10
-197.5449014497767
 20
-76.8297008678971
 40
1
  0
CIRCLE
  5
255
100
AcDbEntity
  8
0
  6
ByLayer
 62
    2
370
   -1
100
AcDbCircle
 10
-121.3449017190298
 20
-76.82970055264305
 40
1
  0
CIRCLE
  5
256
100
AcDbEntity
  8
0
  6
ByLayer
 62
    2
370
   -1
100
AcDbCircle
 10
-64.39490131014873
 20
-84.02345067022607
 40
1
  0
CIRCLE
  5
257
100
AcDbEntity
  8
0
  6
ByLayer
 62
    2
370
   -1
100
AcDbCircle
 10
-264.2199016939569
 20
-95.879700431107
 40
1
  0
CIRCLE
  5
258
100
AcDbEntity
  8
0
  6
ByLayer
 62
    2
370
   -1
100
AcDbCircle
 10
-207.0699017928339
 20
-95.87970010160571
 40
1
  0
CIRCLE
  5
259
100
AcDbEntity
  8
0
  6
ByLayer
 62
    2
370
   -1
100
AcDbCircle
 10
-149.9199012167599
 20
-95.87970040872297
 40
1
  0
CIRCLE
  5
25A
100
AcDbEntity
  8
0
  6
ByLayer
 62
    2
370
   -1
100
AcDbCircle
 10
-49.90740180503872
 20
-114.9297006238809
 40
1
  0
CIRCLE
  5
25B
100
AcDbEntity
  8
0
  6
ByLayer
 62
    2
370
   -1
100
AcDbCircle
 10
-88.00740182986783
 20
-114.9297004418037
 40
1
  0
CIRCLE
  5
25C
100
AcDbEntity
  8
0
  6
ByLayer
 62
    2
370
   -1
100
AcDbCircle
 10
-135.6324018298678
 20
-114.9297004418037
 40
1
  0
CIRCLE
  5
25D
100
AcDbEntity
  8
0
  6
ByLayer
 62
    2
370
   -1
100
AcDbCircle
 10
-157.8574018018858
 20
-114.9297006107501
 40
1
  0
CIRCLE
  5
25E
100
AcDbEntity
  8
0
  6
ByLayer
 62
    2
370
   -1
100
AcDbCircle
 10
-237.9261015491279
 20
-114.9297007225438
 40
1
  0
CIRCLE
  5
25F
100
AcDbEntity
  8
0
  6
ByLayer
 62
    2
370
   -1
100
AcDbCircle
 10
-297.5574013371897
 20
-114.9297003692097
 40
1
  0
CIRCLE
  5
260
100
AcDbEntity
  8
0
  6
ByLayer
 62
    2
370
   -1
100
AcDbCircle
 10
-321.3699018786517
 20
-114.929701061658
 40
1
  0
CIRCLE
  5
261
100
AcDbEntity
  8
0
  6
ByLayer
 62
    4
370
   -1
100
AcDbCircle
 10
-340.1761022048379
 20
-103.0797002218321
 40
1
  0
CIRCLE
  5
262
100
AcDbEntity
  8
0
  6
ByLayer
 62
    4
370
   -1
100
AcDbCircle
 10
-195.2937020011389
 20
-114.9296999056221
 40
1
  0
CIRCLE
  5
263
100
AcDbEntity
  8
0
  6
ByLayer
 62
    4
370
   -1
100
AcDbCircle
 10
-73.94370186390688
 20
-103.0296998025771
 40
1
  0
CIRCLE
  5
264
100
AcDbEntity
  8
0
  6
ByLayer
 62
    4
370
   -1
100
AcDbCircle
 10
-40.38240197940377
 20
-71.96720013351178
 40
1
  0
CIRCLE
  5
265
100
AcDbEntity
  8
0
  6
ByLayer
 62
    2
370
   -1
100
AcDbCircle
 10
-292.7949014497767
 20
-76.8297008678971
 40
1
  0
CIRCLE
  5
266
100
AcDbEntity
  8
0
  6
ByLayer
 62
    2
370
   -1
100
AcDbCircle
 10
-340.8137014497759
 20
-76.8297008678971
 40
1
  0
MTEXT
  5
267
100
AcDbEntity
  8
0
  6
ByLayer
 62
  256
370
   -1
100
AcDbMText
 10
-226.0287506654679
 20
-16.58239578751109
 30
0
 40
4
 41
64.55707944365535
 71
    1
 72
    1
  1
6u_space_bar_topre
  7
iso
210
0
220
0
230
1
 50
0
 73
    2
 44
1
  0
MTEXT
  5
268
100
AcDbEntity
  8
0
  6
ByLayer
 62
  256
370
   -1
100
AcDbMText
 10
193.6623526674399
 20
-12.31210465317593
 30
0
 40
4
 41
72.11263499921118
 71
    1
 72
    1
  1
6.25u_space_bar_topre
  7
iso
210
0
220
0
230
1
 50
0
 73
    2
 44
1
  0
ENDSEC
  0
SECTION
  2
OBJECTS
  0
DICTIONARY
  5
C
330
0
100
AcDbDictionary
281
    1
  3
ACAD_GROUP
350
D
  0
DICTIONARY
  5
D
330
C
100
AcDbDictionary
281
    1
  0
PLOTSETTINGS
  5
269
100
AcDbPlotSettings
  6
1x1
 40
0
 41
0
 42
0
 43
0
  0
ENDSEC
  0
EOF
